<?xml version="1.0" encoding="utf-8"?>
<!-- Generator: Adobe Illustrator 23.0.1, SVG Export Plug-In . SVG Version: 6.00 Build 0)  -->
<svg version="1.1" xmlns="http://www.w3.org/2000/svg" xmlns:xlink="http://www.w3.org/1999/xlink" x="0px" y="0px"
	 viewBox="0 0 9000 4500" style="enable-background:new 0 0 9000 4500;" xml:space="preserve">
<style type="text/css">
	.st0{fill:#FEEBAD;}
	.st1{fill:#70CCD8;}
	.st2{fill-rule:evenodd;clip-rule:evenodd;fill:none;stroke:#939393;stroke-width:280;stroke-miterlimit:10;}
	.st3{fill:#FFFFFF;}
	.st4{fill:#ED2024;}
	.st5{fill:#ED1F24;}
	.st6{fill:#ED1E27;}
	.st7{fill:#ED1E2B;}
	.st8{fill:#ED1E32;}
	.st9{fill:#EE1E3E;}
	.st10{fill:#EE1D48;}
	.st11{fill:none;stroke:#FFFFFF;stroke-width:3;stroke-miterlimit:10;}
	.st12{fill:none;stroke:#FFFFFF;stroke-width:50;stroke-miterlimit:10;}
	.st13{fill:none;stroke:#000000;stroke-width:25;stroke-miterlimit:10;stroke-dasharray:25;}
	.st14{display:none;}
	.st15{display:inline;fill:none;stroke:#EC2527;stroke-width:4;stroke-miterlimit:10;}
	.st16{display:inline;fill:none;stroke:#6FCCDD;stroke-width:4;stroke-miterlimit:10;}
	.st17{display:inline;fill:none;stroke:#000000;stroke-width:4;stroke-miterlimit:10;}
</style>
<g id="Sand">
	<path class="st0" d="M4757.6,794.4l665.5-126.6l135,655.8c0,0-31.7,301.4-185.4,367.8l-307.5-45
		C5065.1,1646.4,5399.8,1056.8,4757.6,794.4z"/>
	<path class="st0" d="M2215.9,667.8l710-275.9c0,0,235.2-49.7,153.8,137.9l-45.2,192.2c0,0-20.9,85.9,21.2,131.2L2822,970.8
		l-569.8-235.2L2215.9,667.8z"/>
	<path class="st0" d="M7430.5,2334.4l-590.2,67.8c0,0,366.3,642.8-366.3,792.9l602.1,112.2l244.4-328.2l140.1-549.8L7430.5,2334.4z"
		/>
	<path class="st0" d="M7423.7,3116.3h87.4v234.9c0,0-107.8,360.3-738.7,278.9l-725.9-123.4l40.7-155.5L7423.7,3116.3z"/>
	<path class="st0" d="M5313.9,3082.9l-698.7-62.5L4500,3379.2c0,0-40.9,119.3-197,127.5l258.4,174.7L5313.9,3082.9z"/>
	<path class="st0" d="M2978,3506.7l-594.8-127.5c0,0-95-172.9,0-262.9s41.3-389,41.3-389L2978,3506.7z"/>
	<path class="st0" d="M7857.8,1646.4l868.3-160c0,0,101.8,692.8,0,763.6l-606.3,207.7l83.9-449L7857.8,1646.4z"/>
	<path class="st0" d="M1297.7,1113.3L999.3,780.9c0,0-685.2,99.7-786.9,233s-74.6,1814.6,115.3,2006.5
		c190,191.9,662.7,112.2,908,62.5l-14.4-271.5L794,2334.4l-5-883.4L1297.7,1113.3z"/>
	<path class="st0" d="M5011.2,3575.9l-202.8,379.9c0,0-159.4,183.2-383.3,47.5L3801,3814.6c0,0-217.1-143.7-135.7-238.7H5011.2z"/>
	<path class="st1" d="M3582,2473.7c0,0-177.5,13.2-174.3,164.4c3.3,151.2,244,260.8,244,260.8s229.4,80.9,242.6,176.3
		c13.2,95.4,253.9,62.6,253.9,62.6s232.7-32.9,127.4-286c-105.2-253.2-240-348.5-240-348.5S3759.5,2424.4,3582,2473.7z"/>
</g>
<g id="Track">
	<path class="st2" d="M3838.9,3556l-619.4-110.6c0,0-105.5-20.4-169.6-44.2c-64.9-24.1-88.5-51.6-88.5-51.6l-272.8-494
		c0,0-76-86.1-154.8-132.7c-66.7-42.7-166.6-63.1-287.6-44.2c-121,18.8-258.1,51.6-258.1,51.6c-432.7,117-715.1,125.6-907,36.9
		c-377.2-210.3-342.6-899.8-339.2-1069.2s115.4-290.3,221.2-353.9c52.5-37,1178-455.6,1378.9-516.2
		c200.9-60.6,287.6,81.1,287.6,81.1s109.1,173.1,199.1,317.1c90,143.9,302.3,125.4,302.3,125.4S4754.5,939,4782.7,938.4
		c351.4-4.2,368.1,277.2,368.7,280.2c18,283.6-222.7,328.1-258.1,353.9c-76.2,31.8-309.7,7.4-309.7,7.4s-211.5-35.8-390.8-66.4
		c-166.1-33-250.7,51.6-250.7,51.6s-128.4,77.6-228.6,132.7c-100.1,55.2-272.8,22.1-272.8,22.1S1866,1520.7,1538.3,1506.2
		c-327.7-14.5-402.9,199.3-405.5,213.8c-95.1,284.1,96.3,424.7,125.4,449.8c190.3,144,471.9,132.7,471.9,132.7l3222.3-317.1
		l737.4-22.1h700.5l494-29.5c0,0,751.2-97.8,1010.2-140.1c259-42.3,353.9,169.6,353.9,169.6s76.4,221.8-154.8,353.9
		c-203.5,70-402.2,152.8-589.9,199.1c-187.7,46.2-184.3,199.1-184.3,199.1s5.3,45.9,0,339.2c-5.3,293.3-280.1,293.6-317.1,294.9
		c-37,1.3-1572.3-120.8-1740.2-132.7c-167.8-11.9-196.9,68.3-228.6,110.6c-31.7,42.3-14,40.2-147.5,221.2
		c-133.5,181-324.4,132.7-324.4,132.7L3838.9,3556z"/>
	<g>
		<path class="st3" d="M4792.7,1077.1c10.6-1.9,21.5-2.9,32.3-3.3c10.9-0.4,21.8-0.2,32.7,0.6c2.7,0.2,5.4,0.9,8,1.6l8,1.8
			c5.3,1.2,10.6,2.6,15.9,4.2c10.5,3.1,20.9,6.8,31,11.3c20.2,8.9,39.4,21.1,55.2,37.2c2,2,3.9,4.1,5.8,6.2c1.8,2.2,3.7,4.3,5.4,6.5
			c3.5,4.4,6.7,9.1,9.6,13.9l2.1,3.7c0.7,1.2,1.3,2.5,2,3.7c1.4,2.5,2.5,5.1,3.7,7.6c2.3,5.2,4.4,10.4,6,15.8
			c3.4,10.7,5.7,21.8,6.8,32.8l0.8,8.2l0.4,4.1c0.1,1.4,0.1,2.7,0.2,4.1l0.4,8.2c0.1,1.4,0.1,2.7,0.1,4.1l0,4.1l0,4.1l0,2.1
			l-0.1,2.1l-0.5,8.3l-0.1,2.1l-0.2,2.1l-0.5,4.1c-0.3,2.7-0.6,5.5-1.1,8.2l-1.4,8.2l-1.8,8.1c-0.5,2.7-1.4,5.4-2.2,8.1l-1.2,4
			c-0.4,1.3-0.9,2.6-1.4,4c-3.6,10.6-8.2,20.8-14,30.5l-4.5,7.1l-4.8,6.9l-5.2,6.6c-1.8,2.2-3.4,4.5-5.6,6.3
			c-8.5,7.4-17.7,13.9-27.5,19c-9.8,5.1-20,9.3-30.6,11.4c18.8-10.5,34.3-25.1,46.4-41.3c13.8-14.7,24.2-32.5,30.7-51.7
			c0.4-1.2,0.9-2.4,1.2-3.6l1.1-3.7c0.7-2.5,1.5-4.9,2-7.4l1.7-7.5l1.3-7.6c0.5-2.5,0.7-5.1,1-7.6l0.4-3.8l0.2-1.9l0.1-1.9l0.4-7.7
			l0.1-1.9l0-1.9l0-3.9l0-3.9c0-1.3,0-2.6,0-3.9l-0.4-7.7c-0.1-1.3-0.1-2.6-0.2-3.9l-0.4-3.9l-0.7-7.7c-1.1-10.2-3.1-20.1-6.2-29.7
			c-6-19.2-16.7-36.7-30.8-51c-14.1-14.3-31.6-25.5-50.3-33.8c-9.4-4.2-19.1-7.7-29-10.6c-5-1.5-10-2.8-15-4
			c-1.3-0.3-2.5-0.6-3.8-0.9c-1.3-0.3-2.5-0.6-3.8-0.8c-2.6-0.4-5.1-0.7-7.7-1.5C4834.8,1084.5,4814,1080,4792.7,1077.1z"/>
	</g>
	<g>
		<g>
			<path class="st4" d="M4792.7,1077.1c4-0.8,8-1.3,12-1.8c2-0.2,4-0.5,6.1-0.6c2-0.2,4.1-0.3,6.1-0.5l-0.4,6.8
				c-3.9-0.8-7.9-1.5-11.8-2.2c-2-0.3-4-0.6-6-0.9C4796.7,1077.7,4794.7,1077.3,4792.7,1077.1z"/>
			<path class="st4" d="M4869.3,1076.8c17.2,3.8,34.2,9,50.5,16.1l-6.4,14.6c-15.1-6.6-31.2-11.6-47.5-15.1L4869.3,1076.8z"/>
			<path class="st4" d="M4965.6,1121c6.9,5.8,13.3,12.3,19.1,19.3c5.8,7,10.9,14.6,15.2,22.6l-14.1,7.6
				c-7.7-14.2-18.2-26.8-30.6-37.3L4965.6,1121z"/>
			<path class="st4" d="M5016.6,1214.2c0.6,4.5,1.1,8.8,1.5,13.2c0.4,4.4,0.7,8.8,0.9,13.2c0.4,8.8,0.3,17.7-0.2,26.6l-16-1
				c0.5-8.3,0.6-16.6,0.2-24.9c-0.2-4.2-0.5-8.3-0.8-12.5c-0.4-4.2-0.8-8.3-1.4-12.4L5016.6,1214.2z"/>
			<path class="st4" d="M5008.4,1319.8c-5.9,17-14.6,33.1-25.9,47.3l-12.5-9.9c10.1-12.7,17.9-27.2,23.3-42.6L5008.4,1319.8z"/>
			<path class="st4" d="M4939.6,1399c-1.9,0.8-3.8,1.7-5.7,2.4c-1.9,0.8-3.8,1.5-5.8,2.1c-3.9,1.3-7.8,2.5-11.8,3.2
				c1.8-0.9,3.5-2,5.2-3c1.7-1,3.4-2.1,5-3.3c3.3-2.3,6.5-4.6,9.5-7.1L4939.6,1399z"/>
		</g>
	</g>
	<g>
		<path class="st3" d="M7914.2,1932.1c9.5-3.8,19.5-6.5,29.6-8.4c2.5-0.5,5.1-0.9,7.7-1.3c1.3-0.2,2.6-0.4,3.9-0.6l3.9-0.4
			c2.6-0.3,5.2-0.5,7.8-0.7c2.6-0.3,5.2,0,7.8,0.3c2.6,0.3,5.2,0.6,7.8,0.9c2.6,0.3,5.2,0.7,7.7,1.1c2.6,0.4,5.1,0.9,7.7,1.4
			c1.3,0.3,2.6,0.5,3.8,0.8l3.8,0.9l3.8,0.9c1.3,0.3,2.5,0.7,3.8,1.1l3.8,1.1l1.9,0.5l1.9,0.6c2.5,0.9,5,1.7,7.4,2.6l7.3,2.9
			c9.7,4.1,19,9.1,27.8,14.8c8.7,5.9,17,12.5,24.6,19.7c15.1,14.7,27.4,31.9,37.1,50.3l0.6,1.2l0.2,1.4c2.3,16.6,2.7,33.6,0.6,50.5
			l-0.4,3.2l-0.5,3.1l-1.1,6.3l-1.4,6.2c-0.3,1-0.4,2.1-0.8,3.1l-0.9,3.1l-0.9,3.1c-0.3,1-0.6,2-1,3l-2.1,6c-0.7,2-1.6,4-2.4,5.9
			c-0.4,1-0.8,2-1.3,2.9l-1.4,2.9c-3.7,7.7-8,15.1-13,22c-1.2,1.8-2.6,3.4-3.8,5.1c-1.3,1.7-2.7,3.3-4,5c-2.4,3.6-5.9,6.2-9.3,8.8
			c-3.4,2.6-6.9,5.1-10.4,7.4c-1.8,1.2-3.6,2.2-5.4,3.3c-1.9,1-3.7,2.1-5.5,3c-7.4,3.8-15.2,7.1-23.2,9.1
			c6.8-4.6,12.9-9.9,18.6-15.4c5.7-5.5,10.9-11.5,15.7-17.6c1.2-1.6,2.4-3.1,3.4-4.7c0.6-0.8,1.2-1.5,1.8-2.2c0.7-0.7,1.3-1.4,2-2.1
			c2.6-2.8,4.8-5.9,7.1-9c4.5-6.2,8.3-12.8,11.6-19.7l1.2-2.6c0.4-0.9,0.7-1.8,1.1-2.6c0.7-1.8,1.5-3.5,2.2-5.3l1.9-5.4
			c0.3-0.9,0.6-1.8,0.9-2.7l0.8-2.8l0.8-2.8c0.3-0.9,0.4-1.9,0.7-2.8l1.3-5.6l1-5.7l0.5-2.8l0.3-2.9c1.8-15.3,1.5-30.9-0.6-46.3
			l0.8,2.6c-9-17.1-20.3-32.9-34-46.2c-6.9-6.6-14.4-12.5-22.3-17.9c-8-5.2-16.5-9.7-25.3-13.5l-6.7-2.7c-2.3-0.8-4.5-1.6-6.8-2.3
			l-1.7-0.6l-1.7-0.5l-3.5-1c-1.2-0.3-2.3-0.7-3.5-1l-3.5-0.8l-3.5-0.8c-1.2-0.3-2.4-0.5-3.5-0.7c-2.4-0.5-4.7-1-7.1-1.3
			c-2.4-0.3-4.8-0.8-7.2-1l-3.6-0.4c-0.6-0.1-1.2-0.1-1.8-0.2l-1.8-0.1c-1.2,0-2.4,0-3.6-0.2c-1.2-0.1-2.4-0.3-3.6-0.6
			c-2.4-0.4-4.8-0.9-7.2-1.2c-2.4-0.4-4.9-0.7-7.3-1c-2.4-0.3-4.9-0.6-7.4-0.8c-4.9-0.5-9.9-0.9-14.9-1.1
			C7924.4,1932.1,7919.3,1932,7914.2,1932.1z"/>
	</g>
	<g>
		<g>
			<path class="st4" d="M7914.2,1932.1c3.8-1.6,7.6-2.8,11.6-4.1c3.9-1.2,7.9-2.2,11.9-3.1c4-0.9,8.1-1.7,12.2-2.3
				c2-0.3,4.1-0.6,6.2-0.9c2.1-0.3,4.1-0.4,6.2-0.7l-0.5,14.5c-3.9-0.6-7.7-1.2-11.6-1.7c-2-0.2-3.9-0.4-5.9-0.6
				c-2-0.2-3.9-0.4-5.9-0.5c-4-0.3-7.9-0.5-12-0.7C7922.3,1932,7918.3,1932,7914.2,1932.1z"/>
			<path class="st4" d="M8011.5,1927.6c16.1,4.4,31.7,10.8,46.1,19.5l-8.2,13.7c-13-7.8-27.3-13.8-42-17.8L8011.5,1927.6z"/>
			<path class="st4" d="M8096.3,1979c11.3,12.4,20.7,26.4,28.4,41.1l-14.2,7.4c-7.1-13.6-15.8-26.4-26.1-37.7L8096.3,1979z"/>
			<path class="st4" d="M8126.8,2072.4c-1.9,16.7-6.3,33.2-13.5,48.5l-14.5-6.8c6.4-13.7,10.3-28.5,12.1-43.6L8126.8,2072.4z"/>
			<path class="st4" d="M8084.3,2162.1c-3.3,2.6-6.7,5.2-10.2,7.5c-3.5,2.3-7.1,4.5-10.7,6.5c-3.6,2-7.4,3.8-11.2,5.4
				c-3.8,1.6-7.6,3-11.6,4.2l-0.5-0.9c3.3-2.3,6.4-4.9,9.4-7.5c3-2.6,5.9-5.3,8.7-8.1c2.8-2.8,5.4-5.7,8-8.6c2.5-3,4.9-6,7.2-9
				L8084.3,2162.1z"/>
		</g>
	</g>
	<g>
		<path class="st3" d="M1494.6,1645.9c-28.9,4.4-57.2,11.3-84.4,20.5c-3.4,1.1-6.9,1.9-10.3,2.8c-3.5,0.9-6.9,1.9-10.2,3
			c-6.8,2.2-13.5,4.5-20.1,7.1c-13.2,5.2-26,11.3-38,18.6c-12,7.2-23.2,15.7-33.1,25.5c-9.9,9.7-18.2,20.8-24.7,32.9
			c-3.3,6-5.9,12.4-8.2,18.9c-1.2,3.2-2,6.6-3,9.9l-1.2,5l-0.3,1.3l-0.2,1.3l-0.5,2.5l-0.5,2.5c-0.2,0.8-0.2,1.7-0.4,2.6
			c-0.2,1.7-0.5,3.4-0.7,5.1c-0.3,3.5-0.7,6.9-0.7,10.4l-0.1,2.6l-0.1,1.3l0,1.4l-0.1,5.4c0,3.6-0.1,7.3-0.1,10.9
			c-0.1,14.5,0,28.9,0.6,43.3c0.6,14.4,1.7,28.6,3.9,42.6c2.2,14,5.5,27.6,10.5,40.5c0.6,1.6,1.3,3.2,2,4.8c0.7,1.6,1.4,3.2,2.1,4.7
			l2.4,4.6c0.4,0.8,0.8,1.5,1.2,2.3l1.3,2.2l2.6,4.5c0.9,1.4,1.9,2.9,2.9,4.3c1.8,2.9,4,5.6,6.1,8.4c1,1.4,2.2,2.7,3.3,4
			c1.1,1.3,2.2,2.7,3.4,4l3.6,3.9c1.2,1.3,2.3,2.6,3.6,3.8l3.8,3.7c0.6,0.6,1.2,1.2,1.9,1.8l2,1.8c2.6,2.4,5.2,4.8,7.9,7.1
			c2.7,2.3,5.4,4.6,8.2,6.8c2.8,2.2,5.5,4.5,8.4,6.6l4.3,3.3c1.4,1.1,2.9,2.2,4.3,3.2c1.5,1,3,2,4.4,3.1c1.5,1,2.9,2.2,4.3,3.3
			l8.3,7l8.5,6.9c5.6,4.6,11.4,9.1,17.1,13.7l8.6,6.8l8.6,6.8c5.7,4.6,11.5,9.1,17.2,13.7c-6.6-3.2-13.1-6.6-19.6-9.9
			c-6.5-3.4-13-6.8-19.5-10.2c-12.9-6.9-25.8-14-38.4-21.6c-3.2-1.9-6.1-4.2-9-6.5l-8.8-6.7c-3-2.2-5.8-4.6-8.7-6.9
			c-2.9-2.3-5.7-4.7-8.6-7.2c-2.9-2.4-5.6-4.9-8.4-7.5l-2.1-1.9c-0.7-0.6-1.3-1.3-2-2l-4-4c-1.4-1.3-2.6-2.7-3.9-4.1l-3.9-4.2
			c-1.2-1.4-2.5-2.9-3.7-4.4c-1.2-1.5-2.5-2.9-3.6-4.4c-9.3-12-17.3-25.5-22.8-39.8c-5.6-14.3-9.1-29.1-11.4-43.9
			c-2.3-14.8-3.4-29.6-4-44.4c-0.6-14.8-0.7-29.5-0.6-44.1c0-3.7,0.1-7.3,0.1-11l0.1-5.5l0-1.4l0.1-1.4l0.1-2.9
			c0.1-3.8,0.5-7.6,0.8-11.4c0.2-1.9,0.5-3.8,0.7-5.7c0.1-0.9,0.2-1.9,0.4-2.8l0.5-2.8l0.5-2.8l0.3-1.4l0.3-1.4l1.3-5.6
			c1-3.7,2-7.4,3.3-11c2.5-7.3,5.5-14.4,9.2-21.2c7.3-13.6,16.7-26,27.6-36.7c10.9-10.7,23.1-20,36-27.8
			c12.9-7.8,26.5-14.4,40.4-19.8c7-2.7,14-5.2,21.1-7.5c3.5-1.2,7.1-2.2,10.7-3.3c3.5-1.1,7.1-2.3,10.8-2.9
			c14.7-2.6,29.4-4.2,44.2-5c7.4-0.4,14.7-0.6,22.1-0.6c3.7,0,7.4,0.1,11,0.2C1487.3,1645.3,1491,1645.5,1494.6,1645.9z"/>
	</g>
	<g>
		<g>
			<path class="st4" d="M1494.6,1645.9c-4,0.6-7.9,1.2-11.9,1.9c-3.9,0.7-7.9,1.5-11.8,2.3c-3.9,0.8-7.8,1.6-11.7,2.5
				c-3.9,0.9-7.8,1.8-11.6,2.8l-1.5-9.5c4.1-0.2,8.1-0.5,12.2-0.6c4-0.2,8.1-0.2,12.1-0.3c4,0,8.1,0.1,12.1,0.2
				C1486.6,1645.3,1490.6,1645.5,1494.6,1645.9z"/>
			<path class="st4" d="M1402.2,1668.5c-3.8,0.9-7.6,2-11.3,3.2c-3.7,1.2-7.4,2.4-11.1,3.7c-7.4,2.6-14.6,5.5-21.7,8.6l-6.5-14.6
				c7.5-3.4,15.2-6.4,22.9-9.1c3.9-1.4,7.8-2.7,11.7-3.9c3.9-1.2,7.8-2.4,11.7-3.6L1402.2,1668.5z"/>
			<path class="st4" d="M1317.9,1707c-12.4,9-23.6,19.5-32.7,31.6l-12.7-9.7c10.2-13.5,22.6-25.1,36.1-34.9L1317.9,1707z"/>
			<path class="st4" d="M1264.5,1778.5c-2.2,7.2-3.9,14.6-4.9,22.1c-0.5,3.8-0.9,7.5-1.2,11.3c-0.3,3.8-0.3,7.6-0.4,11.6l-16-0.3
				c0.1-3.9,0.1-8.2,0.4-12.4c0.3-4.2,0.7-8.4,1.3-12.5c1.2-8.3,3-16.6,5.5-24.7L1264.5,1778.5z"/>
			<path class="st4" d="M1258.1,1871.3c0.4,15.8,1.4,31.6,3.5,47l-15.9,2.2c-2.2-16.3-3.2-32.5-3.6-48.7L1258.1,1871.3z"/>
			<path class="st4" d="M1272.5,1963c2.7,7.1,6,13.9,9.9,20.4c3.8,6.5,8.2,12.7,13,18.7l-12.4,10.1c-5.3-6.5-10.2-13.4-14.4-20.7
				c-4.3-7.3-7.9-14.9-11-22.7L1272.5,1963z"/>
			<path class="st4" d="M1328.5,2034.5c3,2.5,6.1,4.9,9.2,7.3c3.1,2.4,6.2,4.8,9.4,7.1c1.6,1.1,3.3,2.2,4.9,3.4
				c1.6,1.1,3.2,2.3,4.7,3.6c3,2.6,6.1,5.1,9.2,7.6l-8,11.5c-3.5-2-7-4.1-10.5-6.2c-1.7-1-3.4-2.2-5-3.4c-1.6-1.2-3.2-2.5-4.8-3.7
				c-3.2-2.4-6.5-4.9-9.7-7.4c-3.2-2.5-6.4-5-9.6-7.6L1328.5,2034.5z"/>
			<path class="st4" d="M1403.4,2093.5c3.6,2.8,7.2,5.7,10.8,8.5c3.6,2.8,7.2,5.7,10.7,8.6c-4.1-2-8.2-4.1-12.3-6.2
				c-4.1-2.1-8.2-4.1-12.2-6.3L1403.4,2093.5z"/>
		</g>
	</g>
	<g>
		<path class="st3" d="M7183.3,3020.4c2.3,6.9,3.7,14.1,4.9,21.3c1.1,7.2,1.8,14.5,2.1,21.9c0,1.8-0.4,3.6-0.7,5.4
			c-0.3,1.8-0.6,3.6-0.9,5.4c-0.6,3.6-1.3,7.2-2,10.8c-1.5,7.1-3.4,14.2-5.6,21.2c-4.5,14-10.5,27.6-18.4,40.2
			c-7.9,12.6-17.5,24.2-28.8,33.9c-11.3,9.7-24.1,17.8-37.7,23.7c-3.4,1.6-6.9,2.8-10.3,4.2c-3.5,1.2-7,2.4-10.5,3.4
			c-7.1,2.1-14.3,3.7-21.5,5c-14.4,2.5-29,3.6-43.5,3.6c-3.6-0.6-7.2-1.3-10.8-2c-3.6-0.8-7.1-1.6-10.6-2.5c-3.5-0.9-7-1.9-10.5-2.9
			c-3.5-1.1-6.9-2.2-10.3-3.4c14.4-1.4,28.5-2.9,42.2-5.2c13.7,0,27.4-1.1,40.7-3.4c6.7-1.2,13.3-2.6,19.7-4.6
			c3.3-0.9,6.4-2,9.6-3.1c3.1-1.2,6.3-2.4,9.3-3.8c12.3-5.3,23.6-12.5,33.7-21.1c10.1-8.7,18.7-19,25.7-30.3
			c7.1-11.3,12.6-23.7,16.7-36.6c4.1-12.9,7-26.3,8.4-39.8C7178,3048.4,7181.1,3034.6,7183.3,3020.4z"/>
	</g>
	<g>
		<g>
			<path class="st5" d="M7183.3,3020.4c1.3,3.9,2.3,7.9,3.2,12c0.9,4,1.6,8.1,2.1,12.2c0.5,4.1,1,8.2,1.3,12.4
				c0.2,2.1,0.3,4.2,0.4,6.3c0.1,2.1-0.4,4.1-0.8,6.2l-15.9-2.2c0.1-1.9,0.2-3.9,0.7-5.8c0.5-1.9,1.1-3.8,1.6-5.7
				c1-3.8,2-7.7,2.9-11.5c0.9-3.9,1.7-7.8,2.5-11.8C7182,3028.4,7182.7,3024.4,7183.3,3020.4z"/>
			<path class="st5" d="M7177.1,3117.6c-6,15.6-14.2,30.5-24.8,43.7l-12.5-10c9.4-11.8,16.9-25.2,22.4-39.5L7177.1,3117.6z"/>
			<path class="st5" d="M7114.4,3194.6c-14.4,8.8-30.3,15-46.5,19.1l-3.9-15.5c14.8-3.7,29.1-9.4,42-17.2L7114.4,3194.6z"/>
			<path class="st5" d="M7018.7,3220.2c-1,0-2.1,0-3.1,0.1c-1,0.1-2.1,0.2-3.1,0.2c-1,0-2.1-0.1-3.1-0.3l-3.1-0.5
				c-4.1-0.7-8.1-1.5-12.2-2.5c-4-0.9-8-2-12-3.1c-4-1.1-7.9-2.4-11.7-3.7l0.1-1.1c4.1-0.4,8.1-0.8,12.1-1.2c4-0.4,8-0.9,12-1.4
				c4-0.5,7.9-1.1,11.8-1.7l2.9-0.5c1-0.2,1.9-0.3,2.9-0.3c1,0,1.9,0.1,2.9,0.1c1,0,1.9,0,2.9,0L7018.7,3220.2z"/>
		</g>
	</g>
	<g>
		<path class="st3" d="M7461.5,2805.2c0-0.1,0-0.3,0-0.4l-0.1-0.4c0-0.2-0.1-0.5-0.2-0.8c-0.1-0.5-0.3-1-0.4-1.5l-0.9-3.1l-1.8-6.1
			c-0.6-2-1.2-4.1-1.7-6.1c-0.6-2-1.1-4-1.7-6.1l-0.8-3c-0.2-1-0.2-2-0.1-3.1c0.1-1,0.1-2,0-3.1l-0.1-3.1l-0.3-12.2l-1.1-49.1l0-1.6
			l0.6-1.5c4.2-10.7,10.9-20.2,18.7-28.2c7.9-8,17-14.5,26.7-19.6c4.9-2.6,9.9-4.8,15-6.7c2.6-0.9,5.2-1.8,7.8-2.6
			c2.6-0.8,5.3-1.4,7.9-2.2c0.7-0.2,1.3-0.5,2-0.6c0.7-0.1,1.4-0.1,2.1-0.1c1.4,0,2.8,0.1,4.2,0.2c1.4,0.1,2.8,0.2,4.1,0.4
			c1.4,0.2,2.7,0.3,4.1,0.5c5.5,0.8,10.8,2.1,15.9,3.9c-5.1,1.7-10.1,3.6-14.8,5.5c-2.4,1-4.7,2-7,3.1c-1.1,0.5-2.3,1.1-3.4,1.6
			c-0.6,0.3-1.1,0.6-1.7,0.7c-0.6,0.2-1.2,0.2-1.8,0.3c-1.2,0.2-2.4,0.5-3.5,0.8c-1.2,0.3-2.3,0.6-3.5,1c-2.3,0.7-4.6,1.5-6.8,2.3
			c-4.5,1.7-8.9,3.6-13.1,5.8c-8.4,4.5-16.2,10-22.8,16.7c-6.6,6.6-11.9,14.4-15.2,22.8l0.6-3.1l1.1,49l0.3,12.3l0.1,3.1
			c0,1,0,2,0.2,3.1c0.1,1,0.2,2,0,3.1l-0.7,3.1c-0.5,2.1-1,4.1-1.5,6.2c-0.5,2.1-1.1,4.1-1.7,6.2c-0.6,2.1-1.3,4.1-2,6.2
			c-0.4,1-0.7,2.1-1.1,3.1C7462.6,2803.3,7462.2,2804.4,7461.5,2805.2z"/>
	</g>
	<g>
		<g>
			<path class="st6" d="M7461.5,2805.2c0-1-0.3-2-0.6-3l-0.8-3l-1.8-6c-0.6-2-1.2-4-1.7-5.9c-0.6-2-1.1-4-1.7-5.9l-0.8-3
				c-0.3-1-0.4-2-0.3-3c0.2-2,0.1-4,0.1-6l-0.2-12l16-0.4l0.3,12c0.1,2,0,4,0.3,6c0.1,1,0.1,2-0.2,3l-0.7,3c-0.5,2-1,4-1.5,6.1
				c-0.5,2-1.1,4-1.7,6.1c-0.6,2-1.2,4-1.9,6c-0.4,1-0.7,2-1.1,3c-0.2,0.5-0.4,1-0.6,1.5C7462.1,2804.3,7461.8,2804.9,7461.5,2805.2
				z"/>
			<path class="st6" d="M7452.6,2709.5l0-2.1l0-1.6l0.6-1.5c3.1-8,7.6-15.3,13-21.8c5.3-6.5,11.5-12.2,18.2-17l9.4,12.9
				c-5.7,4.2-10.9,8.9-15.2,14.3c-4.4,5.3-8,11.2-10.4,17.5l0.6-3.1l0,2.1L7452.6,2709.5z"/>
			<path class="st6" d="M7530.7,2644.6c1.3-0.3,2.6-0.1,4-0.1c1.3,0.1,2.7,0.1,4,0.2c2.6,0.2,5.3,0.5,7.8,1c2.6,0.4,5.1,0.9,7.7,1.6
				c2.5,0.7,5,1.3,7.4,2.2c-2.5,0.8-4.9,1.6-7.2,2.5c-2.4,0.9-4.7,1.8-6.9,2.7c-2.3,0.9-4.5,1.9-6.7,2.9c-1.1,0.5-2.2,1-3.2,1.5
				l-1.6,0.8c-0.5,0.3-1.1,0.5-1.6,0.6L7530.7,2644.6z"/>
		</g>
	</g>
	<g>
		<path class="st3" d="M5423.1,3369.8c-16.1,1.4-32,2.2-48,2.8c-2,0.1-4,0.2-6,0.1c-2-0.1-3.9-0.5-5.9-0.8l-11.8-1.2l-23.6-2.3
			l-94.5-9.3l0.8,0l-1.3,0l-1.4,0.1c-1,0.1-1.9,0.1-2.9,0.2c-2,0.2-3.9,0.4-5.9,0.7c-3.9,0.5-7.8,1.3-11.7,2.2
			c-7.7,1.9-15.1,4.5-21.8,8.1c-3.3,1.8-6.5,3.9-9.4,6.2c-2.9,2.3-5.5,4.9-7.9,7.7c-4.7,5.6-7.9,12.2-9.7,19.3l-0.3,1l-0.4,0.8
			c-4.9,9.1-9.9,18.1-15,27c-5.1,8.9-10.3,17.8-15.6,26.6c-0.7,1.1-1.3,2.2-1.9,3.3c-0.6,1.1-1.2,2.3-1.9,3.3
			c-0.7,1.1-1.6,2.1-2.4,3.1l-2.5,3l-5,6l-5,5.9c-6.7,7.9-13.6,15.6-20.8,23.1c4.1-9.5,8.2-19,12.3-28.4l6.2-14.1l1.5-3.5
			c0.5-1.2,1-2.4,1.6-3.5c0.6-1.1,1.3-2.2,2.1-3.2c0.7-1,1.4-2.1,2-3.2c5.2-8.7,10.4-17.5,15.4-26.3c5.1-8.8,9.9-17.7,14.8-26.6
			l-0.7,1.8l1-3.5l0.5-1.7l0.6-1.7c0.4-1.1,0.8-2.3,1.3-3.4l1.6-3.3c2.2-4.3,4.8-8.5,7.9-12.1c3.1-3.7,6.5-7.1,10.3-10
			c3.7-2.9,7.7-5.5,11.8-7.7c8.2-4.4,16.9-7.4,25.6-9.6c4.4-1.1,8.8-1.9,13.3-2.5c2.2-0.3,4.5-0.6,6.7-0.8c1.1-0.1,2.3-0.2,3.4-0.2
			l1.7-0.1c0.6,0,1.1,0,1.9,0l0.4,0l0.4,0l94.5,9.3l23.6,2.3l11.8,1.1c2,0.2,4,0.1,5.9,0.4c2,0.3,3.9,0.8,5.8,1.3
			C5392.1,3361.4,5407.6,3365.3,5423.1,3369.8z"/>
	</g>
	<g>
		<g>
			<path class="st5" d="M5423.1,3369.8c-4.1,0.4-8.1,0.7-12.2,1c-4,0.3-8.1,0.6-12.1,0.8c-4,0.2-8.1,0.4-12.1,0.6
				c-4,0.2-8.1,0.3-12.1,0.5l1.5-15.1c3.9,0.9,7.9,1.8,11.8,2.8c3.9,1,7.8,1.9,11.8,3c3.9,1,7.8,2,11.8,3.1
				C5415.3,3367.6,5419.2,3368.6,5423.1,3369.8z"/>
			
				<rect x="5295.6" y="3334.1" transform="matrix(9.785458e-02 -0.9952 0.9952 9.785458e-02 1442.7208 8307.6514)" class="st5" width="16" height="48"/>
			<path class="st5" d="M5232.3,3359.3c-3.6,0.2-7.4,0.6-11.1,1.1c-3.7,0.5-7.4,1.3-11,2.2c-3.6,0.9-7.2,2-10.6,3.2
				c-3.4,1.3-6.8,2.7-10,4.4l-7.4-14.2c3.9-2,7.9-3.8,11.9-5.3c4.1-1.5,8.2-2.7,12.3-3.7c4.1-1,8.3-1.8,12.5-2.5
				c4.2-0.6,8.4-1.1,12.8-1.2L5232.3,3359.3z"/>
			<path class="st5" d="M5162.7,3400.6l-0.8,2.9l-0.3,1.1l-0.4,0.8c-7.1,13.2-14.4,26.2-22,39l-13.8-8.1
				c7.5-12.7,14.7-25.5,21.7-38.5l-0.7,1.8l1.1-3.8L5162.7,3400.6z"/>
			<path class="st5" d="M5111.6,3484l-5.1,5.7l-5.1,5.7c-1.7,1.9-3.4,3.8-5.1,5.6c-1.7,1.9-3.4,3.7-5.2,5.6c1-2.4,2-4.7,3-7.1
				c1-2.3,2-4.7,3-7l3.1-6.9l3.1-6.9L5111.6,3484z"/>
		</g>
	</g>
	<g>
		<path class="st3" d="M4453.3,3518.3c11.5,0.2,23,0.7,34.5,1.3c5.7,0.3,11.4,0.6,17.2,1l4.3,0.3c1.4,0.1,2.9,0.2,4.3,0.3
			c2.8,0.3,5.6,1.2,8.4,1.7l67.1,12.5l0.3,0.1l0.4,0.1c0.5,0.1,1.4,0.4,2.1,0.5l2.4,0.5c1.6,0.3,3.2,0.6,4.8,0.9
			c3.2,0.5,6.5,1,9.8,1.2c6.6,0.6,13.2,0.9,19.8,0.7c6.6-0.2,13.2-0.7,19.8-1.6c6.5-1,13-2.3,19.4-4l4.7-1.4l2.4-0.7l2.3-0.8
			c1.5-0.6,3.1-1.1,4.7-1.7l4.6-1.9l2.3-0.9l2.2-1.1l4.5-2.1l4.3-2.3c1.4-0.8,2.9-1.5,4.3-2.4c11.3-6.7,21.8-14.9,31.1-24.3
			c4.7-4.7,9.1-9.7,13.2-14.9l1.6-1.9c0.5-0.7,1-1.4,1.5-2.1l3-4.1c1.9-2.8,4.2-5.5,6.3-8.2l25.8-32.7l6.5-8.2l3.2-4.1
			c1.1-1.4,2-2.8,3.1-4.2c1-1.4,2.3-2.6,3.5-3.9l3.7-3.7l7.5-7.4c5-4.9,10-9.8,15.1-14.6c2.5-2.4,5.1-4.9,7.6-7.3
			c2.6-2.4,5.1-4.8,7.7-7.2c-1.7,3.1-3.4,6.1-5.2,9.2c-1.7,3.1-3.5,6.1-5.3,9.1c-3.5,6-7.1,12.1-10.7,18l-5.4,8.9l-2.7,4.5
			c-0.9,1.5-1.8,3-2.9,4.3c-1.1,1.3-2.3,2.6-3.4,4l-3.2,4.1l-6.4,8.2l-25.7,32.6c-2.1,2.7-4.3,5.4-6.4,8.3l-3.1,4.3
			c-0.5,0.7-1,1.4-1.6,2.1l-1.7,2.1c-4.5,5.7-9.3,11.1-14.4,16.2c-10.2,10.3-21.8,19.3-34.3,26.8c-1.5,1-3.2,1.8-4.8,2.7l-4.8,2.6
			l-4.9,2.3l-2.5,1.2c-0.8,0.4-1.7,0.7-2.5,1l-5.1,2.1c-1.7,0.6-3.4,1.2-5.1,1.8l-2.6,0.9l-2.6,0.8l-5.2,1.6
			c-7,1.9-14.2,3.4-21.3,4.4c-7.2,1-14.4,1.6-21.7,1.8c-7.2,0.2-14.5-0.1-21.7-0.8c-3.6-0.3-7.2-0.8-10.8-1.4
			c-1.8-0.3-3.6-0.6-5.4-1l-2.7-0.6c-1-0.2-1.8-0.4-2.9-0.7l0.7,0.2l-67.1-12.5c-2.8-0.5-5.7-0.7-8.4-1.4c-1.4-0.3-2.7-0.8-4.1-1.2
			l-4.1-1.3c-5.5-1.7-10.9-3.5-16.4-5.2C4475,3526,4464.1,3522.2,4453.3,3518.3z"/>
	</g>
	<g>
		<g>
			<path class="st5" d="M4453.3,3518.3c4.1,0,8.1,0.2,12.1,0.3c4,0.1,8.1,0.3,12.1,0.5c4,0.2,8.1,0.4,12.1,0.6
				c4,0.2,8.1,0.4,12.1,0.7l-2.5,13.4c-3.8-1.2-7.7-2.5-11.5-3.7c-3.8-1.2-7.7-2.5-11.5-3.8c-3.8-1.3-7.7-2.6-11.5-3.9
				C4460.9,3521,4457.1,3519.7,4453.3,3518.3z"/>
			<path class="st5" d="M4549.2,3528.1l39.8,7.4l0.2,0l0.5,0.1l1.5,0.4l1.7,0.4c1.1,0.2,2.3,0.5,3.5,0.7l-2.9,15.7
				c-1.3-0.2-2.6-0.5-3.9-0.8l-2-0.5l-1-0.2l-1.1-0.3l0.7,0.2l-39.8-7.4L4549.2,3528.1z"/>
			<path class="st5" d="M4641.8,3538.7c15.2-1.6,30.1-5.2,44.1-11.1l6.2,14.8c-15.5,6.5-32,10.5-48.7,12.2L4641.8,3538.7z"/>
			<path class="st5" d="M4724.7,3504c11.7-9.8,21.9-21.3,30.7-33.9l13.1,9.2c-9.5,13.6-20.7,26.2-33.5,37L4724.7,3504z"/>
			<path class="st5" d="M4785.3,3431.9l7.4-9.4l3.7-4.7c1.2-1.6,2.3-3.3,3.6-4.8c1.3-1.6,2.8-2.9,4.2-4.3l4.3-4.3l8.6-8.5l8.4,6.6
				l-6.2,10.4l-3.1,5.2c-1.1,1.7-2,3.5-3.3,5.1c-1.2,1.6-2.6,3-3.9,4.6l-3.7,4.7l-7.4,9.4L4785.3,3431.9z"/>
		</g>
	</g>
	<g>
		<path class="st3" d="M2978,3082.9c5.3,6.7,10.5,13.4,15.5,20.3c5,6.8,10,13.7,14.8,20.6c1.1,1.8,1.8,3.8,2.7,5.7
			c0.9,1.9,1.9,3.7,2.9,5.6l5.7,11.2l11.5,22.3l45.9,89.3l-5.2-4.1l93.1,23l23.3,5.7l11.6,2.9c1.9,0.5,3.9,1,5.8,1.3
			c1,0.2,2,0.4,2.9,0.7c1,0.3,1.9,0.7,2.8,1c15,6.1,29.9,12.3,44.7,19.1c-16.3-0.8-32.4-2.3-48.4-3.9c-1-0.1-2-0.2-3-0.4
			c-1-0.2-1.9-0.5-2.9-0.8c-1.9-0.6-3.9-1.1-5.8-1.5l-11.6-2.9l-23.3-5.7l-93.1-23l-3.5-0.9l-1.7-3.2l-45.9-89.3l-11.5-22.3
			l-5.7-11.2c-1-1.9-1.9-3.7-2.9-5.6c-1-1.8-2.2-3.6-3-5.5c-2.9-7.9-5.6-16-8.2-24C2982.9,3099.2,2980.4,3091.1,2978,3082.9z"/>
	</g>
	<g>
		<g>
			<path class="st7" d="M2978,3082.9c2.6,3.2,5,6.4,7.5,9.6c2.5,3.2,4.9,6.5,7.3,9.7c4.8,6.5,9.5,13.1,14.2,19.7l-14.1,7.3
				c-2.6-7.6-5.3-15.3-7.8-23c-1.3-3.9-2.5-7.7-3.7-11.6C2980.3,3090.7,2979.1,3086.8,2978,3082.9z"/>
			
				<rect x="3024.9" y="3165.6" transform="matrix(0.8893 -0.4573 0.4573 0.8893 -1122.9675 1740.2219)" class="st7" width="16" height="48"/>
			<polygon class="st7" points="3073,3249.9 3077,3257.8 3071.8,3253.7 3109.8,3263.1 3106,3278.6 3068,3269.2 3064.4,3268.3 
				3062.8,3265.1 3058.7,3257.3 			"/>
			
				<rect x="3169.8" y="3264.1" transform="matrix(0.2393 -0.9709 0.9709 0.2393 -775.2164 5586.6187)" class="st7" width="16" height="48"/>
			<path class="st7" d="M3248.1,3303.7l4,1.8c1.3,0.6,2.7,1.2,4,1.8c-1.5-0.1-2.9-0.1-4.4-0.2l-4.4-0.3L3248.1,3303.7z"/>
		</g>
	</g>
	<g>
		<path class="st3" d="M2572.4,2940c-13.6-15.9-29-29.6-45.2-41.8c-2-1.5-3.7-3.4-5.6-5.1c-1.8-1.7-3.7-3.4-5.7-5
			c-3.9-3.2-7.8-6.4-11.9-9.4l-3-2.3l-1.5-1.1l-1.6-1.1l-6.2-4.3c-2-1.5-4.2-2.8-6.3-4.1c-2.1-1.3-4.3-2.7-6.4-4
			c-17.4-10.3-35.8-18.8-54.9-25.3c-19.1-6.5-38.9-11.1-59-13.8l-7.5-1l-3.8-0.5c-1.3-0.2-2.5-0.2-3.8-0.3l-15.2-1.1l-15.2-0.4
			c-1.3,0-2.5-0.1-3.8-0.1l-3.8,0.1l-7.6,0.2l-7.6,0.2l-7.6,0.6l-7.6,0.6l-3.8,0.3c-0.6,0.1-1.3,0.1-1.9,0.2l-1.9,0.2l-15.2,1.9
			l-3.8,0.5c-1.3,0.2-2.5,0.4-3.8,0.6l-7.5,1.3l-7.5,1.3l-3.8,0.6l-3.8,0.9l-15.1,3.5l-15.1,3.5c-2.5,0.6-5.1,1.1-7.6,1.8
			c-1.3,0.3-2.5,0.7-3.8,1c-1.3,0.3-2.5,0.5-3.8,0.7c-10.3,1.2-20.7,2.4-31.1,3.4l-15.6,1.5c-5.2,0.4-10.4,0.9-15.7,1.3
			c4.9-2,9.8-3.8,14.6-5.7l14.7-5.5c9.8-3.7,19.7-7.2,29.5-10.7c1.2-0.4,2.5-0.8,3.8-1.1s2.6-0.5,3.8-0.7c2.5-0.5,5.1-1.2,7.6-1.7
			l15.2-3.5l15.2-3.5l3.8-0.9l3.9-0.7l7.8-1.4l7.8-1.4c1.3-0.2,2.6-0.5,3.9-0.7l3.9-0.5l15.7-2l2-0.2c0.7-0.1,1.3-0.1,2-0.2l4-0.3
			l7.9-0.6l7.9-0.6l7.9-0.2l7.9-0.2l4-0.1c1.3,0,2.6,0,4,0.1l15.9,0.4l15.9,1.2c1.3,0.1,2.6,0.2,4,0.3l3.9,0.5l7.9,1
			c21,2.9,41.8,7.7,62,14.5c20.2,6.9,39.6,15.8,57.9,26.7c2.3,1.4,4.5,2.8,6.8,4.2c2.2,1.4,4.5,2.8,6.7,4.4l6.6,4.5l1.6,1.1l1.6,1.2
			l3.2,2.4c8.5,6.4,16.7,13.2,24.5,20.5c7,8.1,13.5,16.7,19.3,25.6C2563.3,2921,2568.5,2930.2,2572.4,2940z"/>
	</g>
	<g>
		<g>
			<path class="st7" d="M2572.4,2940c-2.6-3.1-5.3-6.1-8-9c-2.8-2.9-5.6-5.7-8.5-8.5c-2.9-2.8-5.8-5.4-8.8-8.1c-2.9-2.6-6-5.2-9-7.7
				l9.4-9c2.5,3.3,4.9,6.6,7.2,10c2.3,3.4,4.5,6.9,6.6,10.4c2.1,3.5,4.1,7.1,6,10.7C2569.2,2932.6,2571,2936.2,2572.4,2940z"/>
			<path class="st7" d="M2502.1,2877.1c-12.5-9.2-25.8-17.5-39.6-24.5l7.3-14.3c14.6,7.5,28.7,16.1,41.9,25.9L2502.1,2877.1z"/>
			<path class="st7" d="M2419.3,2834.8c-14.8-4.8-30.1-8.4-45.5-10.9l2.6-15.8c16.2,2.6,32.2,6.4,47.8,11.5L2419.3,2834.8z"/>
			<path class="st7" d="M2327.1,2819.5c-15.7-0.4-31.4,0.1-47,1.5l-1.4-15.9c16.2-1.5,32.6-2.1,48.9-1.6L2327.1,2819.5z"/>
			<path class="st7" d="M2233.4,2827.7l-1.3,0.3l-1.5,0.3l-2.9,0.7l-5.8,1.4l-11.7,2.7l-11.7,2.7l-5.8,1.4c-1.9,0.4-3.8,1.1-5.8,1.5
				l-3.7-16c2-0.4,4-0.7,5.9-1.2l5.9-1.4l11.7-2.7l11.7-2.7l5.9-1.4l2.9-0.7l1.5-0.3l1.6-0.3L2233.4,2827.7z"/>
			<path class="st7" d="M2139,2844.1c-3,0.3-6,0.5-9,0.8c-3,0.3-6,0.5-9.1,0.7c2.8-1.1,5.6-2.2,8.5-3.3c2.8-1.1,5.6-2.2,8.5-3.3
				L2139,2844.1z"/>
		</g>
	</g>
	<g>
		<path class="st3" d="M2276.5,993.5c9.7-5.5,19.6-10.7,29.5-15.6l7.5-3.7l3.7-1.8c1.3-0.6,2.6-1,3.9-1.3c2.7-0.6,5.3-1.5,7.9-2.3
			l7.8-2.4l31.4-9.8l15.7-4.9l3.9-1.2l1-0.3l0.2-0.1l0.1,0l0.4-0.1l0.6-0.1l2.1-0.5c2.8-0.6,5.6-1.1,8.4-1.6
			c11.1-1.9,22.4-3,33.8-3.2c11.4-0.2,22.9,0.4,34.4,2.8c5.7,1.2,11.5,2.8,17.1,5c2.8,1.1,5.6,2.4,8.3,3.8c2.7,1.5,5.3,3.1,7.9,4.9
			c2.5,1.8,4.9,3.9,7.2,6.1c2.3,2.2,4.3,4.6,6.2,7.2c3.8,5.1,6.6,10.8,8.6,16.7l-1-2l14,20.4l7,10.2l3.5,5.1c1.2,1.7,2.3,3.4,3.6,5
			c0.6,0.8,1.3,1.6,1.8,2.5c0.5,0.9,0.9,1.9,1.4,2.8l2.7,5.7c1.8,3.8,3.6,7.6,5.3,11.4c3.5,7.6,6.9,15.3,10.2,23.1
			c-6.1-5.8-12.1-11.7-17.9-17.8c-2.9-3-5.8-6-8.7-9l-4.3-4.5c-0.7-0.8-1.5-1.5-2.1-2.3c-0.7-0.8-1.2-1.7-1.7-2.6
			c-1-1.8-2.3-3.5-3.4-5.2l-3.5-5.1l-7-10.2l-14-20.4l-0.6-0.9l-0.4-1.1c-1.5-4.5-3.6-8.6-6.3-12.3c-2.7-3.7-6-6.9-9.8-9.7
			c-7.6-5.5-17.1-9-27-11c-9.9-2-20.4-2.7-30.8-2.5c-10.5,0.2-21,1.3-31.4,3c-2.6,0.4-5.2,0.9-7.7,1.5l-1.9,0.4l-0.4,0.1
			c-0.1,0,0.2-0.1,0.2,0l-0.1,0l-0.2,0.1l-1,0.3l-3.9,1.2l-15.6,4.9l-31.2,9.7l-7.8,2.4c-2.6,0.8-5.2,1.6-7.8,2.6
			c-1.3,0.5-2.6,0.9-3.9,1.1l-4.1,0.6l-8.2,1.2C2298.6,991.2,2287.6,992.5,2276.5,993.5z"/>
	</g>
	<g>
		<g>
			<path class="st8" d="M2276.5,993.5c3.6-2.1,7.1-4,10.7-5.9c3.6-1.9,7.2-3.8,10.8-5.7c3.6-1.8,7.2-3.7,10.9-5.5l5.4-2.7
				c1.8-0.9,3.6-1.9,5.5-2.4l4.9,15.7c-1.9,0.7-3.9,0.9-5.9,1.2l-6,0.9c-4,0.6-8,1.1-12.1,1.7c-4,0.5-8.1,1-12.1,1.5
				C2284.6,992.7,2280.6,993.2,2276.5,993.5z"/>
			<path class="st8" d="M2365.8,957.4l23.2-7.2l0.2-0.1l0.5-0.1l0.4-0.1l0.8-0.2l1.6-0.3l3.1-0.6c2-0.4,4.1-0.8,6.1-1.1
				c4.1-0.7,8.2-1.2,12.3-1.7l1.8,15.9c-3.8,0.4-7.7,1-11.5,1.6c-1.9,0.3-3.8,0.7-5.7,1l-2.8,0.6l-1.4,0.3l-0.7,0.2l-0.3,0.1
				c-0.1,0,0.2-0.1,0.1,0l-0.2,0.1l-22.7,7.1L2365.8,957.4z"/>
			<path class="st8" d="M2463.9,946.5c8.4,1.4,16.8,3.6,25,7.2c4.1,1.8,8,3.9,11.8,6.5c3.8,2.6,7.3,5.6,10.4,9l-11.7,10.9
				c-4.6-5-10.4-8.8-16.9-11.7c-6.5-2.9-13.7-4.8-21.1-6L2463.9,946.5z"/>
			<path class="st8" d="M2537.5,1010.3l6.8,9.9l3.4,4.9c1.1,1.6,2.2,3.3,3.5,4.9c0.6,0.8,1.2,1.6,1.7,2.5c0.5,0.9,0.9,1.8,1.3,2.7
				l2.6,5.5c1.8,3.6,3.4,7.3,5.2,11l-7.9,5.4c-2.8-2.9-5.7-5.8-8.4-8.8l-4.2-4.4c-0.7-0.7-1.4-1.5-2.1-2.2c-0.6-0.8-1.2-1.6-1.7-2.5
				c-1-1.7-2.2-3.4-3.3-5l-3.4-4.9l-6.8-9.9L2537.5,1010.3z"/>
		</g>
	</g>
	<g>
		<path class="st3" d="M911.7,2223.2c7.7,37.5,18.6,74,31.4,109.5c10.6,36.2,24.2,71.5,40.8,105.3c16.6,33.8,36.3,66,59.5,95.5
			c23.1,29.5,50,56.1,80,78.4c29.9,22.3,63.5,39.3,99.1,50.7c35.6,11.4,72.8,17.8,110.3,20.3c18.8,1.3,37.6,1.6,56.5,1.2l14.1-0.4
			c4.7-0.2,9.4-0.5,14.1-0.7c2.4-0.1,4.7-0.3,7.1-0.4c2.4-0.2,4.7-0.3,7.1-0.6c2.4-0.2,4.7-0.4,7.1-0.7c2.4-0.2,4.7-0.4,7.1-0.4
			c18.9-0.5,37.9-1.6,56.9-3.1c9.5-0.8,19-1.6,28.5-2.6c9.5-0.8,19-2,28.5-3c-9.2,2.6-18.4,5.1-27.7,7.4c-4.6,1.2-9.3,2.3-14,3.4
			c-4.7,1.1-9.3,2.2-14,3.2c-4.7,1-9.4,2-14.1,3c-4.7,1-9.4,1.8-14.2,2.7c-4.7,0.9-9.5,1.7-14.2,2.5l-7.1,1.2l-7.1,1.1
			c-38.3,3.5-77,4.7-115.6,2.1c-38.6-2.6-77.1-9.1-114.2-21c-18.5-5.9-36.6-13.4-54-22.2c-17.4-8.8-34-19.3-49.7-30.9
			c-31.2-23.2-59.1-50.8-83-81.3c-24-30.5-44.3-63.7-61.3-98.4c-8.5-17.3-16.2-35.1-23.2-53.1c-3.5-9-6.8-18.1-9.9-27.2
			c-1.6-4.6-3-9.2-4.6-13.7c-0.8-2.3-1.6-4.6-2.3-6.9c-0.7-2.3-1.4-4.6-2-7c-4.4-18.8-8-37.7-10.7-56.8c-1.4-9.5-2.5-19.1-3.4-28.6
			c-0.4-4.8-0.8-9.6-1.1-14.3C912,2232.7,911.7,2227.9,911.7,2223.2z"/>
	</g>
	<g>
		<g>
			<path class="st8" d="M911.7,2223.2c0.8,3.9,1.6,7.9,2.5,11.8c0.9,3.9,1.8,7.8,2.8,11.7l2.9,11.6c1,3.9,2,7.7,3.1,11.6l-7.3,1.5
				c-1-8-1.9-16-2.6-24C912.4,2239.2,911.8,2231.2,911.7,2223.2z"/>
			<path class="st8" d="M937,2315.4c1.3,3.8,2.6,7.5,3.9,11.2c1.3,3.7,2.7,7.4,3.9,11.2c1.2,3.8,2.2,7.6,3.4,11.4
				c1.2,3.8,2.5,7.5,3.7,11.3l-15.1,5.2c-1.3-3.8-2.6-7.7-3.8-11.5c-1.3-3.8-2.7-7.6-3.8-11.5c-1.2-3.9-2.1-7.8-3-11.8
				c-0.9-4-1.7-7.9-2.5-11.9L937,2315.4z"/>
			<path class="st8" d="M968.8,2404.9c6.1,14.6,12.8,28.9,20,43l-14.2,7.3c-7.4-14.4-14.2-29.1-20.5-44.1L968.8,2404.9z"/>
			<path class="st8" d="M1012.1,2489c8.4,13.4,17.3,26.4,26.8,38.9l-12.7,9.7c-9.9-12.9-19.1-26.3-27.7-40.1L1012.1,2489z"/>
			<path class="st8" d="M1069.4,2563.8c10.8,11.4,22.2,22.3,34.1,32.4l-10.3,12.2c-12.5-10.5-24.3-21.8-35.5-33.7L1069.4,2563.8z"/>
			<path class="st8" d="M1141.2,2624.3c13.1,8.5,26.8,16,41,22.6l-6.7,14.5c-14.9-6.9-29.2-14.8-43-23.7L1141.2,2624.3z"/>
			<path class="st8" d="M1226,2663.8c15,4.7,30.2,8.4,45.7,11.4l-3,15.7c-16-3.1-31.8-7-47.4-11.8L1226,2663.8z"/>
			<path class="st8" d="M1318.4,2681.7c15.7,1.5,31.5,2.3,47.3,2.5l-0.2,16c-16.2-0.2-32.4-1-48.6-2.5L1318.4,2681.7z"/>
			<path class="st8" d="M1413.2,2683.2c4-0.2,7.9-0.4,11.9-0.7c4-0.2,7.9-0.6,11.8-1c3.9-0.4,7.9-0.6,11.9-0.7
				c4-0.1,7.9-0.3,11.9-0.4l1.5,14c-4,0.7-8,1.3-12,2c-4,0.7-8,1.2-12,1.4c-4,0.2-8.1,0.4-12.1,0.7c-4,0.3-8.1,0.5-12.1,0.7
				L1413.2,2683.2z"/>
			<path class="st8" d="M1508.4,2677.2l11.9-1.1l11.9-1.2c8-0.8,15.9-1.6,23.9-2.5l0.1,0.6c-7.7,2.2-15.5,4.2-23.3,6.2
				c-3.9,1-7.8,1.9-11.7,2.9l-11.8,2.7L1508.4,2677.2z"/>
		</g>
	</g>
	<g>
		<path class="st3" d="M878.8,1691.3c-1.2-6.6-1.6-13.4-1.6-20.1c0-6.8,0.4-13.5,1.1-20.3c0.2-1.7,0.9-3.2,1.4-4.8
			c0.6-1.6,1.1-3.2,1.6-4.8c1-3.2,2.1-6.3,3.3-9.5c1.1-3.1,2.4-6.2,3.6-9.3c1.3-3.1,2.6-6.1,3.9-9.2c10.8-24.4,24.8-47.2,41.1-68.1
			c2.1-2.6,4.2-5.1,6.3-7.7c1.1-1.3,2.1-2.6,3.2-3.8l3.3-3.7l3.3-3.7c1.1-1.2,2.2-2.5,3.4-3.7l6.9-7.2l1.7-1.8l1.8-1.7l3.6-3.5
			l3.6-3.5l1.8-1.7l1.9-1.7c5-4.4,9.8-8.9,15-13c2.6-2.1,5.1-4.2,7.7-6.3l7.9-6l4-3c1.3-1,2.7-1.9,4-2.9c1.3-1,2.7-1.9,4-2.9
			c0.7-0.5,1.3-1.1,1.9-1.5c0.7-0.5,1.4-0.9,2.1-1.3c3-1.4,6.2-2.7,9.2-3.9c3.1-1.2,6.2-2.5,9.3-3.7c6.3-2.3,12.7-4.3,19-6.2
			c-2.4,2.4-4.8,4.6-7.2,6.9l-3.6,3.3c-1.2,1.1-2.5,2.2-3.6,3.3c-2.3,2.3-4.7,4.5-7.1,6.8c-2.4,2.2-4.8,4.4-7,6.7
			c-0.6,0.6-1.2,1.1-1.8,1.5c-0.7,0.4-1.4,0.8-2,1.2c-1.4,0.8-2.6,1.8-3.9,2.7c-1.3,0.9-2.6,1.8-3.9,2.8l-3.8,2.9l-7.6,5.8
			c-2.5,2-4.9,4-7.4,6c-5,4-9.6,8.3-14.4,12.5l-1.8,1.6l-1.7,1.7l-3.4,3.3l-3.4,3.3l-1.7,1.7l-1.6,1.7l-6.6,6.9
			c-1.1,1.1-2.2,2.3-3.2,3.5l-3.1,3.6l-3.1,3.6c-1.1,1.2-2,2.4-3,3.7c-2,2.5-4,4.9-6,7.4c-15.5,20-28.9,41.7-39.1,64.7
			c-1.2,2.9-2.5,5.8-3.7,8.7c-1.1,2.9-2.3,5.9-3.4,8.8c-2.2,5.9-4.1,11.9-5.7,18C888.3,1666.9,883.1,1678.7,878.8,1691.3z"/>
	</g>
	<g>
		<g>
			<path class="st9" d="M878.8,1691.3c-0.8-4.1-1.2-8.2-1.4-12.4c-0.2-4.2-0.3-8.3-0.2-12.5c0.1-4.2,0.4-8.3,0.8-12.5
				c0.1-1,0.2-2.1,0.3-3.1c0.2-1,0.4-2,0.8-3c0.3-1,0.8-1.9,1.1-2.9l0.9-2.9l15.2,4.9c-0.6,1.8-1.2,3.7-1.5,5.6
				c-0.2,0.9-0.5,1.9-0.9,2.8c-0.4,0.9-0.9,1.8-1.3,2.7c-0.9,1.8-1.7,3.6-2.5,5.4c-0.9,1.8-1.6,3.6-2.5,5.4
				c-1.6,3.6-3.1,7.3-4.6,11.1C881.6,1683.6,880.1,1687.4,878.8,1691.3z"/>
			<path class="st9" d="M900.1,1596.6c7.5-14.6,16.2-28.6,25.9-41.8l12.9,9.4c-9.2,12.6-17.4,25.9-24.6,39.7L900.1,1596.6z"/>
			<path class="st9" d="M957.6,1517.2c11.4-11.7,23.5-22.7,36.3-32.9l10,12.5c-12.2,9.8-23.9,20.3-34.8,31.5L957.6,1517.2z"/>
			<path class="st9" d="M1035.4,1458.6c3.8-1.3,7.5-2.7,11.3-3.9c1.9-0.6,3.8-1.2,5.7-1.9c1.9-0.6,3.8-1.2,5.7-1.8
				c-1.4,1.4-2.9,2.8-4.3,4.1c-1.4,1.4-2.9,2.7-4.3,4.1c-2.9,2.7-5.8,5.3-8.7,7.9L1035.4,1458.6z"/>
		</g>
	</g>
	<g>
		<path class="st3" d="M4252.2,1666c-8.7,0.5-17.2,0.6-25.8,0.6c-4.3,0-8.6,0-12.8-0.1c-1.1,0-2.1,0-3.2-0.2c-1-0.2-2.1-0.5-3.1-0.7
			c-2-0.5-4.1-0.8-6.2-1.3l-49.5-9.5l0.9,0.1c-2-0.1-4.3-0.3-6.4-0.4c-2.2-0.1-4.4-0.2-6.6-0.2c-4.4-0.1-8.8-0.1-13.1-0.1
			c-8.8,0.1-17.5,0.5-26.2,1.3c-8.7,0.8-17.2,2-25.6,3.8c-4.2,0.9-8.3,2-12.3,3.2c-4,1.3-7.8,2.8-11.5,4.5l-2.7,1.4
			c-0.9,0.5-1.7,1-2.5,1.5c-0.9,0.5-1.6,1-2.4,1.6l-1.2,0.8c-0.4,0.3-0.9,0.7-1.3,1c-3.6,2.7-7.2,5.4-10.9,8
			c-7.3,5.3-14.6,10.5-21.9,15.7l-5.5,3.9c-0.9,0.6-1.8,1.3-2.7,2c-0.9,0.7-1.7,1.4-2.7,1.9c-4.1,1.9-8.3,3.8-12.5,5.7
			c-8.3,3.7-16.8,7.2-25.4,10.4c6.2-6.8,12.6-13.3,19-19.8c3.2-3.2,6.4-6.4,9.6-9.6c0.8-0.8,1.8-1.3,2.8-1.9c1-0.6,1.9-1.2,2.8-1.8
			l5.5-3.8c7.3-5.1,14.5-10.3,21.7-15.5c3.6-2.6,7.2-5.3,10.7-7.9c0.5-0.3,0.8-0.6,1.4-1l1.6-1.1c1.1-0.7,2.1-1.5,3.2-2.1
			c1.1-0.6,2.2-1.3,3.3-1.9l3.3-1.7c4.5-2.1,9-3.8,13.5-5.3c4.6-1.4,9.1-2.6,13.7-3.6c4.6-1,9.2-1.8,13.7-2.5
			c4.6-0.7,9.2-1.2,13.7-1.6c9.2-0.8,18.3-1.3,27.4-1.4c4.6-0.1,9.1,0,13.7,0.1c2.3,0.1,4.6,0.1,6.9,0.2c2.3,0.1,4.5,0.2,7,0.4
			l0.4,0l0.5,0.1l49.5,9.5c2.1,0.4,4.1,0.8,6.2,1.1c1,0.1,2.1,0.2,3.1,0.5c1,0.2,2,0.6,3,1c4,1.5,8,3,12,4.7
			C4236.4,1659.1,4244.3,1662.4,4252.2,1666z"/>
	</g>
	<g>
		<g>
			<path class="st9" d="M4252.2,1666c-4.1,0.3-8.2,0.4-12.3,0.5c-4.1,0.1-8.2,0.1-12.2,0.2l-6.1,0l-6.1-0.1c-2-0.1-4.1,0.1-6-0.4
				c-1-0.2-1.9-0.5-2.9-0.7c-1-0.2-2-0.4-2.9-0.6l3-15.7c1,0.2,2,0.4,3,0.5c1,0.1,2,0.2,3,0.4c2,0.3,3.9,1.1,5.8,1.8l5.7,2.2
				l5.7,2.3c3.8,1.5,7.6,3.1,11.3,4.7C4244.7,1662.6,4248.4,1664.3,4252.2,1666z"/>
			<path class="st9" d="M4156.4,1655.9l-4.8-0.9l0.9,0.1c-3.3-0.2-6.9-0.4-10.4-0.5c-3.5-0.1-7-0.2-10.5-0.2c-7,0-14.1,0.2-21.1,0.5
				l-0.9-16c7.3-0.4,14.7-0.6,22-0.6c3.7,0,7.3,0.1,11,0.2c3.7,0.1,7.3,0.3,11.1,0.5l0.4,0l0.5,0.1l4.8,0.9L4156.4,1655.9z"/>
			<path class="st9" d="M4064.9,1661.9c-7.2,2.1-14.1,4.8-20,8.5c-0.7,0.5-1.4,0.9-2.1,1.4l-2.3,1.7l-4.9,3.6l-9.7,7.2l-9.4-13
				l9.6-7.1l4.8-3.5l2.6-1.9c0.9-0.7,1.9-1.3,2.9-1.9c7.7-4.8,15.9-7.9,24-10.3L4064.9,1661.9z"/>
			<path class="st9" d="M3985.3,1710.2c-2.2,0.9-4.3,1.9-6.5,2.8c-2.2,0.9-4.3,1.8-6.5,2.7c-2.2,0.9-4.4,1.8-6.6,2.6
				c-2.2,0.9-4.4,1.7-6.6,2.6c1.6-1.8,3.2-3.5,4.8-5.2c1.6-1.7,3.2-3.4,4.9-5.1c1.6-1.7,3.3-3.4,4.9-5c1.6-1.7,3.3-3.3,5-5
				L3985.3,1710.2z"/>
		</g>
	</g>
	<g>
		<path class="st3" d="M3482.6,1583.8c8.9-0.8,17.5-1.5,26.1-2.4l6.4-0.6c1.1-0.1,2.1-0.3,3.2-0.2c1,0.1,2.1,0.4,3.1,0.5
			c4.2,0.4,8.4,0.7,12.6,0.9c16.7,0.9,33.5,0.8,50.1-0.7c8.3-0.8,16.5-1.9,24.7-3.4c8.1-1.6,16.1-3.5,24-6
			c7.8-2.6,15.4-5.5,22.7-9.1c7.2-3.7,14.1-7.9,20.5-12.7l0.4-0.3l0.3-0.2l13.7-8.4l6.9-4.2c0.6-0.4,1.1-0.7,1.7-1.1l1.6-1.2
			c0.5-0.4,1.1-0.7,1.8-1c0.6-0.3,1.3-0.5,1.9-0.7c10.3-3.7,20.7-7.3,31.4-10.3c-7.6,8.2-15.4,15.9-23.4,23.4c-0.5,0.5-1,1-1.5,1.4
			c-0.5,0.4-1.1,0.8-1.7,1.1l-1.8,0.9c-0.6,0.3-1.2,0.7-1.7,1l-6.9,4.2l-13.7,8.4l0.7-0.5c-7.3,5.5-15,10.2-23.1,14.3
			c-8.1,4-16.4,7.3-24.9,10.1c-8.5,2.7-17.1,4.8-25.8,6.5c-8.7,1.7-17.4,2.8-26.2,3.7c-17.5,1.6-35.1,1.7-52.5,0.8l-6.5-0.4
			c-2.2-0.1-4.3-0.4-6.5-0.5c-1.1,0-2.2,0-3.3-0.1c-1.1-0.1-2.2-0.4-3.2-0.8l-6.3-2.1C3498.8,1591.3,3490.5,1588,3482.6,1583.8z"/>
	</g>
	<g>
		<g>
			<path class="st10" d="M3482.6,1583.8c8.3-0.7,16.4-1.4,24.4-2.2l6-0.6l3-0.3c1-0.1,2-0.1,3,0c1,0.1,1.9,0.4,2.9,0.5
				c1,0.1,2,0.2,2.9,0.3l5.9,0.4l-1,16l-6.1-0.4c-1-0.1-2-0.2-3-0.2c-1-0.1-2,0-3.1-0.1c-2,0-4-0.9-6-1.5c-2-0.6-4-1.3-5.9-2
				c-3.9-1.4-7.8-2.9-11.6-4.5C3490.1,1587.5,3486.3,1585.8,3482.6,1583.8z"/>
			<path class="st10" d="M3577.6,1581.9c15.5-1.1,31-3.4,45.8-7.3l4.1,15.5c-16.1,4.2-32.5,6.6-48.8,7.8L3577.6,1581.9z"/>
			<path class="st10" d="M3665.5,1557.2c3.6-2.2,7.1-4.6,10.4-7.1l0.3-0.2l0.3-0.2l14.7-9l7.3-4.5c1.2-0.8,2.3-1.8,3.6-2.3l4.1-1.5
				l7.5,12.2l-3.2,3c-1.1,1-2.5,1.5-3.7,2.2l-7.4,4.5l-14.7,9l0.7-0.5c-3.8,2.9-7.7,5.6-11.8,8.1L3665.5,1557.2z"/>
		</g>
	</g>
	<g>
		<path class="st3" d="M2907,1086.1c7.3,7.9,14.3,16,21.2,24.1c1.7,2,3.4,4.1,5.1,6.1c1.6,2.1,3.5,4,4.7,6.3
			c0.6,1.2,1.2,2.4,1.8,3.5l2,3.4l4,6.8l3.9,6.7l0.8,1.2c0.3,0.5,0.7,0.9,1,1.4c0.7,0.9,1.5,1.9,2.2,2.8c3.1,3.7,6.5,7.2,10.2,10.6
			c7.3,6.6,15.5,12.5,24.1,17.6c17.3,10.2,36.5,17.3,56.3,21.7c9.9,2.2,20,3.8,30.2,4.8c10.2,1,20.4,1.4,30.7,1.5l-2,0.2l49.6-12.7
			c2.1-0.5,4-1.4,6.2-1.6l6.4-0.6c4.3-0.4,8.6-0.7,12.9-1.1c8.6-0.7,17.3-1.2,26-1.6c-7.8,3.9-15.7,7.5-23.6,11.1
			c-4,1.8-7.9,3.5-11.9,5.2l-5.9,2.6c-2,0.9-4.1,1-6.2,1.5l-49.6,12.7l-1,0.3l-1,0c-10.8-0.1-21.5-0.5-32.3-1.6
			c-10.8-1.1-21.5-2.8-32.1-5.2c-21.2-4.7-42-12.3-61-23.5c-9.5-5.6-18.5-12.1-26.8-19.6c-4.1-3.8-8-7.8-11.7-12.1
			c-0.9-1.1-1.8-2.2-2.7-3.4c-0.4-0.6-0.9-1.2-1.3-1.8l-0.7-0.9l-0.3-0.5l-0.4-0.6l-4-6.9l-4-6.8l-2-3.4c-0.7-1.1-1.5-2.2-2.2-3.3
			c-1.5-2.2-2.2-4.8-3.2-7.3c-1-2.5-2-5-2.9-7.5C2913.9,1106.4,2910.3,1096.4,2907,1086.1z"/>
	</g>
	<g>
		<g>
			<path class="st8" d="M2907,1086.1c1.4,1.5,2.8,3,4.1,4.5l4.1,4.6c2.7,3.1,5.4,6.1,8,9.2c2.6,3.1,5.2,6.2,7.8,9.3l3.9,4.7
				c0.6,0.8,1.3,1.6,1.9,2.4c0.6,0.8,1.1,1.7,1.5,2.6l-14.1,8.3c-0.6-0.8-1.1-1.7-1.5-2.6c-0.4-0.9-0.8-1.9-1.1-2.8l-2.2-5.7
				c-1.5-3.8-2.9-7.6-4.3-11.4c-1.4-3.8-2.8-7.6-4.1-11.5l-2-5.8C2908.3,1090,2907.6,1088.1,2907,1086.1z"/>
			<path class="st8" d="M2964.9,1159.9c11.3,10,24.3,18.2,38.2,24.7l-6.7,14.5c-15.1-7-29.5-16-42.1-27.2L2964.9,1159.9z"/>
			<path class="st8" d="M3047,1198.9c15.1,3.2,30.7,5,46.2,5.6l-0.6,16c-16.4-0.6-32.8-2.5-49-5.9L3047,1198.9z"/>
			<path class="st8" d="M3137.8,1196.1l11.6-3c1.9-0.5,3.9-0.9,5.8-1.6c1-0.3,1.9-0.6,2.9-0.8c1-0.2,2-0.3,3-0.3
				c4-0.4,8.1-0.8,12.1-1.1c4-0.3,8.1-0.7,12.1-0.9l1.8,7.2c-3.7,1.7-7.4,3.4-11.1,5c-3.7,1.7-7.4,3.2-11.1,4.9
				c-0.9,0.4-1.9,0.8-2.8,1.1c-1,0.3-1.9,0.5-2.9,0.7c-2,0.3-3.9,0.9-5.8,1.4l-11.6,3L3137.8,1196.1z"/>
		</g>
	</g>
	<polyline class="st11" points="5764.2,1988.7 5807.3,1988.7 5807.3,2021.1 5764.2,2021.1 	"/>
	<polyline class="st11" points="5702.2,1896.4 5745.3,1896.4 5745.3,1928.7 5702.2,1928.7 	"/>
	<polyline class="st11" points="5888.2,1988.7 5931.3,1988.7 5931.3,2021.1 5888.2,2021.1 	"/>
	<polyline class="st11" points="5826.2,1896.4 5869.3,1896.4 5869.3,1928.7 5826.2,1928.7 	"/>
	<polyline class="st11" points="5961.5,1896.4 6004.6,1896.4 6004.6,1928.7 5961.5,1928.7 	"/>
	<polyline class="st11" points="6023.5,1988.7 6066.6,1988.7 6066.6,2021.1 6023.5,2021.1 	"/>
	<polyline class="st11" points="6094.5,1896.4 6137.6,1896.4 6137.6,1928.7 6094.5,1928.7 	"/>
	<polyline class="st11" points="6156.5,1988.7 6199.6,1988.7 6199.6,2021.1 6156.5,2021.1 	"/>
	<polyline class="st11" points="6284.6,1988.7 6327.7,1988.7 6327.7,2021.1 6284.6,2021.1 	"/>
	<polyline class="st11" points="6222.6,1896.4 6265.7,1896.4 6265.7,1928.7 6222.6,1928.7 	"/>
	<line class="st12" x1="6462.3" y1="1817.7" x2="6478.6" y2="2098.6"/>
	<line class="st13" x1="6449.3" y1="1819.7" x2="6465.6" y2="2100.6"/>
	<line class="st13" x1="6476" y1="1843.2" x2="6491.3" y2="2097.1"/>
</g>
<g id="Walls" class="st14">
	<polygon class="st15" points="2737.7,1413.1 2842,1472.3 3151.3,1520.1 4787.3,1122.3 4884.1,1153.1 4901.7,1245.5 4844.5,1354.2 
		4700,1386.1 4200.9,1291.9 3848.5,1386.7 3588.1,1505.9 3248.8,1535.2 1732.5,1300.7 1286.2,1377.1 1079.4,1479.5 943.7,1669.7 
		943.7,1818.7 943.7,2077.5 1185.8,2410 1604.7,2561.1 4950.1,2219.9 6440.1,2206.7 7852.2,2040.5 7914.2,2069.7 7874.4,2124.3 
		7339.3,2263.9 6778.8,2362 6847.1,2778.5 6778.8,2945.9 6609.8,3044.8 4593.8,2919.1 4382.9,3351.2 3226.9,3114.7 2927.3,2603.1 
		2659.5,2453.5 1582.9,2563.5 1274.1,2585.5 1084.9,2427.1 943.7,2131.5 943.7,1615.9 1037.5,1500.3 1314.9,1362.9 2424.4,1013.9 	
		"/>
	<polygon class="st15" points="968.4,636 1297.7,952.5 2961.5,301.1 3204.5,425.7 3096.9,730.5 3119.7,888.2 3004.4,1013.9 
		3171.9,1056.8 4706.7,658.7 5498.9,563 5675,1365.9 5391.6,1752.3 4469.9,1803.8 4105.6,1741.6 3850.3,1878.3 3518.2,1912.6 
		1494.6,1768.3 1390.8,1878.3 1456.1,1989.2 1681.9,2055.2 4919.3,1808.1 6299.4,1775.9 8792,1406.8 8860.7,2284.7 7567.8,2764.2 
		7598.4,3255 7552.9,3506.7 7259.2,3681.4 6824.8,3681.4 5354.5,3517.1 5087.1,3790.4 4792.7,4075.1 4469.9,4113.7 2907,3607.1 
		2341,3458.7 2240.2,3177.7 2295.9,2932.6 1396.7,3124.9 471.3,3233.6 154,2971.7 80.6,2160.2 97.8,893.6 	"/>
</g>
<g id="Spawns" class="st14">
	<circle class="st16" cx="5789.7" cy="2004.9" r="15.7"/>
	<circle class="st16" cx="5727.7" cy="1912.6" r="15.7"/>
	<circle class="st16" cx="5851.8" cy="1912.6" r="15.7"/>
	<circle class="st16" cx="5913.8" cy="2004.9" r="15.7"/>
	<circle class="st16" cx="5987" cy="1912.6" r="15.7"/>
	<circle class="st16" cx="6049" cy="2004.9" r="15.7"/>
	<circle class="st16" cx="6120.1" cy="1912.6" r="15.7"/>
	<circle class="st16" cx="6182.1" cy="2004.9" r="15.7"/>
	<circle class="st16" cx="6248.2" cy="1912.6" r="15.7"/>
	<circle class="st16" cx="6310.2" cy="2004.9" r="15.7"/>
</g>
<g id="Waypoints" class="st14">
	<polyline class="st17" points="6569.9,1958.1 6701,1944.8 6842.5,1936.3 7000,1918.6 7149.6,1898.8 7294.9,1887.7 7451.3,1879.3 
		7595.2,1879.3 7730.7,1879.3 7881.6,1879.3 8017.1,1903.1 8119.9,1960.1 8162.3,2048.4 8130.2,2167.1 8017.1,2250 7877.4,2334.4 
		7723.7,2429.7 7605,2509.3 7486.3,2601.5 7386.5,2719.8 7321.4,2871.1 7261.4,3020.4 7183.8,3150.5 7100.7,3225.9 6977.8,3263.6 
		6821.4,3277.6 6638.4,3288.7 6466.6,3297.1 6302,3297.6 6100.6,3297.6 5928.8,3297.6 5768.1,3297.6 5562.8,3290.1 5367.2,3290.1 
		5205.2,3307.4 5107.4,3350.9 4990.1,3414.5 4867.2,3467.5 4719.1,3556 4576.6,3587.7 4429,3575.9 4291.7,3555.5 4125.4,3524.8 
		3942.5,3491.3 3763.7,3458.7 3587.7,3427 3425.6,3396.3 3279,3369.8 3104.4,3329.3 3016.4,3279 2911.6,3163 2792.4,3043.6 
		2681.1,2932.6 2548.4,2834.8 2411.5,2771.9 2257.9,2762.1 2083.3,2784.5 1921.2,2774.7 1724.3,2767.7 1559.6,2759.3 1375.1,2744 
		1190.7,2703.5 1029.7,2597.6 911.7,2435.3 870.8,2270.5 854,2110.6 844.3,1961.6 835.9,1785.7 828.9,1645.9 878.8,1521.7 
		968.4,1443.5 1105.5,1386.2 1249.8,1329 1390.4,1271.7 1549.7,1212.7 1694.9,1158.6 1838.8,1102.7 1984.1,1044 2118.2,993.7 
		2245.3,952.5 2378,908.5 2493.9,921.1 2593.1,986.8 2696.5,1069.2 2799.8,1125 2924.2,1200.5 3040.1,1241.9 3193.8,1234 
		3399.1,1212.7 3561.1,1190.7 3742.7,1164.2 3929.9,1133.4 4092,1108.4 4230.2,1086.1 4378.3,1070.6 4530.5,1058 4684.2,1045.4 
		4864.4,1041.2 4974.7,1077 5043.2,1158.6 5050.2,1263.3 5022.2,1366.7 4944,1433.7 4825.3,1479.8 4675.8,1509.2 4533.3,1532.9 
		4311.2,1556.7 4094.7,1581.8 3931.3,1601.4 3767.9,1623.7 3609.1,1637.7 3429.8,1646.4 3259.4,1646.4 3096.9,1639.1 2883.7,1625.1 
		2700.7,1619.5 2520.5,1618.1 2343.1,1616.7 2179.6,1616.7 1989.7,1615.3 1791.3,1607 1593,1604.2 1384.8,1620.9 1249.8,1691.3 
		1192.1,1794.1 1194.9,1901.7 1235.6,2014.8 1324.8,2121 1465.9,2174.1 1601.4,2207.4 1803.9,2207.4 1946.4,2199.2 2177.8,2182.5 
		2341,2182.5 2572.4,2173 2789.1,2161.9 2978,2159.7 3106,2157 3237.2,2154.2 3447.6,2133.5 3592.3,2119.3 3814.9,2097.4 
		3969.6,2082.2 4237.6,2055.8 4452.4,2021.1 4643.1,2015.9 4866.6,1988.7 5034.9,1988.7 5205.5,1988.7 5469,1988.7 5659.5,1988.7 
		5971.4,1963.3 6244.2,1958.1 6390.1,1963.3 	"/>
</g>
</svg>
