<?xml version="1.0" encoding="utf-8"?>
<!-- Generator: Adobe Illustrator 23.0.1, SVG Export Plug-In . SVG Version: 6.00 Build 0)  -->
<svg version="1.1" xmlns="http://www.w3.org/2000/svg" xmlns:xlink="http://www.w3.org/1999/xlink" x="0px" y="0px"
	 viewBox="0 0 15000 8433.4" style="enable-background:new 0 0 15000 8433.4;" xml:space="preserve">
<style type="text/css">
	.st0{fill:#FEEBAD;}
	.st1{fill:none;stroke:#939393;stroke-width:280;stroke-miterlimit:10;}
	.st2{fill:none;stroke:#FFFFFF;stroke-width:25;stroke-miterlimit:10;}
	.st3{fill:none;stroke:#000000;stroke-width:25;stroke-miterlimit:10;stroke-dasharray:25;}
	.st4{fill:none;stroke:#FFFFFF;stroke-width:3;stroke-miterlimit:10;}
	.st5{display:none;}
	.st6{display:inline;fill:none;stroke:#000000;stroke-width:4;stroke-miterlimit:10;}
	.st7{display:inline;fill:none;stroke:#ED0A0A;stroke-width:4;stroke-miterlimit:10;}
	.st8{display:inline;fill:none;stroke:#FF0000;stroke-width:4;stroke-miterlimit:10;}
	.st9{display:inline;fill:none;stroke:#6FCBDC;stroke-width:4;stroke-miterlimit:10;}
</style>
<g id="Sand">
	<path class="st0" d="M10087.9,1554.1l-269.4,379.4c0,0-273.6-360.9-74.9-550.6c0,0,261.3-390.5,715.5-264.7
		s1038.9,596.3,1038.9,596.3L10087.9,1554.1"/>
	<path class="st0" d="M9976.9,3036.9l540.4-254.9c0,0,157.3-71.4,104.2-203.9c-53.2-132.6-512-581.2-512-581.2L9976.9,3036.9z"/>
	<path class="st0" d="M13627,1604.7l858.3-346.2c0,0-332.3,1078.5-232.4,1218.3l-759-53.3l326.2-312.9L13627,1604.7z"/>
	<path class="st0" d="M8780.3,5446.1c0,0,372.8,998.6-99.9,1158.4c-472.7,159.8-1031.9-459.4-1378.1-426.1l1038.6-266.3
		L8780.3,5446.1z"/>
	<path class="st0" d="M5977.4,6265L5285,6305c0,0-292.9,26.6-512.6-113.2c-219.7-139.8-466-326.2-466-326.2l-173.1-419.4
		l1543.6,672.4L5977.4,6265z"/>
	<path class="st0" d="M3267.8,4607.3c0,0,73.2-106.5-33.3-186.4C3128,4341,2875,4201.2,2675.3,4048c-199.7-153.1-699,253-1071.9,0
		l547.3,515.2L3267.8,4607.3z"/>
	<path class="st0" d="M1230.6,4174.5l-745.7-193.1c0,0-273-759,133.2-892.1l985.3,126.5l-469.1,274.8L1230.6,4174.5z"/>
	<path class="st0" d="M7175.8,4054.7c204.6-84.2,539.3,26.6,679.1-406.1c139.8-432.7-1511.3-372.8-1511.3-372.8l958.7,368.3
		C7302.3,3644.1,6971.1,4138.9,7175.8,4054.7z"/>
	<path class="st0" d="M6530,3954.8c0,0-838.9,158.2-659.1,851.4c179.8,693.2,1464.7,872.9,1464.7,872.9s710.4,137.6,527.7-665.8
		c0,0-128.2-193.1-281.4-253l-40.4,485.5l-239.2,77.6l-958.7-666.5L6530,3954.8z"/>
	<path class="st0" d="M11747.5,2104.9h-663c0,0-221,327.7-68.6,594.4L11747.5,2104.9z"/>
	<path class="st0" d="M10962.2,3164.3c0,0-220.7,342.9-175,472.5c0,0-528.3,18.2-609.7-83.8L10962.2,3164.3z"/>
</g>
<g id="Track">
	<path class="st1" d="M3316,3363.2l3040.6,54l976.2,173.6c0,0,212.2,84.9-34.7,247s-721.6,247-721.6,247s-540.2,285.5-119.6,725.4
		l320.3,258.5c0,0,243.9,133.2,405.2,223.8s500.1-20.2,416.7-270.1c-168.7-230.9-250.8-343.4-250.8-343.4s-135.1-123.5,15.4-243.1
		l1223.2-872.1l1346.7-663.7c0,0,266.2-235.4,185.2-470.8s-173.6-551.8-173.6-551.8s-88.7-343.4,304.8-355
		c0,0,1775,748.6,3387.9,219.9c0,0,231.5,23.2,247,254.7c15.4,231.5-219.9,289.4-219.9,289.4l-1883-42.4c0,0-439.9-7.7-663.7,520.9
		c0,0-88.8,235.4-412.9,389.7L8490.5,4231.4c0,0-262.4,131.2-173.6,366.6c88.8,235.4,320.3,872.1,320.3,872.1s96.5,409-351.1,497.8
		l-2400.1,165.9c0,0-266.2,15.4-474.6-108L2775.8,4478.3c0,0-81-57.9-239.2,30.9c-158.2,88.7-308.7,88.7-385.9,54
		c-77.2-34.7-960.8-598.1-960.8-598.1s-189.1-146.6-108-370.4c81-223.8,262.4-254.7,262.4-254.7L3316,3363.2z"/>
	<line class="st2" x1="4552.5" y1="3245.3" x2="4550.8" y2="3526.6"/>
	<line class="st2" x1="4577.2" y1="3246.3" x2="4576.1" y2="3526.1"/>
	<line class="st3" x1="4552.5" y1="3245.3" x2="4550.8" y2="3526.6"/>
	<line class="st3" x1="4577.3" y1="3270.6" x2="4576.3" y2="3525"/>
	<polyline class="st4" points="3815.9,3417.2 3859,3417.2 3859,3449.6 3815.9,3449.6 	"/>
	<polyline class="st4" points="3753.9,3324.9 3797,3324.9 3797,3357.3 3753.9,3357.3 	"/>
	<polyline class="st4" points="3939.9,3417.2 3983.1,3417.2 3983.1,3449.6 3939.9,3449.6 	"/>
	<polyline class="st4" points="3877.9,3324.9 3921.1,3324.9 3921.1,3357.3 3877.9,3357.3 	"/>
	<polyline class="st4" points="4013.2,3324.9 4056.3,3324.9 4056.3,3357.3 4013.2,3357.3 	"/>
	<polyline class="st4" points="4075.2,3417.2 4118.3,3417.2 4118.3,3449.6 4075.2,3449.6 	"/>
	<polyline class="st4" points="4146.2,3324.9 4189.4,3324.9 4189.4,3357.3 4146.2,3357.3 	"/>
	<polyline class="st4" points="4208.2,3417.2 4251.4,3417.2 4251.4,3449.6 4208.2,3449.6 	"/>
	<polyline class="st4" points="4336.3,3417.2 4379.5,3417.2 4379.5,3449.6 4336.3,3449.6 	"/>
	<polyline class="st4" points="4274.3,3324.9 4317.5,3324.9 4317.5,3357.3 4274.3,3357.3 	"/>
</g>
<g id="Waypoints" class="st5">
	<polyline class="st6" points="4645.3,3390.1 4723.4,3391.5 4804.7,3392.9 4909.4,3394.8 5004.1,3396.5 5103.8,3398.2 
		5191.8,3399.8 5274.9,3401.3 5379.5,3403.1 5480.9,3404.9 5575.6,3406.6 5668.6,3408.3 5771.5,3410.1 5876.2,3411.9 5950.9,3413.3 
		6075.4,3429.3 6165.1,3452.6 6289.7,3480.8 6386.1,3504.1 6479.1,3525.7 6603.7,3547.3 6728.2,3580.5 6836.2,3603.7 6960.8,3628.7 
		7104.8,3653.6 7208.3,3672 7260,3715.6 7228.1,3768.1 7161.8,3811.4 7062.1,3864.5 6982.4,3919.3 6894.3,3979.1 6801.3,4037.5 
		6719.9,4095.4 6648.5,4148.6 6567.1,4206.7 6465.8,4289.8 6416.7,4390 6402.7,4475.8 6409.3,4575.5 6442.5,4658.5 6518.9,4744.9 
		6592,4809.7 6678.4,4879.4 6767.2,4953.9 6852.3,5013.1 6942.2,5075.6 7031.5,5137.7 7131.9,5193.4 7236.5,5244.9 7359.4,5254.8 
		7464.1,5223.3 7527.2,5138.5 7527.2,5023.9 7484,4902.7 7437.5,4774.8 7404.3,4660.2 7376,4533.9 7445.2,4445.6 7527.2,4379.1 
		7600.1,4313.2 7696.9,4220 7773.8,4147.9 7844.2,4097.6 7959,4015.8 8039.8,3958.2 8112.5,3906.4 8217.1,3831.8 8304.1,3769.8 
		8404.3,3698.3 8509.7,3623.2 8607.5,3567.8 8702.7,3510.8 8773.8,3458.2 8864.7,3404.5 8966,3349.1 9069.9,3297.2 9158.2,3247.8 
		9251.7,3195.9 9350.4,3143.9 9438.7,3104.9 9540,3053 9662.1,2995.9 9779,2925.7 9872.5,2863.4 9934.8,2795.9 9994.6,2720.5 
		10033.2,2609.1 10048.4,2490.3 10048.4,2351.7 10048.4,2240 10048.4,2120.5 10036.1,2029.6 10036.1,1936.8 10033.5,1850.4 
		10036.1,1754.3 10080.3,1671.2 10178.9,1627 10295.9,1627 10407.5,1663.4 10514,1694.5 10633.8,1715.3 10773.8,1736.1 
		10919.2,1756.9 11062.1,1762.1 11192,1762.1 11334.8,1769.9 11499.4,1782.8 11654.3,1795.8 11823.2,1811.4 12005,1827.5 
		12147.8,1827.5 12329.7,1827.5 12519.3,1827.5 12740.1,1814 12903.7,1790.6 13080.3,1772.5 13225.8,1764.7 13371.2,1772.5 
		13495.2,1789.6 13589.4,1827.5 13680.3,1871 13753.8,1936.8 13771.2,2055.6 13727.1,2151.7 13599.8,2206.2 13441.4,2203.6 
		13282.9,2208.8 13121.9,2211.4 12937.5,2229.6 12766,2247.8 12589.4,2265.6 12402.4,2279 12236.1,2284.2 12059.5,2286.8 
		11890.7,2318.2 11719.3,2354.3 11532.2,2405.5 11412.8,2486.8 11293.3,2616.6 11189.4,2759.5 11119.2,2871.2 11030.9,2956.9 
		10856.9,3011.4 10706.3,3076.4 10547.8,3149.1 10381.6,3232.2 10225.7,3315.3 10121.8,3367.3 9966,3440.9 9823.1,3533.5 
		9677.7,3619.2 9516.6,3712.8 9373.3,3806.3 9208.3,3886.5 9050.9,3963 8926.6,4023.4 8828.3,4097.2 8714,4169.9 8576.4,4260.8 
		8459.5,4351.7 8399.7,4429.6 8360.8,4559.5 8371.2,4689.4 8381.5,4824.8 8397.1,4949.1 8430.9,5089.4 8464.7,5214.1 8493.2,5323.2 
		8524.4,5449.5 8545.2,5564.7 8524.4,5668.6 8472.5,5789.7 8334.8,5858.2 8163.4,5879.9 7973.7,5892 7804.9,5907.6 7628.3,5928.4 
		7475,5938.8 7254.3,5956.9 7090.6,5967.3 6903.6,5980.3 6724.4,5995.9 6521.8,6014.1 6363.3,6024.5 6173.7,6024.5 5978.8,6041.9 
		5802.3,6024.5 5607.5,5993.3 5389.3,5907.6 5210.1,5829.7 5023,5733.6 4854.2,5647.8 4698.4,5567.3 4550.3,5492 4397.1,5408.9 
		4224.8,5331.6 4030.7,5217.6 3898.2,5139.8 3744.2,5049.4 3597.8,4963.5 3443.3,4872.8 3293.7,4795.9 3161.9,4707.6 2989.2,4634.8 
		2846.4,4572.5 2677.6,4523.2 2537.9,4512.5 2342.5,4481.6 2233.2,4456.5 2093.1,4424.4 1945.1,4341.3 1829.2,4262.7 1724.3,4195.9 
		1615.2,4125.7 1506.1,4058.2 1391.8,3980.3 1290.5,3910.2 1212.6,3831.8 1170.5,3741 1170.5,3624.4 1215.2,3541.3 1293.1,3468.6 
		1414.4,3436.7 1539.9,3436.7 1674.9,3436.7 1817.8,3421 1971,3401.1 2139.9,3389.5 2277.5,3377.7 2438.6,3372.5 2571.1,3375.1 
		2693.1,3375.1 2836,3372.5 2961.8,3375.1 3090.5,3375.1 3256.8,3377.7 3362.6,3367.3 3501,3369.8 3628.2,3372 3726.9,3373.8 
		3818.3,3375.4 3921.5,3377.2 4015.6,3378.9 4148.6,3381.3 4267.6,3383.4 4364.3,3385.1 4456.8,3386.7 	"/>
</g>
<g id="Walls" class="st5">
	<polyline class="st7" points="8266.6,4102.4 7624.4,4616.2 7896.1,4969.4 8020.2,5316.3 7893.3,5684.8 7132.9,5721.4 
		6101.4,5392.6 5706.8,4775.3 5764.1,4278.9 6072.8,3998.9 6418.5,3908.8 6992.9,3749.2 6293.6,3706.4 1477.2,3617.2 1413,3674.3 
		1413,3756.4 1901,4012.4 2547,3884.8 3017.9,4154.8 5783.5,5786.4 8302.3,5665.1 8362.9,5550.9 8020.4,4626.9 8088.2,4298.7 
		8266.6,4102.4 10258.4,3085.6 10817.5,2800.2 10865.1,2341 11008.3,2067.3 11556,2084.4 13606.5,2084.4 13654.9,2031.2 
		13628.9,1983.2 12948.1,2084.4 	"/>
	<polyline class="st7" points="11556,2084.4 10201.6,1824.2 10645.5,2382.3 10712.3,2684.6 10369.5,3028.9 	"/>
	<polygon class="st8" points="14352.8,2610.4 14671.2,1152 14400.1,1093.2 13148.3,1522.6 11728.6,1522.6 10502.6,829.4 
		9723.9,898.2 9341,1479 9792.7,2516.9 9706.7,2670.6 8463.4,3363.3 7134.1,4382.8 7082.5,4649.6 7336.3,5045.3 7344.9,5114.2 
		7267.5,5088.4 6656.6,4606.5 6630.8,4486.1 6729.7,4335.5 7500,4087 8032.3,3668.6 7921.4,3341.8 7473.6,3143.9 1515.7,3066.4 
		487.5,2893.2 216.5,3143.9 268.1,4120.4 1201.7,4357 2019.1,4851.7 2447.9,4907.7 2655.7,4821.5 3972.1,5548.7 4133.3,5983.2 
		4875.6,6490.8 7387.7,6391.9 8334.4,6878 8897.9,6800.5 9130.2,6447.8 9164.6,6009 8721.5,4585 10201.6,3828.4 10859.6,3793.5 
		11642.6,2558.8 	"/>
</g>
<g id="Spawns" class="st5">
	<circle class="st9" cx="3842.5" cy="3433.4" r="15.7"/>
	<circle class="st9" cx="3780.5" cy="3341.1" r="15.7"/>
	<circle class="st9" cx="3904.5" cy="3341.1" r="15.7"/>
	<circle class="st9" cx="3966.5" cy="3433.4" r="15.7"/>
	<circle class="st9" cx="4039.8" cy="3341.1" r="15.7"/>
	<circle class="st9" cx="4101.8" cy="3433.4" r="15.7"/>
	<circle class="st9" cx="4172.8" cy="3341.1" r="15.7"/>
	<circle class="st9" cx="4234.8" cy="3433.4" r="15.7"/>
	<circle class="st9" cx="4300.9" cy="3341.1" r="15.7"/>
	<circle class="st9" cx="4362.9" cy="3433.4" r="15.7"/>
</g>
</svg>
