<?xml version="1.0" encoding="utf-8"?>
<!-- Generator: Adobe Illustrator 23.0.0, SVG Export Plug-In . SVG Version: 6.00 Build 0)  -->
<svg version="1.1" xmlns="http://www.w3.org/2000/svg" xmlns:xlink="http://www.w3.org/1999/xlink" x="0px" y="0px" width="15000px"
	 height="8433.4px" viewBox="0 0 15000 8433.4" style="enable-background:new 0 0 15000 8433.4;" xml:space="preserve">
<style type="text/css">
	.st0{fill:#FEEBAD;}
	.st1{fill:none;stroke:#939393;stroke-width:280;stroke-miterlimit:10;}
	.st2{fill:none;stroke:#FFFFFF;stroke-width:25;stroke-miterlimit:10;}
	.st3{fill:none;stroke:#000000;stroke-width:25;stroke-miterlimit:10;stroke-dasharray:25;}
	.st4{fill:#FFFFFF;}
	.st5{fill:#FF0000;}
	.st6{display:none;}
	.st7{display:inline;fill:none;stroke:#000000;stroke-width:4;stroke-miterlimit:10;}
	.st8{display:inline;fill:none;stroke:#ED0A0A;stroke-width:4;stroke-miterlimit:10;}
	.st9{display:inline;fill:none;stroke:#FF0000;stroke-width:4;stroke-miterlimit:10;}
	.st10{display:inline;fill:none;stroke:#FFFFFF;stroke-width:3;stroke-miterlimit:10;}
	.st11{display:inline;fill:none;stroke:#6FCBDC;stroke-width:4;stroke-miterlimit:10;}
</style>
<g id="Sand">
	<path class="st0" d="M10087.9,1554.1l-269.4,379.4c0,0-273.6-360.9-74.9-550.6c0,0,261.3-390.5,715.5-264.7
		s1038.9,596.3,1038.9,596.3L10087.9,1554.1"/>
	<path class="st0" d="M9976.9,3036.9l540.4-254.9c0,0,157.3-71.4,104.2-203.9c-53.2-132.6-512-581.2-512-581.2L9976.9,3036.9z"/>
	<path class="st0" d="M13627,1604.7l858.3-346.2c0,0-332.3,1078.5-232.4,1218.3l-759-53.3l326.2-312.9L13627,1604.7z"/>
	<path class="st0" d="M8780.3,5446.1c0,0,372.8,998.6-99.9,1158.4c-472.7,159.8-1031.9-459.4-1378.1-426.1l1038.6-266.3
		L8780.3,5446.1z"/>
	<path class="st0" d="M5977.4,6265L5285,6305c0,0-292.9,26.6-512.6-113.2c-219.7-139.8-466-326.2-466-326.2l-173.1-419.4
		l1543.6,672.4L5977.4,6265z"/>
	<path class="st0" d="M3267.8,4607.3c0,0,73.2-106.5-33.3-186.4C3128,4341,2875,4201.2,2675.3,4048c-199.7-153.1-699,253-1071.9,0
		l547.3,515.2L3267.8,4607.3z"/>
	<path class="st0" d="M1230.6,4174.5l-745.7-193.1c0,0-273-759,133.2-892.1l985.3,126.5l-469.1,274.8L1230.6,4174.5z"/>
	<path class="st0" d="M7175.8,4054.7c204.6-84.2,539.3,26.6,679.1-406.1c139.8-432.7-1511.3-372.8-1511.3-372.8l958.7,368.3
		C7302.3,3644.1,6971.1,4138.9,7175.8,4054.7z"/>
	<path class="st0" d="M6530,3954.8c0,0-838.9,158.2-659.1,851.4c179.8,693.2,1464.7,872.9,1464.7,872.9s710.4,137.6,527.7-665.8
		c0,0-128.2-193.1-281.4-253l-40.4,485.5l-239.2,77.6l-958.7-666.5L6530,3954.8z"/>
	<path class="st0" d="M11747.5,2104.9h-663c0,0-221,327.7-68.6,594.4L11747.5,2104.9z"/>
	<path class="st0" d="M10962.2,3164.3c0,0-220.7,342.9-175,472.5c0,0-528.3,18.2-609.7-83.8L10962.2,3164.3z"/>
</g>
<g id="Track">
	<path class="st1" d="M3316,3363.2l3040.6,54l976.2,173.6c0,0,212.2,84.9-34.7,247s-721.6,247-721.6,247s-540.2,285.5-119.6,725.4
		l320.3,258.5c0,0,243.9,133.2,405.2,223.8s500.1-20.2,416.7-270.1c-168.7-230.9-250.8-343.4-250.8-343.4s-135.1-123.5,15.4-243.1
		l1223.2-872.1l1346.7-663.7c0,0,266.2-235.4,185.2-470.8s-173.6-551.8-173.6-551.8s-88.7-343.4,304.8-355
		c0,0,1775,748.6,3387.9,219.9c0,0,231.5,23.2,247,254.7c15.4,231.5-219.9,289.4-219.9,289.4l-1883-42.4c0,0-439.9-7.7-663.7,520.9
		c0,0-88.8,235.4-412.9,389.7L8490.5,4231.4c0,0-262.4,131.2-173.6,366.6c88.8,235.4,320.3,872.1,320.3,872.1s96.5,409-351.1,497.8
		l-2400.1,165.9c0,0-266.2,15.4-474.6-108L2775.8,4478.3c0,0-81-57.9-239.2,30.9c-158.2,88.7-308.7,88.7-385.9,54
		c-77.2-34.7-960.8-598.1-960.8-598.1s-189.1-146.6-108-370.4c81-223.8,262.4-254.7,262.4-254.7L3316,3363.2z"/>
	<line class="st2" x1="4552.5" y1="3245.3" x2="4550.8" y2="3526.6"/>
	<line class="st2" x1="4577.2" y1="3246.3" x2="4576.1" y2="3526.1"/>
	<line class="st3" x1="4552.5" y1="3245.3" x2="4550.8" y2="3526.6"/>
	<line class="st3" x1="4577.3" y1="3270.6" x2="4576.3" y2="3525"/>
	<g>
		<path class="st4" d="M1362.3,3479.2c-15.2,11.7-29.4,24.1-43,37c-15,11-29,23.2-42,36.3c-12.9,13.2-24.7,27.4-34.6,42.8
			c-9.9,15.4-18,31.9-23.3,49.2c-5.4,17.3-7.9,35.4-7.4,53.4c0.2,9,1.3,18,2.9,26.9l0.6,3.3l0.3,1.7l0.4,1.7l1.6,6.6
			c0.6,2.2,1.3,4.4,1.9,6.6c0.3,1.1,0.6,2.2,1,3.3l1.1,3.2c2.8,8.7,6.5,17.1,10.4,25.4c2.1,4.1,4,8.2,6.3,12.2c1.1,2,2.2,4,3.4,6
			c0.6,1,1.3,1.9,1.9,2.9c0.6,1,1.1,2,1.6,3c3.8,8.5,8.1,16.8,12.5,25.2c2.2,4.2,4.6,8.2,7,12.4c2.4,4.1,4.9,8.2,7.3,12.4
			c-3.6-3.1-7.2-6.3-10.8-9.5c-3.4-3.4-6.9-6.7-10.3-10.1c-1.7-1.7-3.3-3.5-5-5.3c-1.7-1.8-3.3-3.5-4.9-5.4
			c-3.2-3.7-6.4-7.3-9.4-11.2c-0.7-1-1.4-2-2.1-3c-0.6-1-1.2-2.1-1.8-3.2c-1.1-2.2-2.3-4.3-3.5-6.4c-2.4-4.2-4.5-8.6-6.7-13
			c-4.1-8.8-8.1-17.8-11.1-27.2l-1.2-3.5c-0.4-1.2-0.7-2.4-1.1-3.5c-0.7-2.4-1.4-4.7-2-7.1l-1.7-7.2l-0.4-1.8l-0.3-1.8l-0.7-3.6
			c-1.8-9.7-3-19.6-3.2-29.5c-0.5-19.8,2.2-39.7,8.1-58.6c5.8-18.9,14.6-36.7,25.2-53.1c10.6-16.5,23.1-31.5,36.7-45.3
			c6.8-6.9,13.9-13.5,21.2-19.9c3.7-3.1,7.4-6.3,11.1-9.3c1.9-1.5,3.8-3,5.7-4.5c0.9-0.8,1.8-1.6,2.8-2.3c1-0.7,1.9-1.4,3-2.1
			c8.4-4.9,17-9.4,25.8-13.4C1344.2,3485.8,1353.1,3482.1,1362.3,3479.2z"/>
	</g>
	<g>
		<g>
			<path class="st5" d="M1362.3,3479.2c-3.2,2.5-6.4,5-9.5,7.5c-3.1,2.6-6.2,5.1-9.3,7.7c-3,2.6-6.1,5.2-9,7.9c-3,2.6-5.9,5.3-8.8,8
				l-8.1-11.4c3.6-2,7.2-3.8,10.9-5.6c3.6-1.8,7.4-3.5,11.1-5.2c3.7-1.6,7.5-3.2,11.3-4.7
				C1354.6,3481.8,1358.4,3480.4,1362.3,3479.2z"/>
			<path class="st5" d="M1289.7,3540.6c-11.5,10.6-22.3,21.9-32,34.1l-12.5-10c10.3-12.8,21.6-24.8,33.7-35.8L1289.7,3540.6z"/>
			<path class="st5" d="M1232.2,3613.4c-7.1,13.7-12.6,28.1-16,43l-15.6-3.6c3.8-16.3,9.8-32,17.4-46.7L1232.2,3613.4z"/>
			<path class="st5" d="M1212.1,3701.8c0.8,15.3,3.6,30.4,8.3,45.1l-15.3,4.8c-5-15.8-8.1-32.4-9-49.1L1212.1,3701.8z"/>
			<path class="st5" d="M1238.8,3789.4c1,1.7,1.9,3.4,2.9,5.1c1,1.6,2.2,3.2,3.1,5c1.7,3.5,3.3,7.1,5.1,10.7
				c1.8,3.5,3.5,7.1,5.4,10.6c1.9,3.5,3.7,7.1,5.7,10.5l-5.4,4.2c-2.9-2.9-5.8-5.8-8.6-8.8c-2.8-3-5.6-6-8.2-9.2
				c-2.7-3.1-5.3-6.3-7.8-9.6c-1.2-1.7-2.1-3.5-3.1-5.4l-3-5.4L1238.8,3789.4z"/>
		</g>
	</g>
	<g>
		<path class="st5" d="M6917.7,3657.9c13.2,0.8,26.4,1.7,39.5,2.8c13.1,1.1,26.3,2.2,39.4,3.6c3.3,0.4,6.4,1.3,9.6,1.9
			c3.2,0.6,6.4,1.2,9.7,1.8l19.3,3.6l38.7,7.2l154.8,28.8l15.8,2.9l-11.9,10.8c-0.8,0.7-1.4,1.2-2.1,1.8l-1.9,1.6
			c-1.3,1.1-2.6,2.1-3.9,3.1c-2.6,2-5.2,3.9-7.9,5.8c-5.3,3.8-10.7,7.4-16.1,10.9c-10.9,7-22,13.4-33.2,19.6
			c-11.3,6.2-22.7,12-34.2,17.6c-11.5,5.6-23.2,10.9-34.9,16c-11.7,5-23.5,10-35.4,14.6c-5.9,2.4-11.9,4.6-17.9,6.9
			c-3,1.2-6,2.2-8.9,3.4c-1.5,0.6-3,1.2-4.5,1.7c-1.5,0.5-3.1,0.9-4.6,1.3c-6.2,1.6-12.4,3.2-18.6,4.7c-6.2,1.4-12.4,2.9-18.7,4.3
			l-18.7,4c-6.3,1.2-12.5,2.4-18.8,3.5l34.9-15.5l17.4-7.9l17.3-8c1.4-0.7,2.9-1.3,4.3-1.9c1.5-0.6,3-1.1,4.5-1.5
			c3-0.9,5.9-2.1,8.9-3.2c5.9-2.2,11.8-4.5,17.6-6.8c11.7-4.6,23.3-9.5,34.9-14.4c11.5-5,23-10.3,34.3-15.7
			c11.3-5.5,22.5-11.2,33.4-17.2c11-6,21.8-12.3,32.3-19.1c5.2-3.3,10.4-6.8,15.4-10.4c2.5-1.8,5-3.6,7.4-5.5
			c1.2-0.9,2.4-1.9,3.6-2.8l1.7-1.4c0.5-0.5,1.2-1,1.5-1.3l4,13.7l-154.8-28.8l-38.7-7.2l-19.4-3.6c-3.2-0.6-6.4-1.2-9.7-1.8
			c-3.2-0.5-6.5-0.9-9.7-1.7c-12.7-3.4-25.4-7.1-38-10.8C6943,3665.8,6930.3,3661.9,6917.7,3657.9z"/>
	</g>
	<g>
		<g>
			<path class="st4" d="M6917.7,3657.9c4,0.2,8,0.5,12.1,0.8c4,0.3,8,0.5,12,0.8c8,0.6,16,1.2,24.1,1.9l-2,10.5
				c-7.7-2.2-15.4-4.5-23.1-6.9c-3.9-1.2-7.7-2.4-11.5-3.6C6925.4,3660.4,6921.6,3659.2,6917.7,3657.9z"/>
			
				<rect x="7027.7" y="3655.9" transform="matrix(0.1829 -0.9831 0.9831 0.1829 2131.0342 9923.7949)" class="st4" width="16" height="48"/>
			
				<rect x="7122.1" y="3673.4" transform="matrix(0.1829 -0.9831 0.9831 0.1829 2190.8884 10030.9307)" class="st4" width="16" height="48"/>
			<path class="st4" d="M7202.3,3702.7l26.5,4.9l16.1,3l-12.1,10.7l-1.2,1.1l-1.1,0.9l-2.2,1.8c-1.4,1.2-2.9,2.3-4.3,3.4
				c-2.9,2.2-5.8,4.3-8.8,6.4l-9.2-13.1c2.8-2,5.6-4,8.3-6.1c1.3-1,2.7-2.1,4-3.1l1.9-1.6l0.9-0.8l0.8-0.7l4,13.7l-26.5-4.9
				L7202.3,3702.7z"/>
			<path class="st4" d="M7173.9,3760.8c-14.1,7.9-28.5,15.3-43.1,22.3l-6.9-14.4c14.3-6.9,28.4-14.1,42.1-21.8L7173.9,3760.8z"/>
			<path class="st4" d="M7086.6,3802.9c-14.9,6.2-29.8,12.2-44.9,17.8l-5.6-15c14.9-5.6,29.7-11.4,44.3-17.6L7086.6,3802.9z"/>
			<path class="st4" d="M6995.2,3833.7c-7.1,1.6-14.2,3.1-21.3,4.6c-3.5,0.7-7.1,1.4-10.7,2.1s-7.1,1.3-10.7,2l19.9-8.8
				c6.6-2.9,13.2-5.8,19.8-8.8L6995.2,3833.7z"/>
		</g>
	</g>
	<g>
		<path class="st4" d="M6147.6,3552.3c8.2-1.5,16.4-2.8,24.6-4c8.2-1.2,16.4-2.3,24.6-3.2c8.2,0.4,16.3,0.4,24.5,0.6l24.5,0.5
			l97.9,1.8l0.6,0l0.6,0.1l93.9,16.7l23.5,4.2l11.7,2.1c2,0.3,3.9,0.7,5.9,1c2,0.2,3.9,0.5,5.8,1.2c7.6,2.5,15.2,5.1,22.8,7.8
			c7.6,2.7,15.2,5.4,22.7,8.4c-8.1,0.1-16.2,0.1-24.2,0c-8.1-0.1-16.1-0.3-24.1-0.6c-2,0-4-0.4-5.9-0.9c-1.9-0.5-3.9-0.8-5.9-1.1
			l-11.7-2.1l-23.5-4.2l-93.9-16.7l1.3,0.1l-97.9-1.8l-24.5-0.5c-8.2-0.1-16.3-0.4-24.5-0.3c-8.1-1.2-16.3-2.7-24.4-4.1
			C6163.8,3555.8,6155.7,3554.1,6147.6,3552.3z"/>
	</g>
	<g>
		<g>
			<path class="st5" d="M6147.5,3552.3c4-0.8,8-1.4,12-2.1c4-0.6,8-1.3,12-1.8c4-0.6,8-1.1,12-1.7l12-1.5l-0.3,16.1l-12-2
				c-4-0.7-8-1.4-12-2.1c-4-0.7-8-1.5-12-2.3C6155.5,3554,6151.5,3553.2,6147.5,3552.3z"/>
			
				<rect x="6259.5" y="3530.5" transform="matrix(1.853180e-02 -0.9998 0.9998 1.853180e-02 2597.3921 9755.0566)" class="st5" width="16" height="48"/>
			<polygon class="st5" points="6339.6,3547.9 6343.5,3547.9 6344.2,3548 6344.8,3548.1 6388.2,3555.8 6385.4,3571.5 6342,3563.8 
				6343.2,3563.9 6339.3,3563.9 			"/>
			<path class="st5" d="M6435.4,3564.2l23.6,4.2l11.8,2.1l5.9,1.1c2,0.4,4,0.5,5.9,0.9l-2.9,16.1c-2-0.3-3.9-0.9-5.9-1.2l-5.9-1.1
				l-11.8-2.1l-23.6-4.2L6435.4,3564.2z"/>
			<polygon class="st5" points="6528.6,3588.4 6531.1,3589.3 6528.5,3589.4 			"/>
		</g>
	</g>
	<g>
		<path class="st4" d="M6625.4,4216.1c-20,14.8-38.6,30.8-56.2,47.7c-2.2,2.1-4.6,3.9-7.1,5.7c-2.4,1.9-4.7,3.9-7,5.8
			c-4.6,4-9.1,8-13.5,12.2c-8.8,8.3-17.3,17-25.3,26c-16,18.1-30.2,37.7-41.6,58.8c-11.4,21.1-19.8,43.6-24.4,67
			c-4.4,23.4-4.9,47.4-1.4,71c1.8,11.8,4.5,23.4,7.9,34.9c1.9,5.7,3.6,11.4,5.9,17l1.6,4.2l0.8,2.1l0.9,2.1l3.6,8.3
			c0.6,1.4,1.2,2.7,1.9,4.1l2,4.1c1.3,2.7,2.6,5.4,4.1,8.1l4.3,7.9l1.1,2l1.2,1.9l2.3,3.9c6,10.5,13,20.4,19.9,30.3
			c1.5,2.7,3.1,5.2,4.7,7.8l4.8,7.8l10.1,15.4l10.6,15.2c3.6,5,7.3,10,10.9,15.1c-4.8-3.9-9.5-8-14.3-12l-13.8-12.7
			c-2.2-2.2-4.5-4.4-6.7-6.6c-2.2-2.2-4.5-4.4-6.6-6.7l-6.4-6.9c-2.1-2.3-4.3-4.6-6.3-7c-1-1.2-2-2.4-2.9-3.7s-1.7-2.6-2.6-3.9
			c-0.9-1.3-1.8-2.6-2.7-3.9l-2.6-4l-5.1-7.9c-1.7-2.7-3.3-5.4-4.9-8.1l-2.4-4.1l-1.2-2l-1.1-2.1l-4.5-8.3c-1.6-2.7-2.9-5.6-4.3-8.5
			l-2.1-4.3c-0.7-1.4-1.4-2.8-2-4.3l-3.8-8.7l-0.9-2.2l-0.9-2.2l-1.7-4.4c-2.4-5.9-4.2-12-6.3-18c-3.6-12.2-6.5-24.6-8.4-37.2
			c-3.7-25.3-3.2-51.2,1.6-76.3c4.9-25.1,13.9-49.3,26-71.6c12.1-22.4,27-42.9,43.7-61.8c16.7-18.9,35.2-36,54.7-51.8
			c2.6-1.8,5.3-3.4,7.9-5.1c2.6-1.7,5.3-3.3,8-4.9c5.4-3.2,10.8-6.3,16.4-9.3C6602.5,4226,6613.8,4220.6,6625.4,4216.1z"/>
	</g>
	<g>
		<g>
			<path class="st5" d="M6625.4,4216.1c-3.3,2.4-6.5,4.8-9.6,7.3c-3.2,2.5-6.3,5-9.4,7.5c-3.1,2.5-6.2,5.1-9.2,7.7
				c-3,2.6-6,5.2-9,7.8l-6.5-9.1c3.5-2,7.1-4,10.7-5.9c3.6-1.9,7.2-3.8,10.8-5.5c3.6-1.8,7.3-3.5,11-5.1
				C6617.9,4219.1,6621.6,4217.5,6625.4,4216.1z"/>
			<path class="st5" d="M6552.6,4277.6c-11.8,10.4-23.1,21.4-33.6,33l-11.9-10.7c11-12.1,22.6-23.5,34.9-34.3L6552.6,4277.6z"/>
			<path class="st5" d="M6489.9,4347.4c-8.8,12.9-16.5,26.4-23,40.5l-14.6-6.6c6.8-15,15.1-29.3,24.3-42.9L6489.9,4347.4z"/>
			<path class="st5" d="M6452,4431.8c-3.5,15-5.3,30.4-5.4,45.8l-16-0.1c0.1-16.6,2.1-33.2,5.8-49.3L6452,4431.8z"/>
			<path class="st5" d="M6451.3,4523.6c3.2,15.1,7.8,30,13.7,44.4l-14.8,6c-6.2-15.2-11.2-31-14.5-47.2L6451.3,4523.6z"/>
			<path class="st5" d="M6485.9,4609.9c4,6.7,8.2,13.4,12.6,19.9c1.1,1.6,2.2,3.2,3.4,4.8c1.2,1.6,2.4,3.1,3.5,4.8
				c2.1,3.3,4,6.8,6.1,10.1l-11.2,8.5c-2.7-3-5.5-6-8.1-9.2c-1.3-1.6-2.4-3.3-3.5-5c-1.1-1.7-2.2-3.4-3.4-5.1
				c-4.6-6.8-8.9-13.6-13.1-20.7L6485.9,4609.9z"/>
			<path class="st5" d="M6538.1,4689.2c3.2,4.3,6.4,8.7,9.5,13.1c-4.2-3.4-8.3-6.9-12.5-10.4L6538.1,4689.2z"/>
		</g>
	</g>
	<g>
		<path class="st4" d="M7244.1,5167.2c2,2.2,4.7,3,7.4,3.7c2.7,0.6,5.5,1,8.3,1.2c2.8,0.2,5.6,0.3,8.4,0.4c2.8,0,5.6,0,8.4-0.1
			c2.8-0.1,5.6-0.2,8.4-0.4c1.4-0.1,2.8-0.2,4.2-0.3c1.4-0.1,2.8,0,4.2,0.1c2.8,0.4,5.6,0.4,8.4,0.4c2.8,0,5.6,0.1,8.4,0
			c22.4-0.3,44.9-2.7,66.7-7.7c10.9-2.5,21.5-5.7,31.7-9.9c10.2-4.1,19.9-9.2,28.3-15.6c8.5-6.3,15.6-14.1,20.1-23
			c4.5-8.9,6.3-19,5.5-29.3l1.5,4.1l-15.5-21.2l-7.8-10.6l-3.9-5.3c-1.3-1.8-2.5-3.6-4-5.2c-0.7-0.8-1.4-1.7-2-2.6
			c-0.6-0.9-1.1-1.9-1.6-2.9l-3.1-5.9c-2.1-3.9-4.1-7.9-6.1-11.8c-4-7.9-7.9-15.9-11.7-23.9c6.6,6,13,12.2,19.3,18.4
			c3.1,3.1,6.3,6.2,9.4,9.4l4.7,4.7c0.8,0.8,1.6,1.6,2.3,2.4c0.7,0.8,1.3,1.8,1.9,2.7c1.2,1.9,2.5,3.6,3.8,5.4l3.9,5.3l7.8,10.6
			l15.5,21.2l1.4,1.9l0.2,2.3c0.5,6.3,0.2,12.8-1,19.2c-1.2,6.4-3.3,12.7-6.2,18.4c-2.9,5.8-6.7,11.1-10.9,15.9
			c-4.2,4.8-8.9,9-13.9,12.7c-9.9,7.4-20.8,13.1-31.9,17.6c-11.1,4.5-22.6,7.9-34.1,10.6c-11.5,2.7-23.2,4.6-34.9,5.9
			c-11.7,1.3-23.5,2.1-35.2,2.2c-2.9,0-5.9,0-8.8,0c-3,0-5.9-0.2-8.9-0.1c-1.5,0-3,0-4.4-0.3c-1.5-0.3-2.9-0.6-4.4-1
			c-2.9-0.7-5.8-1.4-8.7-2.2c-5.8-1.6-11.5-3.5-17-6.1c-2.8-1.3-5.5-2.7-8-4.4c-0.6-0.4-1.2-0.9-1.8-1.4c-0.6-0.5-1.2-1-1.7-1.5
			C7245.5,5169.9,7244.6,5168.6,7244.1,5167.2z"/>
	</g>
	<g>
		<g>
			<path class="st5" d="M7244.1,5167.2c0.6,0.8,1.5,1.4,2.3,1.8c0.8,0.5,1.7,0.8,2.7,1.1c1.8,0.6,3.7,1,5.7,1.3
				c3.8,0.6,7.7,0.8,11.7,0.9c3.9,0.1,7.8,0,11.7-0.2c3.9-0.1,7.8-0.4,11.7-0.7l-1,16.2c-4.1-0.8-8.2-1.8-12.2-2.8
				c-4-1.1-8-2.3-12-3.8c-3.9-1.5-7.8-3.1-11.5-5.2c-1.8-1.1-3.6-2.2-5.3-3.6c-0.8-0.7-1.6-1.4-2.3-2.3
				C7245,5169.1,7244.4,5168.2,7244.1,5167.2z"/>
			<path class="st5" d="M7336.6,5170.7c15.6-1.4,31-3.9,46-7.8l4,15.5c-16,4.1-32.2,6.7-48.5,8.2L7336.6,5170.7z"/>
			<path class="st5" d="M7425.4,5146.5c6.5-3.7,12.7-7.9,18-12.9c5.3-4.9,9.9-10.5,13.2-16.6l14.1,7.6c-4.3,8-10,14.9-16.5,20.9
				c-6.5,5.9-13.6,10.8-21,15L7425.4,5146.5z"/>
			<path class="st5" d="M7457.1,5081.1l-14.2-19.4l-7.1-9.7c-0.6-0.8-1.2-1.6-1.8-2.4l-1.9-2.3c-1.3-1.5-2.1-3.4-3.1-5.2l12.3-9
				c1.4,1.4,2.9,2.8,4,4.5l1.6,2.5c0.6,0.8,1.2,1.6,1.8,2.4l7.1,9.7l14.2,19.4L7457.1,5081.1z"/>
		</g>
	</g>
	<g>
		<path class="st4" d="M7517.8,4674.4c-9.4-7.8-18.2-16-26.9-24.3c-1.1-1-2.2-2.1-3.2-3.1c-1-1.1-1.8-2.3-2.6-3.6
			c-0.8-1.3-1.7-2.4-2.6-3.6l-2.6-3.6l-10.5-14.3l-41.9-57.2l-4.7-6.4l6.4-4.7l70.5-52.3l17.6-13.1l8.8-6.5l4.4-3.3
			c1.5-1.1,3-2.1,4.4-3.3c0.7-0.6,1.4-1.2,2.2-1.7c0.8-0.5,1.6-0.9,2.4-1.3l5-2.5c3.3-1.7,6.7-3.3,10-4.9c6.7-3.2,13.5-6.3,20.4-9.3
			c-4.8,5.8-9.8,11.4-14.8,16.9c-2.5,2.7-5,5.5-7.6,8.2l-3.8,4.1c-0.6,0.7-1.3,1.4-2,2c-0.7,0.6-1.5,1.1-2.3,1.6
			c-1.6,1-3,2.1-4.5,3.2l-4.4,3.3l-8.8,6.5l-17.6,13.1l-70.5,52.3l1.7-11.1l41.9,57.2l10.5,14.3l2.6,3.6c0.9,1.2,1.7,2.4,2.7,3.5
			c1,1.1,1.9,2.2,2.6,3.6c0.7,1.3,1.3,2.7,2,4C7508.1,4652.2,7513.2,4663.1,7517.8,4674.4z"/>
	</g>
	<g>
		<g>
			<path class="st5" d="M7517.8,4674.4c-3.2-2.6-6.3-5.3-9.3-8c-3.1-2.7-6.1-5.5-9.1-8.2l-4.5-4.2l-4.4-4.2c-1.4-1.4-3-2.7-4.2-4.4
				c-0.6-0.8-1.1-1.7-1.6-2.5c-0.5-0.8-1.1-1.6-1.7-2.4l12.9-9.4c0.6,0.8,1.2,1.6,1.8,2.4c0.6,0.8,1.3,1.5,1.9,2.3
				c1.2,1.6,2,3.5,2.9,5.3l2.7,5.5l2.6,5.5c1.7,3.7,3.4,7.4,5.1,11.1C7514.6,4666.8,7516.3,4670.5,7517.8,4674.4z"/>
			<polygon class="st5" points="7454.7,4601.6 7427.6,4564.6 7422.9,4558.2 7429.3,4553.5 7431,4552.2 7440.6,4565 7438.8,4566.3 
				7440.5,4555.2 7467.6,4592.2 			"/>
			
				<rect x="7469.6" y="4507.7" transform="matrix(0.8029 -0.5962 0.5962 0.8029 -1214.8065 5357.7876)" class="st5" width="48" height="16"/>
			<path class="st5" d="M7547.8,4467.8c4.5-2.2,9-4.3,13.5-6.4c2.3-1,4.5-2.1,6.8-3.1c2.3-1,4.6-2.1,6.9-3c-1.6,1.9-3.3,3.8-4.9,5.7
				c-1.6,1.9-3.3,3.8-5,5.6c-3.3,3.7-6.7,7.4-10.1,11.1L7547.8,4467.8z"/>
		</g>
	</g>
	<g>
		<path class="st4" d="M8450.1,3833.9c15.6-14.8,31.5-29.1,47.5-43.3c4-3.5,7.9-7.3,12.4-10.1c2.2-1.5,4.4-3,6.5-4.6l6.5-4.7
			l25.9-18.7l103.5-74.9l0.5-0.4l0.6-0.3l147.1-72.8l73.5-36.4c5.9-3.6,12.5-5.5,18.9-8.1c6.4-2.5,12.9-4.8,19.3-7.2l19.4-7.1
			c3.2-1.2,6.5-2.3,9.7-3.4c3.2-1.2,6.5-2.3,9.8-3.4c-2.9,1.9-5.7,3.8-8.6,5.7c-2.9,1.9-5.8,3.8-8.7,5.7l-17.4,11.1
			c-5.8,3.7-11.6,7.4-17.5,11c-5.9,3.5-11.5,7.6-17.9,10.1l-73.6,36.4l-147.1,72.8l1.1-0.7l-103.5,74.9l-25.9,18.7l-6.5,4.7
			c-2.2,1.5-4.3,3.1-6.4,4.8c-4.1,3.4-8.9,5.9-13.5,8.6C8487.6,3813.1,8469,3823.7,8450.1,3833.9z"/>
	</g>
	<g>
		<g>
			<path class="st5" d="M8450.1,3833.9c2.9-2.8,5.9-5.5,8.8-8.3c2.9-2.8,5.9-5.5,8.9-8.2c5.9-5.4,11.9-10.8,17.9-16.2l6.6,9.1
				c-7,4-14,8-21,11.9c-3.5,2-7,3.9-10.6,5.9C8457.2,3830,8453.6,3832,8450.1,3833.9z"/>
			
				<rect x="8523.3" y="3755.5" transform="matrix(0.81 -0.5864 0.5864 0.81 -583.1592 5726.9238)" class="st5" width="48" height="16"/>
			
				<rect x="8601" y="3699.2" transform="matrix(0.81 -0.5864 0.5864 0.81 -535.3774 5761.8291)" class="st5" width="48" height="16"/>
			
				<rect x="8683.7" y="3651" transform="matrix(0.8963 -0.4435 0.4435 0.8963 -719.5738 4241.1216)" class="st5" width="48" height="16"/>
			
				<rect x="8769.7" y="3608.4" transform="matrix(0.8963 -0.4435 0.4435 0.8963 -691.7696 4274.8643)" class="st5" width="48" height="16"/>
			<path class="st5" d="M8854.7,3577.3l10.8-5.3c3.6-1.8,7.2-3.5,10.7-5.4c1.8-1,3.5-1.9,5.4-2.6c1.9-0.7,3.8-1.4,5.6-2.2l11.3-4.3
				l5.6,11.3l-10.2,6.4c-1.7,1.1-3.4,2.1-5.1,3.2c-1.7,1-3.5,1.9-5.3,2.7c-3.7,1.6-7.2,3.5-10.8,5.2l-10.8,5.3L8854.7,3577.3z"/>
			<path class="st5" d="M8943.8,3541c2.5-0.9,4.9-1.7,7.4-2.6c-2.2,1.4-4.3,2.9-6.5,4.3L8943.8,3541z"/>
		</g>
	</g>
	<g>
		<path class="st4" d="M9671.3,2873.1c3.5-2.3,7-4.5,10.5-6.7c3.5-2.2,7-4.4,10.6-6.6l21.2-13c7.1-4.3,14.2-8.6,21.3-12.8l5.3-3.2
			c1.8-1.1,3.5-2.1,5.4-3.1c3.7-1.9,7.5-3.4,11.2-5.2l89-43.4l-1.9,1.3c1.2-1.1,2.5-2.3,3.7-3.5l3.7-3.7c2.5-2.5,4.9-5,7.4-7.5
			c4.9-5.1,9.7-10.2,14.4-15.5c9.4-10.5,18.5-21.3,27.1-32.5c17.3-22.3,33.1-45.7,46.5-70.3c13.4-24.6,24.4-50.5,31.1-77.5
			c3.4-13.4,5.6-27.1,6.5-40.8c0.4-6.9,0.5-13.7,0.2-20.6c-0.3-6.8-1-13.6-2.1-20.4l0.3,1.3l-10.6-31.5c-1.7-5.3-4-10.3-5.2-15.8
			l-4-16.2l-3.9-16.2l-3.8-16.2c-2.6-10.8-5-21.7-7.4-32.6c4.7,10.1,9.4,20.2,13.9,30.4l6.8,15.2l6.7,15.3l6.6,15.3
			c2.4,5,3.5,10.5,5.4,15.7l10.6,31.5l0.2,0.7l0.1,0.6c1.1,7.4,1.9,14.8,2.2,22.2c0.3,7.4,0.2,14.9-0.2,22.3
			c-1,14.8-3.4,29.4-6.9,43.7c-7.2,28.6-18.7,55.7-32.6,81.2c-13.9,25.6-30.2,49.7-48,72.5c-8.9,11.4-18.2,22.5-27.8,33.3
			c-4.8,5.4-9.7,10.7-14.8,15.9c-2.5,2.6-5.1,5.2-7.6,7.8l-3.9,3.8c-1.3,1.3-2.6,2.5-4,3.8l-0.8,0.8l-1.1,0.5l-89,43.4
			c-3.7,1.8-7.3,3.9-11,5.6c-1.9,0.9-3.8,1.6-5.7,2.3l-5.8,2.2c-7.7,3-15.5,6-23.2,8.9l-23.3,8.7c-3.9,1.5-7.8,2.8-11.7,4.2
			C9679.1,2870.4,9675.2,2871.8,9671.3,2873.1z"/>
	</g>
	<g>
		<g>
			<path class="st5" d="M9671.3,2873.1c3.4-2.2,6.8-4.3,10.2-6.5c3.4-2.1,6.8-4.3,10.2-6.4l20.5-12.6l4.3,8.9l-22.6,8.4
				c-3.8,1.4-7.6,2.7-11.3,4.1C9678.8,2870.5,9675.1,2871.8,9671.3,2873.1z"/>
			<path class="st5" d="M9754,2823.9c3.6-1.7,7.2-3.5,10.8-5.2l10.8-5.3l21.6-10.5l7,14.4l-21.6,10.5l-10.8,5.3
				c-3.6,1.8-7.2,3.5-10.8,5.3L9754,2823.9z"/>
			<path class="st5" d="M9840.3,2781.8l5.5-2.7l-1.9,1.3c2.4-2.2,4.9-4.7,7.3-7.1c2.4-2.4,4.8-4.9,7.2-7.3c4.8-5,9.5-10,14.1-15.1
				l11.9,10.7c-4.7,5.3-9.5,10.4-14.5,15.5c-2.5,2.5-4.9,5.1-7.5,7.6c-2.5,2.5-5,5-7.8,7.5l-0.8,0.8l-1.1,0.5l-5.5,2.7
				L9840.3,2781.8z"/>
			<path class="st5" d="M9902.8,2714.5c9.6-12.5,18.7-25.4,27.2-38.7l13.5,8.6c-8.8,13.7-18.1,26.9-28,39.8L9902.8,2714.5z"/>
			<path class="st5" d="M9953.4,2634.9c7-14,13.2-28.4,18.2-43.2l15.2,5.1c-5.3,15.6-11.7,30.6-19,45.2L9953.4,2634.9z"/>
			<path class="st5" d="M9982.7,2546.5c2.2-15.3,2.9-30.7,1.5-46l15.9-1.4c1.5,16.6,0.8,33.4-1.6,49.7L9982.7,2546.5z"/>
			<path class="st5" d="M9971.7,2456.3c-1.3-3.8-2.9-7.5-3.9-11.3c-1-3.9-1.9-7.8-2.9-11.7l-2.9-11.7l-2.8-11.7l9.5-3.2l4.9,11
				l4.8,11c1.6,3.7,3.2,7.4,4.8,11.1c1.5,3.7,2.4,7.6,3.7,11.4L9971.7,2456.3z"/>
			<polygon class="st5" points="9948.4,2362.9 9948,2361.1 9948.8,2362.8 			"/>
		</g>
	</g>
	<g>
		<path class="st4" d="M10080.2,1839.6c-3-5.1-5.3-10.5-7.3-16c-2-5.5-3.7-11.2-5.1-17.1c-0.1-0.7-0.2-1.5-0.2-2.2
			c0-0.7,0.1-1.5,0.1-2.2c0.1-1.5,0-2.9,0.1-4.4c0-2.9,0.1-5.9,0.3-8.8c0.4-5.9,1-11.7,2-17.6c1.9-11.7,5.2-23.2,10.1-34.2
			c4.9-11,11.4-21.3,19.3-30.4c3.9-4.6,8.3-8.8,12.9-12.6c4.6-3.9,9.4-7.5,14.5-10.6c5-3.2,10.3-6.1,15.6-8.6
			c2.7-1.3,5.4-2.4,8.1-3.6c1.4-0.6,2.8-1.1,4.1-1.6c1.4-0.5,2.8-1.1,4.2-1.5c11.1-3.8,22.5-6.6,34-8.5c3,0.1,5.9,0.3,8.8,0.5
			c2.9,0.3,5.9,0.5,8.8,0.9c2.9,0.4,5.8,0.8,8.7,1.3c2.9,0.6,5.7,1.1,8.6,1.8l-16.4,5.5l-8,2.9l-7.8,3c-10.7,1.8-21.2,4.4-31.4,7.9
			c-1.3,0.4-2.5,0.9-3.8,1.4c-1.2,0.5-2.5,0.9-3.7,1.4c-2.4,1.1-4.9,2-7.3,3.2c-4.8,2.2-9.5,4.8-13.9,7.6c-4.5,2.8-8.7,5.9-12.7,9.3
			c-4,3.4-7.7,7-11.2,11c-6.8,7.9-12.5,16.8-16.7,26.4c-4.3,9.6-7.2,19.8-8.9,30.3c-0.9,5.2-1.5,10.6-1.8,15.9
			c-0.2,2.7-0.3,5.4-0.3,8c0,1.3-0.1,2.7,0.1,4c0.1,1.3,0.3,2.7,0.1,4C10082.1,1816.8,10080.8,1828,10080.2,1839.6z"/>
	</g>
	<g>
		<g>
			<path class="st5" d="M10080.2,1839.6c-2.1-3.6-3.9-7.4-5.5-11.3c-1.6-3.9-3-7.8-4.2-11.9c-0.6-2-1.2-4.1-1.7-6.1
				c-0.5-2.1-1.2-4.1-1.1-6.2l0.1-3.1l0-3.1c0-2.1,0.1-4.2,0.2-6.3l16,0.7c0,1.9-0.1,3.8-0.1,5.7c0,1,0,1.9,0,2.9
				c0,1,0.2,1.9,0.2,2.9c0.1,1,0,1.9-0.2,2.9l-0.5,2.9c-0.3,1.9-0.6,3.9-0.9,5.9c-0.6,3.9-1,7.9-1.4,11.9
				C10080.7,1831.4,10080.4,1835.4,10080.2,1839.6z"/>
			<path class="st5" d="M10078.1,1742.2c3.1-7.9,7.1-15.6,11.8-22.7c4.7-7.2,10.2-13.8,16.4-19.8l11.2,11.5
				c-5.3,5.2-10.1,10.9-14.2,17.1c-4.1,6.2-7.5,12.9-10.3,19.8L10078.1,1742.2z"/>
			<path class="st5" d="M10148.8,1672.1c7.8-3.2,15.7-5.9,23.8-8c4-1.1,8.1-2,12.1-2.8l3-0.6c1-0.2,2-0.6,3-0.7
				c1-0.2,2.1-0.2,3.1-0.1l3.2,0.1l2.1,14.1l-2.8,1.1c-0.9,0.4-1.8,0.8-2.8,0.9c-1,0.1-1.9,0.2-2.9,0.3c-1,0.2-1.9,0.4-2.8,0.5
				c-3.8,0.8-7.5,1.6-11.2,2.6c-7.4,2-14.7,4.4-21.7,7.3L10148.8,1672.1z"/>
		</g>
	</g>
	<g>
		<path class="st4" d="M13644,2146c3.6-2.3,7.3-4.4,10.8-6.7l5.2-3.5c1.7-1.2,3.5-2.2,5.1-3.5l5-3.6c0.8-0.6,1.7-1.2,2.5-1.8
			l2.4-1.9l4.7-3.8c0.8-0.6,1.5-1.3,2.3-1.8c0.8-0.6,1.7-1,2.6-1.5c1.7-1,3.4-2.1,4.9-3.3l4.7-3.6c1.5-1.2,3-2.6,4.5-3.8l2.2-1.9
			l2.1-2.1c5.7-5.4,10.8-11.4,15.3-17.8c9-12.8,15.2-27.4,18.6-42.8c1.7-7.7,2.7-15.5,3-23.4c0.2-3.9,0.1-7.9-0.1-11.8
			c-0.1-2-0.2-3.9-0.4-5.8c-0.1-1-0.2-1.9-0.3-2.9l-0.2-1.4l-0.2-1.2l-0.1-0.8l0-1l0-0.8c0-0.3,0-0.7,0-1c0-0.7-0.1-1.4-0.2-2.2
			l-0.2-2.2l-0.3-2.2c-0.5-3-1.1-5.9-1.9-8.8c-1.6-5.8-3.7-11.6-6.4-17c-5.3-11-12.9-20.8-21.8-29.3c-4.4-4.3-9.3-8-14.4-11.6
			l-3.9-2.6c-1.3-0.9-2.6-1.7-4-2.4c-1.4-0.7-2.7-1.5-4-2.5l-3.8-2.9c-10.3-7.6-21.6-14.3-33.6-20.4c13.4,0.8,26.9,3.3,40.1,7.7
			l5,1.7c1.7,0.6,3.1,1.5,4.6,2.5c1.4,1,3,1.8,4.4,2.8l4.4,2.9c5.7,4,11.2,8.3,16.3,13.2c10.2,9.7,18.9,21.1,25.1,33.9
			c3.1,6.4,5.6,13.1,7.5,19.9c0.9,3.4,1.7,6.9,2.2,10.5l0.4,2.7l0.3,2.7c0.1,0.9,0.2,1.8,0.2,2.8c0,0.5,0,0.9,0.1,1.4l0,0.8v0.9
			l-0.2-1.8l0.2,1l0.1,0.9l0.2,1.7c0.1,1.1,0.3,2.2,0.4,3.4c0.2,2.2,0.4,4.4,0.5,6.7c0.2,4.4,0.3,8.8,0.1,13.2
			c-0.3,8.8-1.4,17.6-3.4,26.2c-3.8,17.2-10.8,34-21.1,48.5c-5.1,7.3-10.8,14.1-17.3,20.2l-2.4,2.3l-2.5,2.2
			c-1.7,1.4-3.3,2.9-5.1,4.3c-3.5,2.6-7,5.4-10.7,7.8c-1.8,1.3-3.5,2.7-5.6,3.5l-6.2,2.4l-3.1,1.2c-1,0.4-2.1,0.7-3.1,1l-6.2,1.9
			c-2.1,0.7-4.2,1.1-6.3,1.6l-6.3,1.4c-2.1,0.4-4.3,0.7-6.4,1C13648.2,2145.5,13646.1,2145.8,13644,2146z"/>
	</g>
	<g>
		<g>
			<path class="st5" d="M13644,2146c3.5-2.1,7-4.2,10.4-6.4c3.4-2.2,6.7-4.4,10-6.7c3.3-2.3,6.4-4.6,9.5-7c1.5-1.2,3-2.4,4.5-3.7
				c1.5-1.3,2.9-2.6,4.6-3.5l8.9,13.8c-0.9,0.6-1.8,1.2-2.7,1.6c-1,0.4-1.9,0.8-2.9,1.2c-2,0.8-3.9,1.6-5.9,2.3c-4,1.4-8,2.7-12,3.8
				c-4,1.1-8.1,2-12.1,2.8C13652.1,2145,13648,2145.6,13644,2146z"/>
			<path class="st5" d="M13716,2088.5c9-12,15.6-25.7,19.5-40.2l15.5,4.2c-2.2,8.2-5.2,16.2-8.9,23.9c-3.7,7.7-8.1,15-13.2,21.8
				L13716,2088.5z"/>
			<path class="st5" d="M13739.6,2003.5c-0.1-1.3-0.2-2.6-0.4-3.9l-0.3-1.9l-0.1-0.9l-0.1-0.8l-0.1-0.8l0-1l0-0.8l0-1
				c0-0.7-0.1-1.4-0.2-2.2c-0.1-1.5-0.3-2.9-0.6-4.4c-0.5-3-1.1-5.9-1.9-8.8c-0.8-2.9-1.7-5.8-2.8-8.7c-0.5-1.4-1.1-2.8-1.7-4.2
				c-0.6-1.4-1.3-2.8-1.9-4.2l14.4-7c0.7,1.6,1.5,3.2,2.2,4.8c0.7,1.6,1.4,3.3,2,4.9c1.3,3.3,2.3,6.7,3.3,10.2
				c0.9,3.4,1.7,7,2.2,10.5c0.3,1.8,0.5,3.6,0.7,5.4c0.1,0.9,0.2,1.8,0.2,2.8c0,0.5,0.1,0.9,0.1,1.4l0,0.8l0,0.9l-0.2-1.8l0.2,1.3
				l0.2,1.2l0.3,2.3c0.2,1.5,0.3,3,0.5,4.5L13739.6,2003.5z"/>
			<path class="st5" d="M13701.7,1925.4c-2.9-2.4-5.9-4.6-9-6.8c-1.6-1.1-3.1-2.1-4.7-3.1c-1.6-1.1-3.4-1.7-5-2.8
				c-1.6-1.1-3-2.3-4.6-3.5c-1.5-1.2-3.1-2.3-4.7-3.4c-3.2-2.3-6.5-4.4-9.9-6.5l3.2-8c4.1,0.8,8.1,1.9,12.2,3c2,0.6,4,1.2,6,1.9
				c1,0.3,2,0.7,3,1c1,0.4,2,0.7,2.9,1.2c0.9,0.5,1.8,1.1,2.7,1.7c0.9,0.6,1.8,1.2,2.7,1.7c1.8,1.1,3.6,2.3,5.3,3.5
				c3.5,2.4,6.9,4.9,10.2,7.6L13701.7,1925.4z"/>
		</g>
	</g>
	<g>
		<path class="st4" d="M11747.5,2382.4c-25.5,6.8-50,16.1-74,26.2c-24.6,8-48.7,17.9-72,29.1c-46.7,22.5-90.6,50.9-130.5,84.1
			c-10,8.3-19.7,16.9-29.2,25.8c-9.5,8.8-18.7,18-27.7,27.4l-6.7,7.1c-2.2,2.4-4.4,4.8-6.5,7.2l-3.3,3.6l-3.2,3.7l-6.4,7.4
			c-8.3,10-16.6,20-24.4,30.4c-4,5.1-7.8,10.4-11.6,15.7c-1.9,2.6-3.7,5.3-5.6,8c-1.8,2.7-3.7,5.3-5.6,8l-5.4,8.1l-2.7,4.1l-2.6,4.1
			c-1.7,2.8-3.5,5.5-5.2,8.2c-0.9,1.4-1.6,2.8-2.4,4.2c-0.8,1.4-1.7,2.7-2.7,4.1c-1.9,2.6-3.9,5.2-5.8,7.9l-5.7,8
			c-3.9,5.3-7.4,10.8-11.2,16.2c-1.9,2.7-3.7,5.4-5.5,8.2l-5.5,8.2c-3.7,5.5-7.1,11.1-10.8,16.6c1.1-3.1,2.2-6.2,3.4-9.3
			c1.1-3.1,2.2-6.2,3.4-9.3l3.7-9.2c1.2-3.1,2.4-6.2,3.8-9.2c2.6-6.1,5.2-12.2,8-18.2l4.2-9.1c1.4-3,2.9-6,4.4-9
			c1.5-3,3.3-5.8,5.2-8.5c1.8-2.8,3.6-5.6,5.4-8.4l2.7-4.2l2.8-4.1l5.5-8.3c1.9-2.8,3.8-5.5,5.7-8.2c1.9-2.7,3.8-5.5,5.7-8.1
			c3.9-5.4,7.8-10.8,11.9-16c8-10.6,16.4-20.9,24.9-31.1l6.5-7.5l3.3-3.8l3.3-3.7c2.2-2.5,4.4-4.9,6.7-7.4l6.8-7.3
			c9.2-9.6,18.6-19,28.3-28.1c9.7-9.1,19.6-17.9,29.9-26.4c40.9-34,85.9-63.1,133.8-86.3c12-5.8,24.1-11.2,36.5-16.2l9.3-3.7
			c3.1-1.2,6.2-2.4,9.3-3.5c3.1-1.2,6.3-2.3,9.4-3.4c3.1-1.2,6.2-2.4,9.5-3.2c13-3.1,26.1-5.7,39.3-7.6
			C11720.9,2383.8,11734.2,2382.5,11747.5,2382.4z"/>
	</g>
	<g>
		<g>
			<path class="st5" d="M11747.5,2382.4c-3.9,1-7.8,2.1-11.6,3.2c-3.8,1.2-7.6,2.4-11.4,3.6c-3.8,1.3-7.6,2.6-11.3,3.9
				c-3.8,1.3-7.5,2.7-11.2,4.1l-2.7-10.2c4-0.7,8-1.3,12-1.8c4-0.6,8-1,12.1-1.4c4-0.4,8.1-0.7,12.1-1
				C11739.4,2382.6,11743.4,2382.4,11747.5,2382.4z"/>
			<path class="st5" d="M11657.5,2414.1c-14.8,5.4-29.5,11.4-43.8,17.9l-6.6-14.6c14.7-6.7,29.8-12.9,45-18.4L11657.5,2414.1z"/>
			<path class="st5" d="M11571.3,2453.4c-13.8,7.6-27.4,15.8-40.6,24.4l-8.7-13.4c13.6-8.9,27.5-17.2,41.6-25L11571.3,2453.4z"/>
			<path class="st5" d="M11492,2505.1c-12.6,9.6-24.8,19.6-36.6,30.1l-10.6-12c12.1-10.7,24.6-21,37.5-30.9L11492,2505.1z"/>
			<path class="st5" d="M11421,2567.9c-11.1,11.3-21.7,23-32,35l-12.2-10.4c10.5-12.3,21.4-24.3,32.8-35.8L11421,2567.9z"/>
			<path class="st5" d="M11359.4,2640c-9.5,12.7-18.5,25.7-27.1,39l-13.4-8.7c8.8-13.6,18-26.8,27.7-39.8L11359.4,2640z"/>
			<path class="st5" d="M11305.7,2718.5l-6.8,9.8c-2.3,3.3-4.5,6.6-6.8,9.9l-6.6,10c-2.2,3.3-4.4,6.7-6.6,10.1l-1.4-0.7
				c1.4-3.8,2.8-7.6,4.2-11.3c1.4-3.8,2.9-7.5,4.4-11.3c1.5-3.7,3.1-7.5,4.6-11.2c1.6-3.7,3.2-7.4,4.9-11.1L11305.7,2718.5z"/>
		</g>
	</g>
	<g>
		<path class="st4" d="M11002.7,2674.3c-1.7,9.8-4.2,19.5-7.1,29c-2.9,9.5-6.1,19-9.7,28.3c-9.3,17.5-19.3,34.7-30.1,51.3
			c-10.8,16.6-22.4,32.7-34.6,48.3c-12.3,15.6-25.3,30.5-39,44.9c-27.3,28.8-57.4,54.8-89.6,78.1l-12.2,8.4l-6.1,4.2l-6.3,4l-12.5,8
			c-2.1,1.3-4.3,2.5-6.4,3.8c-1,0.7-2.1,1.4-3.1,2c-1.1,0.6-2.2,1.2-3.3,1.7c-9.1,4.1-18.5,7.6-27.8,11.1
			c-9.3,3.4-18.9,6.3-28.3,9.2c4.1-2.9,8.2-5.6,12.2-8.4c4.1-2.8,8.2-5.4,12.1-8.3c7.9-5.8,16-11.2,23.7-17.3c1-0.7,2-1.4,3-2
			c1.1-0.6,2.1-1.1,3.2-1.7c1.1-0.6,2.1-1.2,3.2-1.8c1-0.6,2.1-1.2,3.1-1.9l12.2-7.8l6.1-3.9l6-4.1l11.9-8.2
			c31.3-22.6,60.7-48,87.3-76.1c13.3-14,26-28.6,38-43.8c11.9-15.2,23.2-30.9,33.8-47.1c1.3-2,2.7-4,3.9-6.1l3.8-6.2
			c2.6-4.1,5-8.3,7.5-12.4c2.5-4.1,4.8-8.4,7.2-12.6c1.2-2.1,2.3-4.2,3.4-6.4c1-2.2,2-4.4,3.4-6.4c2.7-4,5.5-8.1,8.1-12.2
			c2.7-4.1,5.3-8.2,7.9-12.3c2.6-4.2,5.2-8.3,7.7-12.5C10997.8,2682.9,11000.2,2678.6,11002.7,2674.3z"/>
	</g>
	<g>
		<g>
			<path class="st5" d="M11002.7,2674.3c-0.6,4-1.6,8-2.5,11.9c-0.9,4-2,7.9-3.1,11.8c-1.1,3.9-2.3,7.8-3.5,11.7
				c-1.3,3.9-2.5,7.8-3.9,11.6l-12.2-6.1c2.2-3.3,4.4-6.7,6.5-10c2.1-3.4,4.3-6.7,6.4-10.2c2.1-3.4,4.2-6.8,6.2-10.3
				C10998.7,2681.4,11000.7,2677.9,11002.7,2674.3z"/>
			<path class="st5" d="M10967.3,2764.5c-8.4,13.9-17.3,27.4-26.6,40.6l-13-9.3c9.1-12.9,17.8-26.1,26-39.6L10967.3,2764.5z"/>
			<path class="st5" d="M10911.1,2843.7c-10.3,12.5-21.2,24.5-32.4,36.2l-11.5-11.1c11-11.4,21.5-23.1,31.6-35.3L10911.1,2843.7z"/>
			<path class="st5" d="M10843.6,2913.5c-12.1,10.8-24.7,21-37.6,30.8l-9.7-12.8c12.6-9.5,24.8-19.6,36.6-30L10843.6,2913.5z"/>
			<path class="st5" d="M10766.1,2972.2c-3.4,2.2-6.8,4.3-10.3,6.5l-5.2,3.2c-1.7,1-3.4,2.2-5.1,3.3c-1.7,1-3.7,1.8-5.5,2.6
				l-5.6,2.4c-3.8,1.6-7.6,3.1-11.3,4.5l-5.1-9.6l9.7-7l4.8-3.6c1.6-1.2,3.1-2.5,4.9-3.4c1.7-1,3.5-1.8,5.2-2.9l5.1-3.1
				c3.4-2.1,6.7-4.2,10-6.3L10766.1,2972.2z"/>
		</g>
	</g>
	<g>
		<path class="st4" d="M8609.6,4325.8c-6.5,5.2-13,10.3-19.5,15.3l-19.5,14.9c-1.6,1.2-3.5,2.1-5.3,3c-1.8,0.9-3.5,2-5.2,3
			c-3.5,2-6.9,4.1-10.3,6.2c-6.8,4.2-13.5,8.5-20.1,13c-13.1,9-25.4,18.9-36.2,30.1c-5.4,5.6-10.4,11.5-14.8,17.8
			c-4.4,6.3-8.3,12.9-11.6,19.8c-6.5,13.8-10.3,28.8-11.5,44.2c-1.3,15.4-0.3,31.1,2.3,46.6c1.2,7.8,2.9,15.5,4.8,23.2
			c0.9,3.9,2,7.7,3.1,11.5c0.6,1.9,1.1,3.8,1.7,5.7c0.3,0.9,0.7,1.9,1,2.8c0.3,0.9,0.6,1.9,0.7,2.9c2.6,15.9,6.2,31.9,9.6,48.1
			c-4.6-6.9-9.1-13.9-13.2-21.1c-2.1-3.6-4-7.3-6-10.9c-1.9-3.7-3.8-7.4-5.6-11.2c-0.9-1.9-1.4-3.9-1.9-5.9c-0.5-2-1.2-4-1.7-6
			c-1.1-4-2.2-8-3.2-12c-2-8.1-3.8-16.2-5.1-24.5c-2.7-16.5-3.8-33.5-2.4-50.6c1.4-17,5.7-34,13-49.7c3.7-7.8,8.1-15.3,13-22.3
			c5-7,10.5-13.5,16.4-19.6c11.8-12.2,25-22.7,38.6-32.2c6.8-4.7,13.8-9.2,20.8-13.5c3.5-2.2,7.1-4.3,10.6-6.3c1.8-1,3.6-2,5.3-3.1
			c1.7-1.1,3.4-2.3,5.3-3.1c3.9-1.5,7.7-3,11.6-4.4c3.9-1.4,7.8-2.8,11.7-4.1C8593.8,4330.6,8601.6,4328.1,8609.6,4325.8z"/>
	</g>
	<g>
		<g>
			<path class="st5" d="M8609.6,4325.8c-3.1,2.6-6.3,5.1-9.5,7.7c-3.2,2.5-6.4,5-9.6,7.5c-6.4,4.9-12.9,9.7-19.3,14.5l-7.8-13.9
				c7.6-2.8,15.3-5.6,23-8.2c3.8-1.3,7.7-2.6,11.6-3.9C8601.8,4328.2,8605.7,4327,8609.6,4325.8z"/>
			<path class="st5" d="M8530.9,4380.2c-12.9,8.9-25.1,18.5-35.9,29.4l-11.4-11.3c11.7-11.9,24.8-22.1,38.3-31.3L8530.9,4380.2z"/>
			<path class="st5" d="M8468.3,4446.1c-6.7,13.5-10.8,28.1-12.4,43.2l-15.9-1.7c0.9-8.4,2.5-16.7,4.8-24.9
				c2.3-8.2,5.4-16.1,9.2-23.7L8468.3,4446.1z"/>
			<path class="st5" d="M8457.1,4535.2c1.1,7.7,2.6,15.3,4.4,22.9c0.9,3.8,1.8,7.6,2.9,11.4l1.6,5.6c0.6,1.9,1.1,3.8,1.7,5.6
				l-15.4,4.7c-0.5-2-1.1-3.9-1.7-5.9c-0.6-2-1.1-3.9-1.7-5.9c-1.1-3.9-2.1-7.9-3-11.9c-1.9-8-3.4-16.1-4.6-24.3L8457.1,4535.2z"/>
			<path class="st5" d="M8477.4,4627.6c0.5,2,0.9,4.1,1.3,6.2c-1.2-1.7-2.3-3.5-3.5-5.3L8477.4,4627.6z"/>
		</g>
	</g>
	<g>
		<path class="st4" d="M8500.6,5511.5c3.3,9.2,5.7,18.6,7.6,28.2c1.9,9.6,3.3,19.3,4.2,29.1c0.1,1.2,0.1,2.5,0,3.7
			c-0.1,1.2-0.2,2.4-0.3,3.7c-0.2,2.4-0.3,4.9-0.5,7.3l-0.6,7.3c-0.2,2.4-0.4,4.9-0.7,7.3c-1.1,9.7-2.5,19.4-4.5,29.1
			c-3.9,19.2-9.7,38.2-17.5,56.3c-3.9,9.1-8.4,17.9-13.4,26.4c-5,8.5-10.6,16.8-16.6,24.6c-6.1,7.8-12.5,15.4-19.6,22.4
			c-7,7-14.4,13.6-22.2,19.7c-7.8,6-16,11.6-24.4,16.8l-6.4,3.7l-3.2,1.8l-3.3,1.7c-2.2,1.1-4.3,2.3-6.5,3.4l-6.7,3.2
			c-2.2,1.1-4.5,2.1-6.7,3s-4.5,2-6.8,2.9l-6.9,2.7l-3.4,1.3l-3.5,1.2l-6.9,2.4c-2.3,0.8-4.7,1.5-7,2.2l-7,2.2
			c-1.2,0.4-2.3,0.8-3.5,1.1c-1.2,0.3-2.4,0.6-3.6,0.8l-3.6,0.5l-3.7,0.4l-7.3,0.8c-2.4,0.3-4.9,0.4-7.3,0.6
			c-2.4,0.2-4.9,0.3-7.3,0.5c-4.9,0.2-9.7,0.3-14.6,0.5c-4.9-0.1-9.7-0.1-14.6-0.2c4.6-1.5,9.3-2.8,13.9-4.2
			c4.6-1.5,9.2-2.9,13.7-4.4c4.5-1.7,9-3.1,13.5-4.8l6.7-2.5l3.3-1.3l3.3-1.4c1.1-0.4,2.2-0.8,3.3-1.1c1.1-0.3,2.3-0.5,3.4-0.8
			c1.1-0.2,2.3-0.6,3.4-1l3.3-1c2.2-0.7,4.5-1.4,6.7-2.1l6.6-2.3l3.3-1.2l3.3-1.3l6.5-2.5c2.1-0.9,4.3-1.8,6.4-2.8
			c2.1-0.9,4.3-1.8,6.4-2.9l6.3-3c2.1-1,4.1-2.2,6.2-3.2l3.1-1.6l3-1.7l6-3.5c7.9-4.9,15.5-10.1,22.9-15.7
			c7.3-5.7,14.2-11.8,20.7-18.4c6.5-6.5,12.6-13.5,18.2-20.8c5.6-7.3,10.8-15,15.5-22.9c4.7-8,8.8-16.3,12.5-24.7
			c7.4-17,12.8-34.8,16.5-53.1c1.8-9.1,3.3-18.4,4.3-27.6c0.3-2.3,0.5-4.6,0.7-7l0.5-7c0.1-2.3,0.3-4.7,0.3-7c0-2.3-0.1-4.7,0.2-7
			C8498.9,5549.8,8500.5,5530.8,8500.6,5511.5z"/>
	</g>
	<g>
		<g>
			<path class="st5" d="M8500.6,5511.5c1.4,3.8,2.5,7.7,3.7,11.6c1.1,3.9,2.1,7.9,2.9,11.9c0.8,4,1.7,8,2.3,12.1
				c0.7,4,1.3,8.1,1.8,12.2l-13.9,0.1c0.4-3.9,0.9-7.9,1.3-11.8c0.4-4,0.7-7.9,1-11.9c0.3-4,0.5-8,0.6-12
				C8500.5,5519.5,8500.6,5515.5,8500.6,5511.5z"/>
			<path class="st5" d="M8509.2,5608.2c-2.3,16.2-5.8,32.4-10.7,48.1l-15.3-4.8c4.6-14.8,7.9-30.1,10.1-45.5L8509.2,5608.2z"/>
			<path class="st5" d="M8479.5,5701.9c-7.8,14.6-17.1,28.4-27.8,41l-12.2-10.3c10-11.8,18.6-24.6,25.9-38.3L8479.5,5701.9z"/>
			<path class="st5" d="M8415.8,5777.3c-13.1,10.1-27.2,18.9-41.9,26.3l-7.2-14.3c13.9-7,27.1-15.2,39.3-24.7L8415.8,5777.3z"/>
			<path class="st5" d="M8328.4,5822.1c-2,0.6-3.9,1.2-5.9,1.8c-2,0.6-3.9,1.2-5.9,1.8c-3.8,1.5-8,1.7-12.1,2.3
				c-4.1,0.5-8.1,0.9-12.2,1.3c-4.1,0.4-8.1,0.6-12.2,0.8l-1.5-8c3.8-1.3,7.6-2.6,11.3-3.9c3.7-1.4,7.5-2.7,11.1-4.2
				c3.7-1.4,7.3-3.2,11.1-3.9c1.9-0.4,3.8-1,5.7-1.5c1.9-0.6,3.7-1.1,5.6-1.7L8328.4,5822.1z"/>
		</g>
	</g>
	<g>
		<path class="st4" d="M5900.3,5991.2c-11.7,3-23.7,5.1-35.7,6.7c-12,1.7-24.1,2.8-36.2,3.7c-3,0.2-6-0.1-9.1-0.3
			c-1.5-0.1-3-0.2-4.5-0.2l-4.5-0.2l-9-0.5c-3-0.2-6-0.4-9-0.6l-9-0.7l-9-0.9c-3-0.3-6-0.6-9-0.9l-9-1.1c-24-2.8-47.8-6.7-71.5-11.6
			c-23.7-4.8-47.1-10.8-70.2-17.6l-8.7-2.6l-4.3-1.3l-4.3-1.4l-17.2-5.7c-5.7-2-11.4-4.1-17-6.1l-8.5-3.1l-8.4-3.3
			c-5.6-2.2-11.2-4.4-16.8-6.7l-16.6-7.2l-4.2-1.8l-2.1-0.9l-2-1l-8.2-3.9l-8.2-3.9l-4.1-1.9c-1.4-0.6-2.7-1.3-4.1-2l-16.1-8.2
			c-2.7-1.4-5.4-2.7-8-4.2l-7.9-4.4l-15.8-8.8c-2.6-1.5-5.2-3.1-7.8-4.6c-1.3-0.7-2.7-1.4-4-2.2c-1.3-0.8-2.6-1.6-3.8-2.5
			c-9.8-7-19.2-14.8-28.6-22.4c-9.3-7.7-18.2-15.9-27.1-23.9c5.4,2.8,10.7,5.6,16,8.4l7.9,4.3c1.3,0.7,2.6,1.4,4,2.1l4,2
			c5.4,2.6,10.7,5.4,16,8.1c2.7,1.3,5.3,2.8,8,4l8.1,3.8c1.3,0.6,2.6,1.3,3.9,2.1c1.3,0.8,2.5,1.6,3.7,2.4c2.5,1.6,5.1,3.1,7.6,4.6
			l15.5,8.6l7.8,4.3c2.6,1.4,5.3,2.7,7.9,4.1l15.8,8.1c1.3,0.7,2.6,1.3,4,1.9l4,1.9l8,3.8l8,3.8l2,0.9l2,0.9l4.1,1.8l16.3,7
			c5.5,2.3,11,4.4,16.5,6.6l8.3,3.3l8.3,3c5.6,2,11.1,4.1,16.7,6l16.9,5.6l4.2,1.4l4.3,1.3l8.5,2.5c22.7,6.7,45.7,12.6,68.9,17.3
			c23.2,4.8,46.6,8.6,70.1,11.4l8.8,1c2.9,0.3,5.9,0.6,8.8,0.9l8.8,0.8l8.9,0.7c3,0.2,5.9,0.5,8.9,0.6l8.9,0.5
			c3,0.2,5.9,0.3,8.9,0.3c3,0,5.9-0.1,8.9,0.3c11.8,1.4,23.6,2.7,35.5,3.7l8.9,0.7l9,0.6C5888.3,5990.8,5894.3,5991,5900.3,5991.2z"
			/>
	</g>
	<g>
		<g>
			<path class="st5" d="M5900.3,5991.2c-3.9,1-7.9,1.9-11.8,2.7c-4,0.8-7.9,1.5-11.9,2.2c-4,0.7-8,1.3-12,1.8c-4,0.6-8,1-12.1,1.5
				l-0.1-11.4l11.9,1.1c4,0.3,8,0.6,12,0.9c4,0.3,8,0.5,12,0.7C5892.3,5990.9,5896.3,5991.1,5900.3,5991.2z"/>
			<path class="st5" d="M5804,6000.4c-16.1-0.9-32.2-2.4-48.3-4.3l1.9-15.9c15.7,1.9,31.5,3.3,47.3,4.2L5804,6000.4z"/>
			<path class="st5" d="M5707.8,5989c-15.9-2.8-31.7-6.1-47.4-9.8l3.7-15.6c15.4,3.7,30.9,6.9,46.6,9.6L5707.8,5989z"/>
			<path class="st5" d="M5613.5,5966.7c-15.5-4.6-30.8-9.7-46-15.1l5.4-15.1c14.9,5.4,30,10.3,45.2,14.8L5613.5,5966.7z"/>
			<path class="st5" d="M5522.4,5933.9c-14.9-6.3-29.5-13.1-44-20.3l7.1-14.3c14.2,7,28.6,13.7,43.2,19.9L5522.4,5933.9z"/>
			<path class="st5" d="M5435.6,5890.9l-10.5-6.1c-1.8-1-3.6-1.9-5.3-2.9c-1.7-1-3.4-2.2-5-3.4c-3.2-2.4-6.5-4.9-9.7-7.4
				c-3.2-2.5-6.4-5-9.5-7.5l5.8-9l10.7,5.3c3.6,1.8,7.2,3.5,10.8,5.2c1.8,0.8,3.6,1.7,5.3,2.7c1.7,1,3.3,2.2,5,3.2
				c3.4,2,6.8,4,10.3,6L5435.6,5890.9z"/>
		</g>
	</g>
	<g>
		<path class="st4" d="M2195.2,4428.1c12.1,1.8,23.9,2.2,35.5,2.2c1.4,0.1,2.8,0.4,4.2,0.8c1.4,0.3,2.8,0.6,4.2,0.8
			c2.8,0.4,5.7,0.8,8.5,1.1l4.3,0.5l4.3,0.3c1.4,0.1,2.9,0.2,4.3,0.3l4.3,0.2c11.5,0.5,23,0.2,34.5-0.7c2.9-0.3,5.8-0.4,8.6-0.8
			l8.6-1c5.7-0.9,11.4-1.7,17.1-2.8c22.8-4.2,45.1-11,66.9-19.2l4.1-1.5l4-1.7l8.1-3.3l2-0.8l2-0.9l4-1.8c1.3-0.6,2.7-1.2,4-1.8
			c0.6-0.3,1.3-0.7,1.9-1c0.7-0.3,1.3-0.6,2.1-0.7c2.9-0.7,5.8-1.5,8.7-2.2c2.9-0.7,5.8-1.5,8.8-2.2c5.8-1.6,11.7-3.1,17.7-4.5
			c-4.5,4.1-9.1,8.2-13.8,12.1c-4.8,3.8-9.6,7.5-14.5,11.2c-0.6,0.4-1.3,0.8-2,1.1c-0.7,0.3-1.4,0.5-2.1,0.8
			c-1.4,0.5-2.8,1.2-4.1,1.8l-4.1,1.9l-2.1,0.9l-2.1,0.9l-8.4,3.4l-4.2,1.7l-4.2,1.6c-22.5,8.5-45.8,15.5-69.6,20
			c-5.9,1.2-11.9,2-17.9,3l-9,1.1c-3,0.4-6,0.6-9.1,0.8c-12.1,1-24.3,1.3-36.5,0.7c-12.2-0.5-24.4-1.9-36.5-4
			c-5.8-2.3-11.5-4.9-17-7.8C2205.2,4435.4,2199.9,4432.1,2195.2,4428.1z"/>
	</g>
	<g>
		<g>
			<path class="st5" d="M2195.2,4428.1c4.1,0.7,8.1,1.1,12.1,1.4c4,0.3,8,0.5,12,0.7c4,0.1,7.9,0.2,11.8,0.2
				c1.9,0.1,3.8,0.9,5.7,1.2l5.7,0.9l-2.1,15.9l-6.1-0.9c-1-0.2-2-0.3-3.1-0.4c-1-0.1-2.1-0.2-3.1-0.5c-2-0.7-3.9-1.5-5.9-2.4
				c-1.9-0.8-3.9-1.7-5.7-2.6c-3.8-1.8-7.5-3.8-11.1-6C2201.8,4433.2,2198.3,4430.8,2195.2,4428.1z"/>
			<path class="st5" d="M2289,4434.2c15.6-0.7,31.1-2.7,46.4-5.7l3.1,15.7c-16.1,3.1-32.4,5.2-48.8,5.9L2289,4434.2z"/>
			<path class="st5" d="M2380.9,4416.7c14.9-4.9,29.6-10.6,44-17l6.5,14.6c-14.8,6.6-30,12.6-45.5,17.6L2380.9,4416.7z"/>
		</g>
	</g>
	<g>
		<path class="st4" d="M2792.4,4650.9c-7.9-2.9-15.6-5.9-23.3-9.1c-7.7-3.1-15.4-6.4-23-9.7c-1-0.4-1.9-0.8-2.8-1.3
			c-0.9-0.5-1.8-1-2.7-1.6c-1.7-1.2-3.4-2.3-5.2-3.3l-10.6-6.4l-21.1-12.7l3.8,1.1l-0.4,0l-0.5,0l-1.1,0l-2.3,0.1
			c-1.5,0.1-3.1,0.1-4.6,0.3c-1.5,0.1-3.1,0.2-4.6,0.4l-4.7,0.6c-3.1,0.5-6.2,0.9-9.3,1.5l-4.6,0.9l-4.6,1.1
			c-12.3,2.9-24.3,6.9-35.9,12c-1.4,0.6-2.9,1.2-4.3,1.9l-4.3,2.1l-4.3,2.1c-1.4,0.7-2.8,1.5-4.2,2.2l-4.2,2.3
			c-1.4,0.8-2.8,1.5-4.1,2.3l-8.1,5l-8.6,5.3l-4.4,2.6c-1.5,0.9-3,1.6-4.4,2.4l-8.9,4.8c-3,1.5-6,2.9-9,4.4
			c-24.1,11.6-48.9,20.9-73.8,29.5c-6.2,2.2-12.5,4.2-18.8,6.3c-1.6,0.5-3.1,1.2-4.7,1.7c-1.6,0.5-3.2,0.7-4.9,1
			c-3.3,0.6-6.6,1.1-9.8,1.6c-13.1,2.1-26.3,3.8-39.6,4.8l36-16.8c3-1.4,6-2.8,8.9-4.2c1.5-0.7,2.9-1.5,4.5-2
			c1.5-0.5,3.1-0.8,4.7-1.3c6.2-2,12.4-4,18.5-6.2c24.6-8.5,48.9-17.7,72.1-28.8c2.9-1.4,5.8-2.8,8.7-4.2l8.4-4.5
			c1.4-0.8,2.8-1.5,4.2-2.3l4-2.5l8.2-5l8.6-5.3c1.4-0.9,2.9-1.7,4.4-2.5l4.5-2.4c1.5-0.8,3-1.7,4.5-2.4l4.6-2.2l4.6-2.2
			c1.5-0.8,3.1-1.3,4.7-2c12.4-5.4,25.4-9.7,38.6-12.8l5-1.1l5-1c3.3-0.7,6.7-1.1,10.1-1.6l5.1-0.6c1.7-0.2,3.4-0.3,5.1-0.5
			c1.7-0.1,3.5-0.2,5.2-0.3c1.8-0.1,3.4-0.1,5.5-0.1l2,0.1l1.8,1.1l21.1,12.7l10.6,6.4c1.7,1.1,3.6,2.1,5.4,3c0.9,0.5,1.8,1,2.6,1.6
			c0.8,0.6,1.6,1.3,2.5,1.9c6.5,5.2,12.9,10.4,19.3,15.8C2779.9,4639.8,2786.2,4645.3,2792.4,4650.9z"/>
	</g>
	<g>
		<g>
			<path class="st5" d="M2792.4,4650.9c-3.8-1.4-7.6-2.9-11.4-4.3c-3.8-1.5-7.5-3-11.3-4.5c-3.8-1.5-7.5-3.1-11.2-4.6
				c-3.7-1.5-7.4-3.2-11.1-4.8l7.8-13c3.1,2.5,6.3,5,9.4,7.6c3.1,2.6,6.3,5.1,9.3,7.7c3.1,2.6,6.2,5.2,9.3,7.9
				C2786.3,4645.5,2789.4,4648.1,2792.4,4650.9z"/>
			<path class="st5" d="M2706.1,4608.2l-2.3-1.4l3.8,1.1l-1.1,0l-1.3,0c-0.9,0-1.7,0-2.6,0.1c-1.8,0.1-3.5,0.2-5.3,0.3
				c-3.6,0.3-7.2,0.7-10.7,1.3c-3.6,0.6-7.1,1.2-10.7,1.9c-3.6,0.7-7.1,1.6-10.6,2.5l-4.1-15.5c3.8-1,7.6-1.9,11.4-2.7
				c3.8-0.8,7.7-1.5,11.6-2.1c3.9-0.6,7.8-1.1,11.8-1.4c2-0.2,4-0.3,6-0.4c1-0.1,2-0.1,3-0.1l1.6,0c0.5,0,1,0,1.7,0l2,0.1l1.8,1.1
				l2.3,1.4L2706.1,4608.2z"/>
			<path class="st5" d="M2622.1,4630.6c-6.9,3.5-13.6,7.4-20.1,11.5c-1.6,1-3.4,2.2-5.1,3.3c-1.8,1.1-3.5,2.2-5.3,3.2
				c-3.6,2.1-7.1,4.1-10.8,6l-7.5-14.1c3.4-1.8,6.8-3.7,10.2-5.7c1.7-1,3.3-2,4.9-3c1.6-1,3.2-2,5-3.2c6.9-4.5,14.1-8.6,21.5-12.3
				L2622.1,4630.6z"/>
			<path class="st5" d="M2536.4,4675.2c-15,6.1-30.2,11.7-45.4,16.9l-5.2-15.1c15-5.1,29.9-10.6,44.6-16.5L2536.4,4675.2z"/>
			<path class="st5" d="M2444,4703.6c-4.9,0.6-9.8,1.2-14.7,1.8l-7.4,0.8c-2.5,0.3-4.9,0.5-7.4,0.7c2.2-1.1,4.5-2.2,6.7-3.2l6.7-3.2
				c4.5-2.1,8.9-4.1,13.4-6.1L2444,4703.6z"/>
		</g>
	</g>
</g>
<g id="Waypoints" class="st6">
	<polyline class="st7" points="4645.3,3390.1 4723.4,3391.5 4804.7,3392.9 4909.4,3394.8 5004.1,3396.5 5103.8,3398.2 
		5191.8,3399.8 5274.9,3401.3 5379.5,3403.1 5480.9,3404.9 5575.6,3406.6 5668.6,3408.3 5771.5,3410.1 5876.2,3411.9 5950.9,3413.3 
		6075.4,3429.3 6165.1,3452.6 6289.7,3480.8 6386.1,3504.1 6479.1,3525.7 6603.7,3547.3 6728.2,3580.5 6836.2,3603.7 6960.8,3628.7 
		7104.8,3653.6 7208.3,3672 7260,3715.6 7228.1,3768.1 7161.8,3811.4 7062.1,3864.5 6982.4,3919.3 6894.3,3979.1 6801.3,4037.5 
		6719.9,4095.4 6648.5,4148.6 6567.1,4206.7 6465.8,4289.8 6416.7,4390 6402.7,4475.8 6409.3,4575.5 6442.5,4658.5 6518.9,4744.9 
		6592,4809.7 6678.4,4879.4 6767.2,4953.9 6852.3,5013.1 6942.2,5075.6 7031.5,5137.7 7131.9,5193.4 7236.5,5244.9 7359.4,5254.8 
		7464.1,5223.3 7527.2,5138.5 7527.2,5023.9 7484,4902.7 7437.5,4774.8 7404.3,4660.2 7376,4533.9 7445.2,4445.6 7527.2,4379.1 
		7600.1,4313.2 7696.9,4220 7773.8,4147.9 7844.2,4097.6 7959,4015.8 8039.8,3958.2 8112.5,3906.4 8217.1,3831.8 8304.1,3769.8 
		8404.3,3698.3 8509.7,3623.2 8607.5,3567.8 8702.7,3510.8 8773.8,3458.2 8864.7,3404.5 8966,3349.1 9069.9,3297.2 9158.2,3247.8 
		9251.7,3195.9 9350.4,3143.9 9438.7,3104.9 9540,3053 9662.1,2995.9 9779,2925.7 9872.5,2863.4 9934.8,2795.9 9994.6,2720.5 
		10033.2,2609.1 10048.4,2490.3 10048.4,2351.7 10048.4,2240 10048.4,2120.5 10036.1,2029.6 10036.1,1936.8 10033.5,1850.4 
		10036.1,1754.3 10080.3,1671.2 10178.9,1627 10295.9,1627 10407.5,1663.4 10514,1694.5 10633.8,1715.3 10773.8,1736.1 
		10919.2,1756.9 11062.1,1762.1 11192,1762.1 11334.8,1769.9 11499.4,1782.8 11654.3,1795.8 11823.2,1811.4 12005,1827.5 
		12147.8,1827.5 12329.7,1827.5 12519.3,1827.5 12740.1,1814 12903.7,1790.6 13080.3,1772.5 13225.8,1764.7 13371.2,1772.5 
		13495.2,1789.6 13589.4,1827.5 13680.3,1871 13753.8,1936.8 13771.2,2055.6 13727.1,2151.7 13599.8,2206.2 13441.4,2203.6 
		13282.9,2208.8 13121.9,2211.4 12937.5,2229.6 12766,2247.8 12589.4,2265.6 12402.4,2279 12236.1,2284.2 12059.5,2286.8 
		11890.7,2318.2 11719.3,2354.3 11532.2,2405.5 11412.8,2486.8 11293.3,2616.6 11189.4,2759.5 11119.2,2871.2 11030.9,2956.9 
		10856.9,3011.4 10706.3,3076.4 10547.8,3149.1 10381.6,3232.2 10225.7,3315.3 10121.8,3367.3 9966,3440.9 9823.1,3533.5 
		9677.7,3619.2 9516.6,3712.8 9373.3,3806.3 9208.3,3886.5 9050.9,3963 8926.6,4023.4 8828.3,4097.2 8714,4169.9 8576.4,4260.8 
		8459.5,4351.7 8399.7,4429.6 8360.8,4559.5 8371.2,4689.4 8381.5,4824.8 8397.1,4949.1 8430.9,5089.4 8464.7,5214.1 8493.2,5323.2 
		8524.4,5449.5 8545.2,5564.7 8524.4,5668.6 8472.5,5789.7 8334.8,5858.2 8163.4,5879.9 7973.7,5892 7804.9,5907.6 7628.3,5928.4 
		7475,5938.8 7254.3,5956.9 7090.6,5967.3 6903.6,5980.3 6724.4,5995.9 6521.8,6014.1 6363.3,6024.5 6173.7,6024.5 5978.8,6041.9 
		5802.3,6024.5 5607.5,5993.3 5389.3,5907.6 5210.1,5829.7 5023,5733.6 4854.2,5647.8 4698.4,5567.3 4550.3,5492 4397.1,5408.9 
		4224.8,5331.6 4030.7,5217.6 3898.2,5139.8 3744.2,5049.4 3597.8,4963.5 3443.3,4872.8 3293.7,4795.9 3161.9,4707.6 2989.2,4634.8 
		2846.4,4572.5 2677.6,4523.2 2537.9,4512.5 2342.5,4481.6 2233.2,4456.5 2093.1,4424.4 1945.1,4341.3 1829.2,4262.7 1724.3,4195.9 
		1615.2,4125.7 1506.1,4058.2 1391.8,3980.3 1290.5,3910.2 1212.6,3831.8 1170.5,3741 1170.5,3624.4 1215.2,3541.3 1293.1,3468.6 
		1414.4,3436.7 1539.9,3436.7 1674.9,3436.7 1817.8,3421 1971,3401.1 2139.9,3389.5 2277.5,3377.7 2438.6,3372.5 2571.1,3375.1 
		2693.1,3375.1 2836,3372.5 2961.8,3375.1 3090.5,3375.1 3256.8,3377.7 3362.6,3367.3 3501,3369.8 3628.2,3372 3726.9,3373.8 
		3818.3,3375.4 3921.5,3377.2 4015.6,3378.9 4148.6,3381.3 4267.6,3383.4 4364.3,3385.1 4456.8,3386.7 	"/>
</g>
<g id="Walls" class="st6">
	<polyline class="st8" points="8266.6,4102.4 7624.4,4616.2 7896.1,4969.4 8020.3,5316.3 7893.3,5684.8 7132.9,5721.4 
		6101.4,5392.6 5706.8,4775.3 5764.1,4278.9 6072.8,3998.9 6418.5,3908.8 6992.9,3749.2 6293.6,3706.4 1477.2,3617.2 1413,3674.3 
		1413,3756.4 1901,4012.4 2547,3884.8 3017.9,4154.8 5783.5,5786.4 8302.3,5665.1 8362.9,5550.9 8020.4,4626.9 8088.2,4298.7 
		8266.6,4102.4 10258.4,3085.6 10817.5,2800.2 10865.1,2341 11008.3,2067.3 11556,2084.4 13606.5,2084.4 13654.9,2031.2 
		13628.9,1983.2 12948.1,2084.4 	"/>
	<polyline class="st8" points="11556,2084.4 10201.6,1824.2 10645.5,2382.3 10712.3,2684.6 10369.5,3028.9 	"/>
	<polygon class="st9" points="14352.8,2610.4 14671.2,1152 14400.1,1093.2 13148.3,1522.6 11728.6,1522.6 10502.6,829.4 
		9723.9,898.2 9341,1479 9792.7,2516.9 9706.7,2670.6 8463.4,3363.3 7134.1,4382.8 7082.5,4649.6 7336.3,5045.3 7344.9,5114.2 
		7267.5,5088.4 6656.6,4606.5 6630.8,4486.1 6729.7,4335.5 7470.8,4124.6 8042,3686.5 7921.4,3341.8 7473.6,3143.9 1515.7,3066.4 
		487.5,2893.2 216.5,3143.9 268.1,4120.4 1201.7,4357 2019.1,4851.7 2447.9,4907.7 2655.7,4821.5 3972.1,5548.7 4133.3,5983.2 
		4875.6,6490.8 7387.7,6391.9 8334.4,6878 8897.9,6800.5 9130.2,6447.8 9164.6,6009 8721.5,4585 10201.6,3828.4 10859.6,3793.5 
		11642.6,2558.8 	"/>
</g>
<g id="Spawns" class="st6">
	<polyline class="st10" points="3816.9,3417.2 3860,3417.2 3860,3449.6 3816.9,3449.6 	"/>
	<polyline class="st10" points="3754.9,3324.9 3798,3324.9 3798,3357.3 3754.9,3357.3 	"/>
	<polyline class="st10" points="3940.9,3417.2 3984.1,3417.2 3984.1,3449.6 3940.9,3449.6 	"/>
	<polyline class="st10" points="3878.9,3324.9 3922.1,3324.9 3922.1,3357.3 3878.9,3357.3 	"/>
	<polyline class="st10" points="4014.2,3324.9 4057.3,3324.9 4057.3,3357.3 4014.2,3357.3 	"/>
	<polyline class="st10" points="4076.2,3417.2 4119.3,3417.2 4119.3,3449.6 4076.2,3449.6 	"/>
	<polyline class="st10" points="4147.2,3324.9 4190.4,3324.9 4190.4,3357.3 4147.2,3357.3 	"/>
	<polyline class="st10" points="4209.2,3417.2 4252.4,3417.2 4252.4,3449.6 4209.2,3449.6 	"/>
	<polyline class="st10" points="4337.3,3417.2 4380.5,3417.2 4380.5,3449.6 4337.3,3449.6 	"/>
	<polyline class="st10" points="4275.3,3324.9 4318.5,3324.9 4318.5,3357.3 4275.3,3357.3 	"/>
	<circle class="st11" cx="3842.5" cy="3433.4" r="15.7"/>
	<circle class="st11" cx="3780.5" cy="3341.1" r="15.7"/>
	<circle class="st11" cx="3904.5" cy="3341.1" r="15.7"/>
	<circle class="st11" cx="3966.5" cy="3433.4" r="15.7"/>
	<circle class="st11" cx="4039.8" cy="3341.1" r="15.7"/>
	<circle class="st11" cx="4101.8" cy="3433.4" r="15.7"/>
	<circle class="st11" cx="4172.8" cy="3341.1" r="15.7"/>
	<circle class="st11" cx="4234.8" cy="3433.4" r="15.7"/>
	<circle class="st11" cx="4300.9" cy="3341.1" r="15.7"/>
	<circle class="st11" cx="4362.9" cy="3433.4" r="15.7"/>
</g>
</svg>
