<svg xmlns="http://www.w3.org/2000/svg" viewBox="0 0 481.56 161.12"><defs><style>.cls-1{isolation:isolate;}.cls-2,.cls-3{fill:none;stroke-miterlimit:10;stroke-width:4px;}.cls-2{stroke:#fff;}.cls-3{stroke:red;stroke-dasharray:12;}.cls-4{fill:#ccc;}</style></defs><title>Spinout</title><g id="Layer_2" data-name="Layer 2"><g id="Layer_1-2" data-name="Layer 1"><g class="cls-1"><path class="cls-2" d="M66.71,54.68l7,8.78,4,4.84Q89.34,82.69,89.34,98.72A40.14,40.14,0,0,1,79.05,126Q65,142.17,42.19,142.17q-17.64,0-28.91-10.87T2,103.49Q2,82.76,19.56,68.9q9.3-7.34,17.18-7.34a9.54,9.54,0,0,1,6.66,2.35A7.82,7.82,0,0,1,46,70q0,5-5.9,8.63L34,82.3a26.45,26.45,0,0,0-8.7,9.08,22.35,22.35,0,0,0-3.48,11.51,19.77,19.77,0,0,0,6.09,14.87q6.09,5.86,15.48,5.86a24.47,24.47,0,0,0,18-7.75,25.2,25.2,0,0,0,7.65-18.28A24,24,0,0,0,66,85.48Q62.85,80,52.56,68.6a70.23,70.23,0,0,1-10.3-13.92H21.83q-10.44,0-10.45-7.19a9.61,9.61,0,0,1,3.68-8.07q3.66-2.84,10.33-2.83H38.33q1.52-15,13.7-24.79T81.24,2Q94,2,102.09,9a23.09,23.09,0,0,1,8.06,18.24q0,14.91-12.79,22.85-7.26,4.54-23.08,4.55ZM57.63,36.59H75.79q15.36,0,15.37-8.93A6.47,6.47,0,0,0,88,22.06a14.65,14.65,0,0,0-8.36-2.12A24.06,24.06,0,0,0,64.78,25Q58.08,30.08,57.63,36.59Z"/><path class="cls-2" d="M120.22,100.46l-19.76,48.59q-4.08,10.06-11.95,10.07a7.35,7.35,0,0,1-5.19-2,6.31,6.31,0,0,1-2.15-4.8,21.82,21.82,0,0,1,1.89-7.12l36.48-89.91q2.79-6.81,9.68-6.81,4.77,0,7.57,4.54a17.15,17.15,0,0,1,12.94-5.6,15.72,15.72,0,0,1,12.83,6q4.89,6,4.88,15.85,0,18.61-11.58,30.35a21,21,0,0,1-7.79,5.3,34.45,34.45,0,0,1-11.2,1.44c-5.15,0-8.69-.36-10.64-1.06A14.94,14.94,0,0,1,120.22,100.46ZM126.42,85a11.39,11.39,0,0,0,3.6,4.32,11.21,11.21,0,0,0,5.41,1,9.92,9.92,0,0,0,8.4-4Q150,78.21,150,69.66q0-7.34-7-7.34-7.65,0-11,8.85c-.25.66-.45,1.21-.6,1.67Z"/><path class="cls-2" d="M192.5,89.87h8.55q9.54,0,9.53,6.73a8.53,8.53,0,0,1-3.36,7.19q-3.37,2.58-9.43,2.58h-12q-6.66,0-10.48-2.73a8.62,8.62,0,0,1-3.82-7.41A17.71,17.71,0,0,1,173,89.87l12.49-30.73.84-2.12q3.48-8.55,11.2-8.55a7.84,7.84,0,0,1,5.48,2.12,6.64,6.64,0,0,1,2.31,5.07c0,1.61-.68,4.09-2,7.42Zm10-65.54A10.47,10.47,0,0,1,213,34.85a10.52,10.52,0,1,1-21,0,10.45,10.45,0,0,1,10.52-10.52Z"/><path class="cls-2" d="M269.54,89.87h9.08q9.61,0,9.62,6.73a8.49,8.49,0,0,1-3.41,7.19q-3.4,2.58-9.39,2.58H259.63a11.26,11.26,0,0,1-7.76-2.8,9,9,0,0,1-3.14-7c0-1.72.7-4.29,2.12-7.72l6.66-16.5a13.46,13.46,0,0,0,1.13-4.16A3.71,3.71,0,0,0,257.17,65a6.07,6.07,0,0,0-4-1.28q-7.78,0-12.56,11.73l-8.93,22q-4,10-12,10a8.14,8.14,0,0,1-5.52-2,6.15,6.15,0,0,1-2.27-4.84,13.74,13.74,0,0,1,1.21-5.08l.83-2,15.29-37.69q3-7.34,10.06-7.34a8.59,8.59,0,0,1,8.33,5.15q8.1-6.21,15.44-6.21a17,17,0,0,1,11.73,4.09,13.23,13.23,0,0,1,4.62,10.37,20.73,20.73,0,0,1-1.67,7.64Z"/><path class="cls-2" d="M326.08,47.41q11,0,18.05,7t7.07,17.71a37.94,37.94,0,0,1-3.7,16.09,35.06,35.06,0,0,1-9.62,12.75,23.13,23.13,0,0,1-8.13,4.27A45.54,45.54,0,0,1,318,106.37q-12.35,0-16.65-3-10.14-7-10.14-20.59a34.24,34.24,0,0,1,10.37-24.9Q311.93,47.42,326.08,47.41Zm-1.82,16.12q-5.6,0-10.22,5.52a18.58,18.58,0,0,0-4.61,12.19q0,8.78,9.84,8.78,5.75,0,8.85-3.56a19.54,19.54,0,0,0,5.15-13.32,9.77,9.77,0,0,0-2.5-7A8.54,8.54,0,0,0,324.26,63.53Z"/><path class="cls-2" d="M408.57,89.87h8.78q5.22,0,7.42,1.55c1.46,1,2.19,2.74,2.19,5.11a8.62,8.62,0,0,1-3.37,7.23q-3.36,2.61-9.42,2.61H400.63q-6.36,0-8.48-4.92a13.13,13.13,0,0,1-10.45,4.92H370.65a15.45,15.45,0,0,1-11-4.16,13.93,13.93,0,0,1-4.39-10.53,23.08,23.08,0,0,1,2-8.47l10.3-25.28q4.31-10.51,11.8-10.52a7.89,7.89,0,0,1,5.53,2.08,6.68,6.68,0,0,1,2.27,5.11,14.19,14.19,0,0,1-1.21,5.22l-.84,2-7.94,19.45-.84,2.27a13.18,13.18,0,0,0-.75,3q-.15,3.4,4.39,3.4,9.38,0,12.49-7.56l9.46-23.32q4.23-10.59,12-10.59a7.71,7.71,0,0,1,5.45,2.12,6.67,6.67,0,0,1,2.27,5.07c0,1.56-.65,4-2,7.26Z"/><path class="cls-2" d="M467.61,48.47H470q9.62,0,9.61,6.74a8.48,8.48,0,0,1-3.4,7.18Q472.76,65,466.77,65h-5.52l-10.14,24.9h8.47q9.62,0,9.61,6.73a8.53,8.53,0,0,1-3.36,7.19q-3.37,2.58-9.43,2.58H442.86q-5.76,0-9.12-2.65a8.65,8.65,0,0,1-3.37-7.19,16.84,16.84,0,0,1,1.36-6.21L433.17,87l8.93-22H441q-8.47,0-8.47-6.59a8.71,8.71,0,0,1,3.37-7.3q3.36-2.61,9.42-2.61h3.48l4-9.92.83-2q3.56-8.4,11.2-8.4a7.55,7.55,0,0,1,5.34,2.08,6.63,6.63,0,0,1,2.23,5,18.73,18.73,0,0,1-2,7.27Z"/></g><g class="cls-1"><path class="cls-3" d="M66.71,54.68l7,8.78,4,4.84Q89.34,82.69,89.34,98.72A40.14,40.14,0,0,1,79.05,126Q65,142.17,42.19,142.17q-17.64,0-28.91-10.87T2,103.49Q2,82.76,19.56,68.9q9.3-7.34,17.18-7.34a9.54,9.54,0,0,1,6.66,2.35A7.82,7.82,0,0,1,46,70q0,5-5.9,8.63L34,82.3a26.45,26.45,0,0,0-8.7,9.08,22.35,22.35,0,0,0-3.48,11.51,19.77,19.77,0,0,0,6.09,14.87q6.09,5.86,15.48,5.86a24.47,24.47,0,0,0,18-7.75,25.2,25.2,0,0,0,7.65-18.28A24,24,0,0,0,66,85.48Q62.85,80,52.56,68.6a70.23,70.23,0,0,1-10.3-13.92H21.83q-10.44,0-10.45-7.19a9.61,9.61,0,0,1,3.68-8.07q3.66-2.84,10.33-2.83H38.33q1.52-15,13.7-24.79T81.24,2Q94,2,102.09,9a23.09,23.09,0,0,1,8.06,18.24q0,14.91-12.79,22.85-7.26,4.54-23.08,4.55ZM57.63,36.59H75.79q15.36,0,15.37-8.93A6.47,6.47,0,0,0,88,22.06a14.65,14.65,0,0,0-8.36-2.12A24.06,24.06,0,0,0,64.78,25Q58.08,30.08,57.63,36.59Z"/><path class="cls-3" d="M120.22,100.46l-19.76,48.59q-4.08,10.06-11.95,10.07a7.35,7.35,0,0,1-5.19-2,6.31,6.31,0,0,1-2.15-4.8,21.82,21.82,0,0,1,1.89-7.12l36.48-89.91q2.79-6.81,9.68-6.81,4.77,0,7.57,4.54a17.15,17.15,0,0,1,12.94-5.6,15.72,15.72,0,0,1,12.83,6q4.89,6,4.88,15.85,0,18.61-11.58,30.35a21,21,0,0,1-7.79,5.3,34.45,34.45,0,0,1-11.2,1.44c-5.15,0-8.69-.36-10.64-1.06A14.94,14.94,0,0,1,120.22,100.46ZM126.42,85a11.39,11.39,0,0,0,3.6,4.32,11.21,11.21,0,0,0,5.41,1,9.92,9.92,0,0,0,8.4-4Q150,78.21,150,69.66q0-7.34-7-7.34-7.65,0-11,8.85c-.25.66-.45,1.21-.6,1.67Z"/><path class="cls-3" d="M192.5,89.87h8.55q9.54,0,9.53,6.73a8.53,8.53,0,0,1-3.36,7.19q-3.37,2.58-9.43,2.58h-12q-6.66,0-10.48-2.73a8.62,8.62,0,0,1-3.82-7.41A17.71,17.71,0,0,1,173,89.87l12.49-30.73.84-2.12q3.48-8.55,11.2-8.55a7.84,7.84,0,0,1,5.48,2.12,6.64,6.64,0,0,1,2.31,5.07c0,1.61-.68,4.09-2,7.42Zm10-65.54A10.47,10.47,0,0,1,213,34.85a10.52,10.52,0,1,1-21,0,10.45,10.45,0,0,1,10.52-10.52Z"/><path class="cls-3" d="M269.54,89.87h9.08q9.61,0,9.62,6.73a8.49,8.49,0,0,1-3.41,7.19q-3.4,2.58-9.39,2.58H259.63a11.26,11.26,0,0,1-7.76-2.8,9,9,0,0,1-3.14-7c0-1.72.7-4.29,2.12-7.72l6.66-16.5a13.46,13.46,0,0,0,1.13-4.16A3.71,3.71,0,0,0,257.17,65a6.07,6.07,0,0,0-4-1.28q-7.78,0-12.56,11.73l-8.93,22q-4,10-12,10a8.14,8.14,0,0,1-5.52-2,6.15,6.15,0,0,1-2.27-4.84,13.74,13.74,0,0,1,1.21-5.08l.83-2,15.29-37.69q3-7.34,10.06-7.34a8.59,8.59,0,0,1,8.33,5.15q8.1-6.21,15.44-6.21a17,17,0,0,1,11.73,4.09,13.23,13.23,0,0,1,4.62,10.37,20.73,20.73,0,0,1-1.67,7.64Z"/><path class="cls-3" d="M326.08,47.41q11,0,18.05,7t7.07,17.71a37.94,37.94,0,0,1-3.7,16.09,35.06,35.06,0,0,1-9.62,12.75,23.13,23.13,0,0,1-8.13,4.27A45.54,45.54,0,0,1,318,106.37q-12.35,0-16.65-3-10.14-7-10.14-20.59a34.24,34.24,0,0,1,10.37-24.9Q311.93,47.42,326.08,47.41Zm-1.82,16.12q-5.6,0-10.22,5.52a18.58,18.58,0,0,0-4.61,12.19q0,8.78,9.84,8.78,5.75,0,8.85-3.56a19.54,19.54,0,0,0,5.15-13.32,9.77,9.77,0,0,0-2.5-7A8.54,8.54,0,0,0,324.26,63.53Z"/><path class="cls-3" d="M408.57,89.87h8.78q5.22,0,7.42,1.55c1.46,1,2.19,2.74,2.19,5.11a8.62,8.62,0,0,1-3.37,7.23q-3.36,2.61-9.42,2.61H400.63q-6.36,0-8.48-4.92a13.13,13.13,0,0,1-10.45,4.92H370.65a15.45,15.45,0,0,1-11-4.16,13.93,13.93,0,0,1-4.39-10.53,23.08,23.08,0,0,1,2-8.47l10.3-25.28q4.31-10.51,11.8-10.52a7.89,7.89,0,0,1,5.53,2.08,6.68,6.68,0,0,1,2.27,5.11,14.19,14.19,0,0,1-1.21,5.22l-.84,2-7.94,19.45-.84,2.27a13.18,13.18,0,0,0-.75,3q-.15,3.4,4.39,3.4,9.38,0,12.49-7.56l9.46-23.32q4.23-10.59,12-10.59a7.71,7.71,0,0,1,5.45,2.12,6.67,6.67,0,0,1,2.27,5.07c0,1.56-.65,4-2,7.26Z"/><path class="cls-3" d="M467.61,48.47H470q9.62,0,9.61,6.74a8.48,8.48,0,0,1-3.4,7.18Q472.76,65,466.77,65h-5.52l-10.14,24.9h8.47q9.62,0,9.61,6.73a8.53,8.53,0,0,1-3.36,7.19q-3.37,2.58-9.43,2.58H442.86q-5.76,0-9.12-2.65a8.65,8.65,0,0,1-3.37-7.19,16.84,16.84,0,0,1,1.36-6.21L433.17,87l8.93-22H441q-8.47,0-8.47-6.59a8.71,8.71,0,0,1,3.37-7.3q3.36-2.61,9.42-2.61h3.48l4-9.92.83-2q3.56-8.4,11.2-8.4a7.55,7.55,0,0,1,5.34,2.08,6.63,6.63,0,0,1,2.23,5,18.73,18.73,0,0,1-2,7.27Z"/></g><g class="cls-1"><path class="cls-4" d="M66.71,54.68l7,8.78,4,4.84Q89.34,82.69,89.34,98.72A40.14,40.14,0,0,1,79.05,126Q65,142.17,42.19,142.17q-17.64,0-28.91-10.87T2,103.49Q2,82.76,19.56,68.9q9.3-7.34,17.18-7.34a9.54,9.54,0,0,1,6.66,2.35A7.82,7.82,0,0,1,46,70q0,5-5.9,8.63L34,82.3a26.45,26.45,0,0,0-8.7,9.08,22.35,22.35,0,0,0-3.48,11.51,19.77,19.77,0,0,0,6.09,14.87q6.09,5.86,15.48,5.86a24.47,24.47,0,0,0,18-7.75,25.2,25.2,0,0,0,7.65-18.28A24,24,0,0,0,66,85.48Q62.85,80,52.56,68.6a70.23,70.23,0,0,1-10.3-13.92H21.83q-10.44,0-10.45-7.19a9.61,9.61,0,0,1,3.68-8.07q3.66-2.84,10.33-2.83H38.33q1.52-15,13.7-24.79T81.24,2Q94,2,102.09,9a23.09,23.09,0,0,1,8.06,18.24q0,14.91-12.79,22.85-7.26,4.54-23.08,4.55ZM57.63,36.59H75.79q15.36,0,15.37-8.93A6.47,6.47,0,0,0,88,22.06a14.65,14.65,0,0,0-8.36-2.12A24.06,24.06,0,0,0,64.78,25Q58.08,30.08,57.63,36.59Z"/><path class="cls-4" d="M120.22,100.46l-19.76,48.59q-4.08,10.06-11.95,10.07a7.35,7.35,0,0,1-5.19-2,6.31,6.31,0,0,1-2.15-4.8,21.82,21.82,0,0,1,1.89-7.12l36.48-89.91q2.79-6.81,9.68-6.81,4.77,0,7.57,4.54a17.15,17.15,0,0,1,12.94-5.6,15.72,15.72,0,0,1,12.83,6q4.89,6,4.88,15.85,0,18.61-11.58,30.35a21,21,0,0,1-7.79,5.3,34.45,34.45,0,0,1-11.2,1.44c-5.15,0-8.69-.36-10.64-1.06A14.94,14.94,0,0,1,120.22,100.46ZM126.42,85a11.39,11.39,0,0,0,3.6,4.32,11.21,11.21,0,0,0,5.41,1,9.92,9.92,0,0,0,8.4-4Q150,78.21,150,69.66q0-7.34-7-7.34-7.65,0-11,8.85c-.25.66-.45,1.21-.6,1.67Z"/><path class="cls-4" d="M192.5,89.87h8.55q9.54,0,9.53,6.73a8.53,8.53,0,0,1-3.36,7.19q-3.37,2.58-9.43,2.58h-12q-6.66,0-10.48-2.73a8.62,8.62,0,0,1-3.82-7.41A17.71,17.71,0,0,1,173,89.87l12.49-30.73.84-2.12q3.48-8.55,11.2-8.55a7.84,7.84,0,0,1,5.48,2.12,6.64,6.64,0,0,1,2.31,5.07c0,1.61-.68,4.09-2,7.42Zm10-65.54A10.47,10.47,0,0,1,213,34.85a10.52,10.52,0,1,1-21,0,10.45,10.45,0,0,1,10.52-10.52Z"/><path class="cls-4" d="M269.54,89.87h9.08q9.61,0,9.62,6.73a8.49,8.49,0,0,1-3.41,7.19q-3.4,2.58-9.39,2.58H259.63a11.26,11.26,0,0,1-7.76-2.8,9,9,0,0,1-3.14-7c0-1.72.7-4.29,2.12-7.72l6.66-16.5a13.46,13.46,0,0,0,1.13-4.16A3.71,3.71,0,0,0,257.17,65a6.07,6.07,0,0,0-4-1.28q-7.78,0-12.56,11.73l-8.93,22q-4,10-12,10a8.14,8.14,0,0,1-5.52-2,6.15,6.15,0,0,1-2.27-4.84,13.74,13.74,0,0,1,1.21-5.08l.83-2,15.29-37.69q3-7.34,10.06-7.34a8.59,8.59,0,0,1,8.33,5.15q8.1-6.21,15.44-6.21a17,17,0,0,1,11.73,4.09,13.23,13.23,0,0,1,4.62,10.37,20.73,20.73,0,0,1-1.67,7.64Z"/><path class="cls-4" d="M326.08,47.41q11,0,18.05,7t7.07,17.71a37.94,37.94,0,0,1-3.7,16.09,35.06,35.06,0,0,1-9.62,12.75,23.13,23.13,0,0,1-8.13,4.27A45.54,45.54,0,0,1,318,106.37q-12.35,0-16.65-3-10.14-7-10.14-20.59a34.24,34.24,0,0,1,10.37-24.9Q311.93,47.42,326.08,47.41Zm-1.82,16.12q-5.6,0-10.22,5.52a18.58,18.58,0,0,0-4.61,12.19q0,8.78,9.84,8.78,5.75,0,8.85-3.56a19.54,19.54,0,0,0,5.15-13.32,9.77,9.77,0,0,0-2.5-7A8.54,8.54,0,0,0,324.26,63.53Z"/><path class="cls-4" d="M408.57,89.87h8.78q5.22,0,7.42,1.55c1.46,1,2.19,2.74,2.19,5.11a8.62,8.62,0,0,1-3.37,7.23q-3.36,2.61-9.42,2.61H400.63q-6.36,0-8.48-4.92a13.13,13.13,0,0,1-10.45,4.92H370.65a15.45,15.45,0,0,1-11-4.16,13.93,13.93,0,0,1-4.39-10.53,23.08,23.08,0,0,1,2-8.47l10.3-25.28q4.31-10.51,11.8-10.52a7.89,7.89,0,0,1,5.53,2.08,6.68,6.68,0,0,1,2.27,5.11,14.19,14.19,0,0,1-1.21,5.22l-.84,2-7.94,19.45-.84,2.27a13.18,13.18,0,0,0-.75,3q-.15,3.4,4.39,3.4,9.38,0,12.49-7.56l9.46-23.32q4.23-10.59,12-10.59a7.71,7.71,0,0,1,5.45,2.12,6.67,6.67,0,0,1,2.27,5.07c0,1.56-.65,4-2,7.26Z"/><path class="cls-4" d="M467.61,48.47H470q9.62,0,9.61,6.74a8.48,8.48,0,0,1-3.4,7.18Q472.76,65,466.77,65h-5.52l-10.14,24.9h8.47q9.62,0,9.61,6.73a8.53,8.53,0,0,1-3.36,7.19q-3.37,2.58-9.43,2.58H442.86q-5.76,0-9.12-2.65a8.65,8.65,0,0,1-3.37-7.19,16.84,16.84,0,0,1,1.36-6.21L433.17,87l8.93-22H441q-8.47,0-8.47-6.59a8.71,8.71,0,0,1,3.37-7.3q3.36-2.61,9.42-2.61h3.48l4-9.92.83-2q3.56-8.4,11.2-8.4a7.55,7.55,0,0,1,5.34,2.08,6.63,6.63,0,0,1,2.23,5,18.73,18.73,0,0,1-2,7.27Z"/></g></g></g></svg>