<?xml version="1.0" encoding="utf-8"?>
<!-- Generator: Adobe Illustrator 23.0.0, SVG Export Plug-In . SVG Version: 6.00 Build 0)  -->
<svg version="1.1" id="Layer_1" xmlns="http://www.w3.org/2000/svg" xmlns:xlink="http://www.w3.org/1999/xlink" x="0px" y="0px"
	 viewBox="0 0 1366 768" style="enable-background:new 0 0 1366 768;" xml:space="preserve">
<style type="text/css">
	.st0{enable-background:new    ;}
	.st1{fill:none;stroke:#FFFFFF;stroke-width:4;stroke-miterlimit:10;}
	.st2{fill:none;stroke:#FF0000;stroke-width:4;stroke-miterlimit:10;stroke-dasharray:12;}
	.st3{fill:#CCCCCC;}
</style>
<g class="st0">
	<path class="st1" d="M460,372.8l7,8.8l4,4.8c7.8,9.6,11.7,19.7,11.7,30.4c0,10.4-3.4,19.5-10.3,27.3c-9.4,10.7-21.7,16.1-36.9,16.1
		c-11.8,0-21.4-3.6-28.9-10.9c-7.5-7.2-11.3-16.5-11.3-27.8c0-13.8,5.9-25.4,17.6-34.6c6.2-4.9,11.9-7.3,17.2-7.3
		c2.7,0,4.9,0.8,6.7,2.3c1.7,1.6,2.6,3.6,2.6,6.1c0,3.3-2,6.2-5.9,8.6l-6.1,3.7c-3.5,2.2-6.4,5.2-8.7,9.1c-2.3,3.9-3.5,7.7-3.5,11.5
		c0,6,2,11,6.1,14.9c4.1,3.9,9.2,5.9,15.5,5.9c6.9,0,12.9-2.6,18-7.8c5.1-5.2,7.6-11.3,7.6-18.3c0-4.4-1-8.5-3.1-12.1
		c-2.1-3.6-6.5-9.3-13.4-16.9c-4.8-5.3-8.2-9.9-10.3-13.9h-20.4c-7,0-10.4-2.4-10.4-7.2c0-3.5,1.2-6.2,3.7-8.1
		c2.4-1.9,5.9-2.8,10.3-2.8h12.9c1-10,5.6-18.3,13.7-24.8c8.1-6.5,17.9-9.8,29.2-9.8c8.5,0,15.5,2.3,20.9,7
		c5.4,4.7,8.1,10.8,8.1,18.2c0,9.9-4.3,17.6-12.8,22.9c-4.8,3-12.5,4.5-23.1,4.5H460z M450.9,354.7h18.2c10.2,0,15.4-3,15.4-8.9
		c0-2.3-1-4.2-3.1-5.6c-2.1-1.4-4.9-2.1-8.4-2.1c-5.4,0-10.4,1.7-14.9,5.1C453.6,346.5,451.2,350.4,450.9,354.7z"/>
	<path class="st1" d="M513.5,418.6l-19.8,48.6c-2.7,6.7-6.7,10.1-12,10.1c-2,0-3.7-0.7-5.2-2c-1.4-1.3-2.2-2.9-2.2-4.8
		c0-1.6,0.6-3.9,1.9-7.1l36.5-89.9c1.9-4.5,5.1-6.8,9.7-6.8c3.2,0,5.7,1.5,7.6,4.5c3.5-3.7,7.8-5.6,12.9-5.6c5.3,0,9.6,2,12.8,6
		c3.3,4,4.9,9.3,4.9,15.9c0,12.4-3.9,22.5-11.6,30.3c-2.5,2.6-5.1,4.3-7.8,5.3c-2.7,1-6.4,1.4-11.2,1.4c-5.1,0-8.7-0.4-10.6-1.1
		C517.6,422.7,515.5,421.1,513.5,418.6z M519.7,403.2c1.3,2.2,2.5,3.7,3.6,4.3c1.1,0.7,2.9,1,5.4,1c3.6,0,6.4-1.3,8.4-4
		c4.1-5.4,6.1-10.9,6.1-16.7c0-4.9-2.3-7.3-7-7.3c-5.1,0-8.8,3-11,8.9c-0.3,0.7-0.5,1.2-0.6,1.7L519.7,403.2z"/>
	<path class="st1" d="M585.8,408h8.6c6.4,0,9.5,2.2,9.5,6.7c0,3.1-1.1,5.5-3.4,7.2c-2.2,1.7-5.4,2.6-9.4,2.6h-12
		c-4.4,0-7.9-0.9-10.5-2.7c-2.5-1.8-3.8-4.3-3.8-7.4c0-1.7,0.5-3.8,1.6-6.4l12.5-30.7l0.8-2.1c2.3-5.7,6.1-8.6,11.2-8.6
		c2.1,0,3.9,0.7,5.5,2.1c1.5,1.4,2.3,3.1,2.3,5.1c0,1.6-0.7,4.1-2,7.4L585.8,408z M595.7,342.5c2.9,0,5.4,1,7.5,3.1
		c2,2,3.1,4.5,3.1,7.5c0,2.9-1,5.4-3.1,7.5c-2,2-4.5,3.1-7.5,3.1c-2.9,0-5.4-1-7.5-3.1c-2-2-3.1-4.5-3.1-7.5c0-2.9,1-5.4,3.1-7.5
		C590.3,343.5,592.8,342.5,595.7,342.5z"/>
	<path class="st1" d="M662.8,408h9.1c6.4,0,9.6,2.2,9.6,6.7c0,3.1-1.1,5.5-3.4,7.2c-2.3,1.7-5.4,2.6-9.4,2.6h-15.8
		c-3.1,0-5.7-0.9-7.8-2.8c-2.1-1.9-3.1-4.2-3.1-7c0-1.7,0.7-4.3,2.1-7.7l6.7-16.5c0.7-1.7,1.1-3.1,1.1-4.2c0-1.2-0.4-2.2-1.5-3.1
		c-1-0.9-2.4-1.3-4-1.3c-5.2,0-9.4,3.9-12.6,11.7l-8.9,21.9c-2.7,6.7-6.7,10-12,10c-2.2,0-4-0.7-5.5-2s-2.3-2.9-2.3-4.8
		c0-1.4,0.4-3.1,1.2-5.1l0.8-2l15.3-37.7c2-4.9,5.3-7.3,10.1-7.3c3.9,0,6.7,1.7,8.3,5.1c5.4-4.1,10.5-6.2,15.4-6.2
		c4.7,0,8.7,1.4,11.7,4.1c3.1,2.7,4.6,6.2,4.6,10.4c0,2.3-0.6,4.9-1.7,7.6L662.8,408z"/>
	<path class="st1" d="M719.3,365.6c7.3,0,13.3,2.3,18,7c4.7,4.6,7.1,10.5,7.1,17.7c0,5.4-1.2,10.8-3.7,16.1
		c-2.5,5.3-5.7,9.6-9.6,12.8c-2.6,2.1-5.3,3.5-8.1,4.3c-2.8,0.8-6.7,1.2-11.8,1.2c-8.2,0-13.8-1-16.7-3
		c-6.8-4.6-10.1-11.5-10.1-20.6c0-9.6,3.5-17.9,10.4-24.9C701.7,369.1,709.9,365.6,719.3,365.6z M717.5,381.7
		c-3.7,0-7.1,1.8-10.2,5.5c-3.1,3.7-4.6,7.7-4.6,12.2c0,5.9,3.3,8.8,9.8,8.8c3.8,0,6.8-1.2,8.9-3.6c3.4-3.9,5.1-8.3,5.1-13.3
		c0-2.9-0.8-5.2-2.5-7C722.4,382.6,720.2,381.7,717.5,381.7z"/>
	<path class="st1" d="M801.8,408h8.8c3.5,0,6,0.5,7.4,1.6c1.5,1,2.2,2.7,2.2,5.1c0,3.1-1.1,5.5-3.4,7.2c-2.2,1.7-5.4,2.6-9.4,2.6
		h-13.5c-4.2,0-7.1-1.6-8.5-4.9c-2.8,3.3-6.3,4.9-10.4,4.9h-11c-4.4,0-8.1-1.4-11-4.2c-2.9-2.8-4.4-6.3-4.4-10.5
		c0-2.4,0.7-5.2,2-8.5l10.3-25.3c2.9-7,6.8-10.5,11.8-10.5c2.2,0,4,0.7,5.5,2.1s2.3,3.1,2.3,5.1c0,1.5-0.4,3.3-1.2,5.2l-0.8,2
		l-7.9,19.5l-0.8,2.3c-0.5,1.3-0.7,2.3-0.8,3c-0.1,2.3,1.4,3.4,4.4,3.4c6.3,0,10.4-2.5,12.5-7.6l9.5-23.3c2.8-7.1,6.8-10.6,12-10.6
		c2.1,0,3.9,0.7,5.4,2.1c1.5,1.4,2.3,3.1,2.3,5.1c0,1.6-0.7,4-2,7.3L801.8,408z"/>
	<path class="st1" d="M860.9,366.6h2.3c6.4,0,9.6,2.2,9.6,6.7c0,3.1-1.1,5.5-3.4,7.2c-2.3,1.7-5.4,2.6-9.4,2.6h-5.5L844.4,408h8.5
		c6.4,0,9.6,2.2,9.6,6.7c0,3.1-1.1,5.5-3.4,7.2c-2.2,1.7-5.4,2.6-9.4,2.6h-13.5c-3.8,0-6.9-0.9-9.1-2.6c-2.2-1.8-3.4-4.2-3.4-7.2
		c0-1.9,0.5-3.9,1.4-6.2l1.4-3.3l8.9-22h-1.1c-5.7,0-8.5-2.2-8.5-6.6c0-3.1,1.1-5.6,3.4-7.3c2.2-1.7,5.4-2.6,9.4-2.6h3.5l4-9.9
		l0.8-2c2.4-5.6,6.1-8.4,11.2-8.4c2.1,0,3.8,0.7,5.3,2.1c1.5,1.4,2.2,3.1,2.2,5c0,1.9-0.7,4.3-2,7.3L860.9,366.6z"/>
</g>
<g class="st0">
	<path class="st2" d="M460,372.8l7,8.8l4,4.8c7.8,9.6,11.7,19.7,11.7,30.4c0,10.4-3.4,19.5-10.3,27.3c-9.4,10.7-21.7,16.1-36.9,16.1
		c-11.8,0-21.4-3.6-28.9-10.9c-7.5-7.2-11.3-16.5-11.3-27.8c0-13.8,5.9-25.4,17.6-34.6c6.2-4.9,11.9-7.3,17.2-7.3
		c2.7,0,4.9,0.8,6.7,2.3c1.7,1.6,2.6,3.6,2.6,6.1c0,3.3-2,6.2-5.9,8.6l-6.1,3.7c-3.5,2.2-6.4,5.2-8.7,9.1c-2.3,3.9-3.5,7.7-3.5,11.5
		c0,6,2,11,6.1,14.9c4.1,3.9,9.2,5.9,15.5,5.9c6.9,0,12.9-2.6,18-7.8c5.1-5.2,7.6-11.3,7.6-18.3c0-4.4-1-8.5-3.1-12.1
		c-2.1-3.6-6.5-9.3-13.4-16.9c-4.8-5.3-8.2-9.9-10.3-13.9h-20.4c-7,0-10.4-2.4-10.4-7.2c0-3.5,1.2-6.2,3.7-8.1
		c2.4-1.9,5.9-2.8,10.3-2.8h12.9c1-10,5.6-18.3,13.7-24.8c8.1-6.5,17.9-9.8,29.2-9.8c8.5,0,15.5,2.3,20.9,7
		c5.4,4.7,8.1,10.8,8.1,18.2c0,9.9-4.3,17.6-12.8,22.9c-4.8,3-12.5,4.5-23.1,4.5H460z M450.9,354.7h18.2c10.2,0,15.4-3,15.4-8.9
		c0-2.3-1-4.2-3.1-5.6c-2.1-1.4-4.9-2.1-8.4-2.1c-5.4,0-10.4,1.7-14.9,5.1C453.6,346.5,451.2,350.4,450.9,354.7z"/>
	<path class="st2" d="M513.5,418.6l-19.8,48.6c-2.7,6.7-6.7,10.1-12,10.1c-2,0-3.7-0.7-5.2-2c-1.4-1.3-2.2-2.9-2.2-4.8
		c0-1.6,0.6-3.9,1.9-7.1l36.5-89.9c1.9-4.5,5.1-6.8,9.7-6.8c3.2,0,5.7,1.5,7.6,4.5c3.5-3.7,7.8-5.6,12.9-5.6c5.3,0,9.6,2,12.8,6
		c3.3,4,4.9,9.3,4.9,15.9c0,12.4-3.9,22.5-11.6,30.3c-2.5,2.6-5.1,4.3-7.8,5.3c-2.7,1-6.4,1.4-11.2,1.4c-5.1,0-8.7-0.4-10.6-1.1
		C517.6,422.7,515.5,421.1,513.5,418.6z M519.7,403.2c1.3,2.2,2.5,3.7,3.6,4.3c1.1,0.7,2.9,1,5.4,1c3.6,0,6.4-1.3,8.4-4
		c4.1-5.4,6.1-10.9,6.1-16.7c0-4.9-2.3-7.3-7-7.3c-5.1,0-8.8,3-11,8.9c-0.3,0.7-0.5,1.2-0.6,1.7L519.7,403.2z"/>
	<path class="st2" d="M585.8,408h8.6c6.4,0,9.5,2.2,9.5,6.7c0,3.1-1.1,5.5-3.4,7.2c-2.2,1.7-5.4,2.6-9.4,2.6h-12
		c-4.4,0-7.9-0.9-10.5-2.7c-2.5-1.8-3.8-4.3-3.8-7.4c0-1.7,0.5-3.8,1.6-6.4l12.5-30.7l0.8-2.1c2.3-5.7,6.1-8.6,11.2-8.6
		c2.1,0,3.9,0.7,5.5,2.1c1.5,1.4,2.3,3.1,2.3,5.1c0,1.6-0.7,4.1-2,7.4L585.8,408z M595.7,342.5c2.9,0,5.4,1,7.5,3.1
		c2,2,3.1,4.5,3.1,7.5c0,2.9-1,5.4-3.1,7.5c-2,2-4.5,3.1-7.5,3.1c-2.9,0-5.4-1-7.5-3.1c-2-2-3.1-4.5-3.1-7.5c0-2.9,1-5.4,3.1-7.5
		C590.3,343.5,592.8,342.5,595.7,342.5z"/>
	<path class="st2" d="M662.8,408h9.1c6.4,0,9.6,2.2,9.6,6.7c0,3.1-1.1,5.5-3.4,7.2c-2.3,1.7-5.4,2.6-9.4,2.6h-15.8
		c-3.1,0-5.7-0.9-7.8-2.8c-2.1-1.9-3.1-4.2-3.1-7c0-1.7,0.7-4.3,2.1-7.7l6.7-16.5c0.7-1.7,1.1-3.1,1.1-4.2c0-1.2-0.4-2.2-1.5-3.1
		c-1-0.9-2.4-1.3-4-1.3c-5.2,0-9.4,3.9-12.6,11.7l-8.9,21.9c-2.7,6.7-6.7,10-12,10c-2.2,0-4-0.7-5.5-2s-2.3-2.9-2.3-4.8
		c0-1.4,0.4-3.1,1.2-5.1l0.8-2l15.3-37.7c2-4.9,5.3-7.3,10.1-7.3c3.9,0,6.7,1.7,8.3,5.1c5.4-4.1,10.5-6.2,15.4-6.2
		c4.7,0,8.7,1.4,11.7,4.1c3.1,2.7,4.6,6.2,4.6,10.4c0,2.3-0.6,4.9-1.7,7.6L662.8,408z"/>
	<path class="st2" d="M719.3,365.6c7.3,0,13.3,2.3,18,7c4.7,4.6,7.1,10.5,7.1,17.7c0,5.4-1.2,10.8-3.7,16.1
		c-2.5,5.3-5.7,9.6-9.6,12.8c-2.6,2.1-5.3,3.5-8.1,4.3c-2.8,0.8-6.7,1.2-11.8,1.2c-8.2,0-13.8-1-16.7-3
		c-6.8-4.6-10.1-11.5-10.1-20.6c0-9.6,3.5-17.9,10.4-24.9C701.7,369.1,709.9,365.6,719.3,365.6z M717.5,381.7
		c-3.7,0-7.1,1.8-10.2,5.5c-3.1,3.7-4.6,7.7-4.6,12.2c0,5.9,3.3,8.8,9.8,8.8c3.8,0,6.8-1.2,8.9-3.6c3.4-3.9,5.1-8.3,5.1-13.3
		c0-2.9-0.8-5.2-2.5-7C722.4,382.6,720.2,381.7,717.5,381.7z"/>
	<path class="st2" d="M801.8,408h8.8c3.5,0,6,0.5,7.4,1.6c1.5,1,2.2,2.7,2.2,5.1c0,3.1-1.1,5.5-3.4,7.2c-2.2,1.7-5.4,2.6-9.4,2.6
		h-13.5c-4.2,0-7.1-1.6-8.5-4.9c-2.8,3.3-6.3,4.9-10.4,4.9h-11c-4.4,0-8.1-1.4-11-4.2c-2.9-2.8-4.4-6.3-4.4-10.5
		c0-2.4,0.7-5.2,2-8.5l10.3-25.3c2.9-7,6.8-10.5,11.8-10.5c2.2,0,4,0.7,5.5,2.1s2.3,3.1,2.3,5.1c0,1.5-0.4,3.3-1.2,5.2l-0.8,2
		l-7.9,19.5l-0.8,2.3c-0.5,1.3-0.7,2.3-0.8,3c-0.1,2.3,1.4,3.4,4.4,3.4c6.3,0,10.4-2.5,12.5-7.6l9.5-23.3c2.8-7.1,6.8-10.6,12-10.6
		c2.1,0,3.9,0.7,5.4,2.1c1.5,1.4,2.3,3.1,2.3,5.1c0,1.6-0.7,4-2,7.3L801.8,408z"/>
	<path class="st2" d="M860.9,366.6h2.3c6.4,0,9.6,2.2,9.6,6.7c0,3.1-1.1,5.5-3.4,7.2c-2.3,1.7-5.4,2.6-9.4,2.6h-5.5L844.4,408h8.5
		c6.4,0,9.6,2.2,9.6,6.7c0,3.1-1.1,5.5-3.4,7.2c-2.2,1.7-5.4,2.6-9.4,2.6h-13.5c-3.8,0-6.9-0.9-9.1-2.6c-2.2-1.8-3.4-4.2-3.4-7.2
		c0-1.9,0.5-3.9,1.4-6.2l1.4-3.3l8.9-22h-1.1c-5.7,0-8.5-2.2-8.5-6.6c0-3.1,1.1-5.6,3.4-7.3c2.2-1.7,5.4-2.6,9.4-2.6h3.5l4-9.9
		l0.8-2c2.4-5.6,6.1-8.4,11.2-8.4c2.1,0,3.8,0.7,5.3,2.1c1.5,1.4,2.2,3.1,2.2,5c0,1.9-0.7,4.3-2,7.3L860.9,366.6z"/>
</g>
<g class="st0">
	<path class="st3" d="M460,372.8l7,8.8l4,4.8c7.8,9.6,11.7,19.7,11.7,30.4c0,10.4-3.4,19.5-10.3,27.3c-9.4,10.7-21.7,16.1-36.9,16.1
		c-11.8,0-21.4-3.6-28.9-10.9c-7.5-7.2-11.3-16.5-11.3-27.8c0-13.8,5.9-25.4,17.6-34.6c6.2-4.9,11.9-7.3,17.2-7.3
		c2.7,0,4.9,0.8,6.7,2.3c1.7,1.6,2.6,3.6,2.6,6.1c0,3.3-2,6.2-5.9,8.6l-6.1,3.7c-3.5,2.2-6.4,5.2-8.7,9.1c-2.3,3.9-3.5,7.7-3.5,11.5
		c0,6,2,11,6.1,14.9c4.1,3.9,9.2,5.9,15.5,5.9c6.9,0,12.9-2.6,18-7.8c5.1-5.2,7.6-11.3,7.6-18.3c0-4.4-1-8.5-3.1-12.1
		c-2.1-3.6-6.5-9.3-13.4-16.9c-4.8-5.3-8.2-9.9-10.3-13.9h-20.4c-7,0-10.4-2.4-10.4-7.2c0-3.5,1.2-6.2,3.7-8.1
		c2.4-1.9,5.9-2.8,10.3-2.8h12.9c1-10,5.6-18.3,13.7-24.8c8.1-6.5,17.9-9.8,29.2-9.8c8.5,0,15.5,2.3,20.9,7
		c5.4,4.7,8.1,10.8,8.1,18.2c0,9.9-4.3,17.6-12.8,22.9c-4.8,3-12.5,4.5-23.1,4.5H460z M450.9,354.7h18.2c10.2,0,15.4-3,15.4-8.9
		c0-2.3-1-4.2-3.1-5.6c-2.1-1.4-4.9-2.1-8.4-2.1c-5.4,0-10.4,1.7-14.9,5.1C453.6,346.5,451.2,350.4,450.9,354.7z"/>
	<path class="st3" d="M513.5,418.6l-19.8,48.6c-2.7,6.7-6.7,10.1-12,10.1c-2,0-3.7-0.7-5.2-2c-1.4-1.3-2.2-2.9-2.2-4.8
		c0-1.6,0.6-3.9,1.9-7.1l36.5-89.9c1.9-4.5,5.1-6.8,9.7-6.8c3.2,0,5.7,1.5,7.6,4.5c3.5-3.7,7.8-5.6,12.9-5.6c5.3,0,9.6,2,12.8,6
		c3.3,4,4.9,9.3,4.9,15.9c0,12.4-3.9,22.5-11.6,30.3c-2.5,2.6-5.1,4.3-7.8,5.3c-2.7,1-6.4,1.4-11.2,1.4c-5.1,0-8.7-0.4-10.6-1.1
		C517.6,422.7,515.5,421.1,513.5,418.6z M519.7,403.2c1.3,2.2,2.5,3.7,3.6,4.3c1.1,0.7,2.9,1,5.4,1c3.6,0,6.4-1.3,8.4-4
		c4.1-5.4,6.1-10.9,6.1-16.7c0-4.9-2.3-7.3-7-7.3c-5.1,0-8.8,3-11,8.9c-0.3,0.7-0.5,1.2-0.6,1.7L519.7,403.2z"/>
	<path class="st3" d="M585.8,408h8.6c6.4,0,9.5,2.2,9.5,6.7c0,3.1-1.1,5.5-3.4,7.2c-2.2,1.7-5.4,2.6-9.4,2.6h-12
		c-4.4,0-7.9-0.9-10.5-2.7c-2.5-1.8-3.8-4.3-3.8-7.4c0-1.7,0.5-3.8,1.6-6.4l12.5-30.7l0.8-2.1c2.3-5.7,6.1-8.6,11.2-8.6
		c2.1,0,3.9,0.7,5.5,2.1c1.5,1.4,2.3,3.1,2.3,5.1c0,1.6-0.7,4.1-2,7.4L585.8,408z M595.7,342.5c2.9,0,5.4,1,7.5,3.1
		c2,2,3.1,4.5,3.1,7.5c0,2.9-1,5.4-3.1,7.5c-2,2-4.5,3.1-7.5,3.1c-2.9,0-5.4-1-7.5-3.1c-2-2-3.1-4.5-3.1-7.5c0-2.9,1-5.4,3.1-7.5
		C590.3,343.5,592.8,342.5,595.7,342.5z"/>
	<path class="st3" d="M662.8,408h9.1c6.4,0,9.6,2.2,9.6,6.7c0,3.1-1.1,5.5-3.4,7.2c-2.3,1.7-5.4,2.6-9.4,2.6h-15.8
		c-3.1,0-5.7-0.9-7.8-2.8c-2.1-1.9-3.1-4.2-3.1-7c0-1.7,0.7-4.3,2.1-7.7l6.7-16.5c0.7-1.7,1.1-3.1,1.1-4.2c0-1.2-0.4-2.2-1.5-3.1
		c-1-0.9-2.4-1.3-4-1.3c-5.2,0-9.4,3.9-12.6,11.7l-8.9,21.9c-2.7,6.7-6.7,10-12,10c-2.2,0-4-0.7-5.5-2s-2.3-2.9-2.3-4.8
		c0-1.4,0.4-3.1,1.2-5.1l0.8-2l15.3-37.7c2-4.9,5.3-7.3,10.1-7.3c3.9,0,6.7,1.7,8.3,5.1c5.4-4.1,10.5-6.2,15.4-6.2
		c4.7,0,8.7,1.4,11.7,4.1c3.1,2.7,4.6,6.2,4.6,10.4c0,2.3-0.6,4.9-1.7,7.6L662.8,408z"/>
	<path class="st3" d="M719.3,365.6c7.3,0,13.3,2.3,18,7c4.7,4.6,7.1,10.5,7.1,17.7c0,5.4-1.2,10.8-3.7,16.1
		c-2.5,5.3-5.7,9.6-9.6,12.8c-2.6,2.1-5.3,3.5-8.1,4.3c-2.8,0.8-6.7,1.2-11.8,1.2c-8.2,0-13.8-1-16.7-3
		c-6.8-4.6-10.1-11.5-10.1-20.6c0-9.6,3.5-17.9,10.4-24.9C701.7,369.1,709.9,365.6,719.3,365.6z M717.5,381.7
		c-3.7,0-7.1,1.8-10.2,5.5c-3.1,3.7-4.6,7.7-4.6,12.2c0,5.9,3.3,8.8,9.8,8.8c3.8,0,6.8-1.2,8.9-3.6c3.4-3.9,5.1-8.3,5.1-13.3
		c0-2.9-0.8-5.2-2.5-7C722.4,382.6,720.2,381.7,717.5,381.7z"/>
	<path class="st3" d="M801.8,408h8.8c3.5,0,6,0.5,7.4,1.6c1.5,1,2.2,2.7,2.2,5.1c0,3.1-1.1,5.5-3.4,7.2c-2.2,1.7-5.4,2.6-9.4,2.6
		h-13.5c-4.2,0-7.1-1.6-8.5-4.9c-2.8,3.3-6.3,4.9-10.4,4.9h-11c-4.4,0-8.1-1.4-11-4.2c-2.9-2.8-4.4-6.3-4.4-10.5
		c0-2.4,0.7-5.2,2-8.5l10.3-25.3c2.9-7,6.8-10.5,11.8-10.5c2.2,0,4,0.7,5.5,2.1s2.3,3.1,2.3,5.1c0,1.5-0.4,3.3-1.2,5.2l-0.8,2
		l-7.9,19.5l-0.8,2.3c-0.5,1.3-0.7,2.3-0.8,3c-0.1,2.3,1.4,3.4,4.4,3.4c6.3,0,10.4-2.5,12.5-7.6l9.5-23.3c2.8-7.1,6.8-10.6,12-10.6
		c2.1,0,3.9,0.7,5.4,2.1c1.5,1.4,2.3,3.1,2.3,5.1c0,1.6-0.7,4-2,7.3L801.8,408z"/>
	<path class="st3" d="M860.9,366.6h2.3c6.4,0,9.6,2.2,9.6,6.7c0,3.1-1.1,5.5-3.4,7.2c-2.3,1.7-5.4,2.6-9.4,2.6h-5.5L844.4,408h8.5
		c6.4,0,9.6,2.2,9.6,6.7c0,3.1-1.1,5.5-3.4,7.2c-2.2,1.7-5.4,2.6-9.4,2.6h-13.5c-3.8,0-6.9-0.9-9.1-2.6c-2.2-1.8-3.4-4.2-3.4-7.2
		c0-1.9,0.5-3.9,1.4-6.2l1.4-3.3l8.9-22h-1.1c-5.7,0-8.5-2.2-8.5-6.6c0-3.1,1.1-5.6,3.4-7.3c2.2-1.7,5.4-2.6,9.4-2.6h3.5l4-9.9
		l0.8-2c2.4-5.6,6.1-8.4,11.2-8.4c2.1,0,3.8,0.7,5.3,2.1c1.5,1.4,2.2,3.1,2.2,5c0,1.9-0.7,4.3-2,7.3L860.9,366.6z"/>
</g>
</svg>
